<?xml version="1.0" encoding="utf-8"?>
<svg version="1.1" xmlns="http://www.w3.org/2000/svg" xmlns:xlink="http://www.w3.org/1999/xlink" x="0px" y="0px" viewBox="0 0 24 24">
     <g fill="#DC4F42">
        <path class="st0" d="M0,12.2C0.1,8.3,3.7,4.9,7.6,5c1.9-0.1,3.7,0.7,5.1,1.9c-0.6,0.7-1.3,1.4-1.9,2C9,7.7,6.6,7.3,4.9,8.7
            c-2.5,1.7-2.6,5.8-0.2,7.6c2.3,2.1,6.7,1.1,7.3-2.2c-1.5,0-2.9,0-4.4,0c0-0.9,0-1.7,0-2.6c2.4,0,4.9,0,7.3,0c0.1,2-0.1,4.2-1.4,5.9
            c-1.9,2.7-5.7,3.4-8.7,2.3C1.9,18.6-0.2,15.4,0,12.2z"/>
        <path class="st0" d="M19.6,9.3c0.7,0,1.4,0,2.2,0c0,0.7,0,1.5,0,2.2c0.7,0,1.5,0,2.2,0c0,0.7,0,1.4,0,2.2c-0.7,0-1.4,0-2.2,0
            c0,0.7,0,1.5,0,2.2c-0.7,0-1.4,0-2.2,0c0-0.7,0-1.4,0-2.2c-0.7,0-1.5,0-2.2,0c0-0.7,0-1.4,0-2.2c0.7,0,1.4,0,2.2,0
            C19.6,10.8,19.6,10.1,19.6,9.3z"/>
    </g>
</svg>
