<?xml version="1.0" encoding="utf-8"?>
<svg version="1.1" xmlns="http://www.w3.org/2000/svg" xmlns:xlink="http://www.w3.org/1999/xlink" x="0px" y="0px" viewBox="0 0 24 24">
    <path fill="#27B4E8" d="M7.8,21.5c8.6,0,13.3-7.1,13.3-13.3c0-0.2,0-0.4,0-0.6C22,7,22.8,6.1,23.4,5.2
        c-0.8,0.4-1.7,0.6-2.7,0.7c1-0.6,1.7-1.5,2.1-2.6c-0.9,0.5-1.9,0.9-3,1.1C19,3.6,17.8,3,16.4,3c-2.6,0-4.7,2.1-4.7,4.7
        c0,0.4,0,0.7,0.1,1.1C8,8.5,4.6,6.7,2.3,3.9C1.9,4.6,1.6,5.4,1.6,6.2c0,1.6,0.8,3,2.1,3.9c-0.8,0-1.5-0.2-2.1-0.6c0,0,0,0,0,0.1
        c0,2.3,1.6,4.1,3.7,4.6c-0.4,0.1-0.8,0.2-1.2,0.2c-0.3,0-0.6,0-0.9-0.1c0.6,1.9,2.3,3.2,4.4,3.2c-1.6,1.3-3.6,2-5.8,2
        c-0.4,0-0.7,0-1.1-0.1C2.7,20.7,5.2,21.5,7.8,21.5"/>
</svg>