<svg id="mermaidChart0" width="3701" height="760" transform="translate(150 0)" version="1.1" xmlns="http://www.w3.org/2000/svg" xmlns:xlink="http://www.w3.org/1999/xlink"><style type="text/css" title="mermaid-svg-internal-css">/* <![CDATA[ */
* { margin-top: 0px; margin-right: 0px; margin-bottom: 0px; margin-left: 0px; padding-top: 0px; padding-right: 0px; padding-bottom: 0px; padding-left: 0px;  }
/* ]]> */
</style><g/><g><line x1="125" y1="10" x2="125" y2="2000" stroke-width="0.5px" stroke="#999"/><rect x="50" y="10" fill="#eaeaea" stroke="#666" width="150" height="65" rx="3" ry="3"/><text x="125" y="47.5" style="text-anchor: middle; ">Client
</text></g><g><line x1="325" y1="10" x2="325" y2="2000" stroke-width="0.5px" stroke="#999"/><rect x="250" y="10" fill="#eaeaea" stroke="#666" width="150" height="65" rx="3" ry="3"/><text x="325" y="47.5" style="text-anchor: middle; ">ASP.NET Core App
</text></g><g><line x1="525" y1="10" x2="525" y2="2000" stroke-width="0.5px" stroke="#999"/><rect x="450" y="10" fill="#eaeaea" stroke="#666" width="150" height="65" rx="3" ry="3"/><text x="525" y="47.5" style="text-anchor: middle; ">ExceptionHandler
</text></g><g><line x1="725" y1="10" x2="725" y2="2000" stroke-width="0.5px" stroke="#999"/><rect x="650" y="10" fill="#eaeaea" stroke="#666" width="150" height="65" rx="3" ry="3"/><text x="725" y="47.5" style="text-anchor: middle; ">StaticFiles
</text></g><g><line x1="925" y1="10" x2="925" y2="2000" stroke-width="0.5px" stroke="#999"/><rect x="850" y="10" fill="#eaeaea" stroke="#666" width="150" height="65" rx="3" ry="3"/><text x="925" y="47.5" style="text-anchor: middle; ">Routing
</text></g><g><line x1="1125" y1="10" x2="1125" y2="2000" stroke-width="0.5px" stroke="#999"/><rect x="1050" y="10" fill="#eaeaea" stroke="#666" width="150" height="65" rx="3" ry="3"/><text x="1125" y="47.5" style="text-anchor: middle; ">Cors
</text></g><g><line x1="1325" y1="10" x2="1325" y2="2000" stroke-width="0.5px" stroke="#999"/><rect x="1250" y="10" fill="#eaeaea" stroke="#666" width="150" height="65" rx="3" ry="3"/><text x="1325" y="47.5" style="text-anchor: middle; ">Authentication
</text></g><g><line x1="1525" y1="10" x2="1525" y2="2000" stroke-width="0.5px" stroke="#999"/><rect x="1450" y="10" fill="#eaeaea" stroke="#666" width="150" height="65" rx="3" ry="3"/><text x="1525" y="47.5" style="text-anchor: middle; ">CustomMiddleware1
</text></g><g><line x1="1725" y1="10" x2="1725" y2="2000" stroke-width="0.5px" stroke="#999"/><rect x="1650" y="10" fill="#eaeaea" stroke="#666" width="150" height="65" rx="3" ry="3"/><text x="1725" y="47.5" style="text-anchor: middle; ">Endpoint
</text></g><g><line x1="1925" y1="10" x2="1925" y2="2000" stroke-width="0.5px" stroke="#999"/><rect x="1850" y="10" fill="#eaeaea" stroke="#666" width="150" height="65" rx="3" ry="3"/><text x="1925" y="47.5" style="text-anchor: middle; ">Client</text></g><g><line x1="2125" y1="10" x2="2125" y2="2000" stroke-width="0.5px" stroke="#999"/><rect x="2050" y="10" fill="#eaeaea" stroke="#666" width="150" height="65" rx="3" ry="3"/><text x="2125" y="47.5" style="text-anchor: middle; ">ASP.NET Core App</text></g><g><line x1="2325" y1="10" x2="2325" y2="2000" stroke-width="0.5px" stroke="#999"/><rect x="2250" y="10" fill="#eaeaea" stroke="#666" width="150" height="65" rx="3" ry="3"/><text x="2325" y="47.5" style="text-anchor: middle; ">ExceptionHandler</text></g><g><line x1="2525" y1="10" x2="2525" y2="2000" stroke-width="0.5px" stroke="#999"/><rect x="2450" y="10" fill="#eaeaea" stroke="#666" width="150" height="65" rx="3" ry="3"/><text x="2525" y="47.5" style="text-anchor: middle; ">StaticFiles</text></g><g><line x1="2725" y1="10" x2="2725" y2="2000" stroke-width="0.5px" stroke="#999"/><rect x="2650" y="10" fill="#eaeaea" stroke="#666" width="150" height="65" rx="3" ry="3"/><text x="2725" y="47.5" style="text-anchor: middle; ">Routing</text></g><g><line x1="2925" y1="10" x2="2925" y2="2000" stroke-width="0.5px" stroke="#999"/><rect x="2850" y="10" fill="#eaeaea" stroke="#666" width="150" height="65" rx="3" ry="3"/><text x="2925" y="47.5" style="text-anchor: middle; ">Cors</text></g><g><line x1="3125" y1="10" x2="3125" y2="2000" stroke-width="0.5px" stroke="#999"/><rect x="3050" y="10" fill="#eaeaea" stroke="#666" width="150" height="65" rx="3" ry="3"/><text x="3125" y="47.5" style="text-anchor: middle; ">Authentication</text></g><g><line x1="3325" y1="10" x2="3325" y2="2000" stroke-width="0.5px" stroke="#999"/><rect x="3250" y="10" fill="#eaeaea" stroke="#666" width="150" height="65" rx="3" ry="3"/><text x="3325" y="47.5" style="text-anchor: middle; ">CustomMiddleware1</text></g><g><line x1="3525" y1="10" x2="3525" y2="2000" stroke-width="0.5px" stroke="#999"/><rect x="3450" y="10" fill="#eaeaea" stroke="#666" width="150" height="65" rx="3" ry="3"/><text x="3525" y="47.5" style="text-anchor: middle; ">Endpoint</text></g><defs><marker id="arrowhead" refX="5" refY="2" markerWidth="6" markerHeight="4" orient="auto"><path d="M 0,0 V 4 L6,2 Z"/></marker></defs><g><line x1="1925" y1="120" x2="2125" y2="120" stroke-width="2" stroke="black" class="link" marker-end="url(#arrowhead)"/><text x="2025" y="110" style="text-anchor: middle; ">Request</text></g><g><line x1="2125" y1="160" x2="2325" y2="160" stroke-width="2" stroke="black" class="link" marker-end="url(#arrowhead)"/><text x="2225" y="150" style="text-anchor: middle; ">Request</text></g><g><line x1="2325" y1="200" x2="2525" y2="200" stroke-width="2" stroke="black" class="link" marker-end="url(#arrowhead)"/><text x="2425" y="190" style="text-anchor: middle; ">Request</text></g><g><line x1="2525" y1="240" x2="2725" y2="240" stroke-width="2" stroke="black" class="link" marker-end="url(#arrowhead)"/><text x="2625" y="230" style="text-anchor: middle; ">Request</text></g><g><line x1="2725" y1="280" x2="2925" y2="280" stroke-width="2" stroke="black" class="link" marker-end="url(#arrowhead)"/><text x="2825" y="270" style="text-anchor: middle; ">Request</text></g><g><line x1="2925" y1="320" x2="3125" y2="320" stroke-width="2" stroke="black" class="link" marker-end="url(#arrowhead)"/><text x="3025" y="310" style="text-anchor: middle; ">Request</text></g><g><line x1="3125" y1="360" x2="3325" y2="360" stroke-width="2" stroke="black" class="link" marker-end="url(#arrowhead)"/><text x="3225" y="350" style="text-anchor: middle; ">Request</text></g><g><line x1="3325" y1="400" x2="3525" y2="400" stroke-width="2" stroke="black" class="link" marker-end="url(#arrowhead)"/><text x="3425" y="390" style="text-anchor: middle; ">Request</text></g><g><line x1="3525" y1="440" x2="3325" y2="440" stroke-width="2" stroke="black" class="link" marker-end="url(#arrowhead)"/><text x="3425" y="430" style="text-anchor: middle; ">Response</text></g><g><line x1="3325" y1="480" x2="3125" y2="480" stroke-width="2" stroke="black" class="link" marker-end="url(#arrowhead)"/><text x="3225" y="470" style="text-anchor: middle; ">Response</text></g><g><line x1="3125" y1="520" x2="2925" y2="520" stroke-width="2" stroke="black" class="link" marker-end="url(#arrowhead)"/><text x="3025" y="510" style="text-anchor: middle; ">Response</text></g><g><line x1="2925" y1="560" x2="2725" y2="560" stroke-width="2" stroke="black" class="link" marker-end="url(#arrowhead)"/><text x="2825" y="550" style="text-anchor: middle; ">Response</text></g><g><line x1="2725" y1="600" x2="2525" y2="600" stroke-width="2" stroke="black" class="link" marker-end="url(#arrowhead)"/><text x="2625" y="590" style="text-anchor: middle; ">Response</text></g><g><line x1="2525" y1="640" x2="2325" y2="640" stroke-width="2" stroke="black" class="link" marker-end="url(#arrowhead)"/><text x="2425" y="630" style="text-anchor: middle; ">Response</text></g><g><line x1="2325" y1="680" x2="2125" y2="680" stroke-width="2" stroke="black" class="link" marker-end="url(#arrowhead)"/><text x="2225" y="670" style="text-anchor: middle; ">Response</text></g><g><line x1="2125" y1="720" x2="1925" y2="720" stroke-width="2" stroke="black" class="link" marker-end="url(#arrowhead)"/><text x="2025" y="710" style="text-anchor: middle; ">Response</text></g></svg>