<?xml version="1.0" encoding="utf-8"?>
<!-- Generator: Adobe Illustrator 19.1.1, SVG Export Plug-In . SVG Version: 6.00 Build 0)  -->
<!DOCTYPE svg PUBLIC "-//W3C//DTD SVG 1.1//EN" "http://www.w3.org/Graphics/SVG/1.1/DTD/svg11.dtd">
<svg version="1.1" id="Layer_1" xmlns="http://www.w3.org/2000/svg" xmlns:xlink="http://www.w3.org/1999/xlink" x="0px" y="0px"
	 width="66px" height="19px" viewBox="0 0 66 19" enable-background="new 0 0 66 19" xml:space="preserve">
<g>
	<path fill="#FFFFFF" d="M11.22,15.8H9.58l-1.34-3.53H2.9L1.64,15.8H0L4.83,3.2h1.53L11.22,15.8z M7.76,10.94L5.78,5.57
		C5.72,5.4,5.65,5.11,5.59,4.73H5.55C5.5,5.08,5.43,5.37,5.35,5.57l-1.96,5.37H7.76z"/>
	<path fill="#FFFFFF" d="M12.48,15.29v-1.74c0.2,0.18,0.44,0.33,0.72,0.47s0.57,0.26,0.88,0.36s0.62,0.17,0.93,0.22
		s0.6,0.08,0.86,0.08c0.91,0,1.59-0.17,2.03-0.51s0.67-0.82,0.67-1.45c0-0.34-0.07-0.64-0.22-0.89s-0.36-0.48-0.62-0.69
		s-0.58-0.41-0.94-0.6s-0.75-0.39-1.16-0.6c-0.44-0.22-0.85-0.45-1.23-0.68s-0.71-0.48-0.99-0.76s-0.5-0.59-0.66-0.94
		S12.5,6.82,12.5,6.35c0-0.57,0.13-1.07,0.38-1.5s0.58-0.77,0.99-1.05s0.88-0.48,1.4-0.62s1.06-0.2,1.6-0.2
		c1.24,0,2.15,0.15,2.72,0.45V5.1c-0.74-0.52-1.7-0.77-2.87-0.77c-0.32,0-0.64,0.03-0.97,0.1S15.15,4.6,14.9,4.75
		s-0.46,0.35-0.62,0.59s-0.24,0.53-0.24,0.88c0,0.32,0.06,0.6,0.18,0.83s0.3,0.45,0.53,0.64s0.52,0.38,0.86,0.56s0.73,0.38,1.16,0.6
		c0.45,0.22,0.88,0.46,1.28,0.7s0.76,0.52,1.06,0.82s0.55,0.63,0.73,0.99s0.27,0.78,0.27,1.25c0,0.62-0.12,1.15-0.36,1.58
		s-0.57,0.78-0.98,1.05s-0.89,0.46-1.43,0.58s-1.11,0.18-1.71,0.18c-0.2,0-0.45-0.02-0.74-0.05s-0.59-0.08-0.9-0.14
		s-0.59-0.14-0.87-0.23S12.64,15.4,12.48,15.29z"/>
	<path fill="#FFFFFF" d="M24.11,11.04v4.76h-1.48V3.2h3.46c1.35,0,2.39,0.33,3.13,0.98s1.11,1.58,1.11,2.78S29.93,9.13,29.1,9.9
		s-1.93,1.14-3.33,1.14H24.11z M24.11,4.53V9.7h1.55c1.02,0,1.8-0.23,2.33-0.7c0.54-0.47,0.8-1.12,0.8-1.97
		c0-1.66-0.98-2.5-2.95-2.5H24.11z"/>
	<path fill="#FFFFFF" d="M33.02,16c-0.27,0-0.5-0.1-0.69-0.29s-0.29-0.42-0.29-0.69s0.09-0.5,0.29-0.7s0.42-0.29,0.69-0.29
		c0.28,0,0.51,0.1,0.7,0.29s0.29,0.43,0.29,0.7s-0.1,0.5-0.29,0.69S33.3,16,33.02,16z"/>
	<path fill="#FFFFFF" d="M46.78,15.8h-1.81L38.48,5.76c-0.16-0.25-0.3-0.52-0.4-0.79h-0.05c0.05,0.27,0.07,0.85,0.07,1.73v9.11
		h-1.48V3.2h1.92l6.31,9.89c0.26,0.41,0.43,0.69,0.51,0.84h0.04c-0.06-0.36-0.09-0.98-0.09-1.85V3.2h1.48V15.8z"/>
	<path fill="#FFFFFF" d="M56.12,15.8h-6.68V3.2h6.4v1.34h-4.92v4.19h4.55v1.33h-4.55v4.41h5.2V15.8z"/>
	<path fill="#FFFFFF" d="M66,4.53h-3.64V15.8h-1.48V4.53h-3.63V3.2H66V4.53z"/>
</g>
</svg>
