<svg xmlns="http://www.w3.org/2000/svg" width="783.478" height="321.091" viewBox="0 0 734.51033 301.02249"><g transform="translate(71.951 -314.708)"><rect width="285.714" height="122.857" x="105.714" y="403.791" ry="6" fill="#fff" stroke="#446cb3"/><path fill="#fff" stroke="#446cb3" d="M391.465 416.976h16.162v93.944h-16.162z"/><circle cx="246.429" cy="462.362" r="40" fill="#446cb3" stroke="#446cb3"/><circle r="14.603" cy="463.791" cx="125.714" fill="#fff" stroke="#446cb3"/><path fill="#f9bf3b" fill-opacity=".497" stroke="#f9bf3b" stroke-width="1.223" d="M408.861 428.802h62.991v14.471h-62.991zM408.861 484.958h62.991v14.471h-62.991z"/><path fill="#f9bf3b" fill-opacity=".497" stroke="#f9bf3b" stroke-width="1.078" d="M408.789 447.653h48.493v14.615h-48.493zM408.789 466.106h48.493v14.615h-48.493z"/><path fill="none" stroke="#446cb3" d="M407.784 417.011h77.11v93.943h-77.11z"/><path d="M236.034 451.289a10.094 10.094 0 0 0-10.093 10.094 10.094 10.094 0 0 0 10.093 10.093 10.094 10.094 0 0 0 10.097-10.093 10.094 10.094 0 0 0-10.097-10.094zm0 3.73a6.365 6.365 0 0 1 6.367 6.364 6.365 6.365 0 0 1-6.367 6.364 6.365 6.365 0 0 1-6.364-6.364 6.365 6.365 0 0 1 6.364-6.365z" fill="#fff" stroke="#446cb3" stroke-width=".691"/><path fill="#fff" d="M245.102 459.194h25.987v3.939h-25.987z"/><path fill="#fff" d="M266.719 462.841h2.669v5.463h-2.669zM259.949 462.841h2.669v4.334h-2.669z"/><circle r="40" cy="462.362" cx="246.429" fill="none" stroke="#446cb3"><animate attributeType="SVG" attributeName="r" begin="0s" dur="1.5s" repeatCount="indefinite" from="10%" to="25%"/><animate attributeType="CSS" attributeName="stroke-width" begin="0s" dur="1.5s" repeatCount="indefinite" from="1%" to="0%"/><animate attributeType="CSS" attributeName="opacity" begin="0s" dur="1.5s" repeatCount="indefinite" from="1" to="0"/></circle></g></svg>