<svg xmlns="http://www.w3.org/2000/svg" xmlns:xlink="http://www.w3.org/1999/xlink" viewBox="0 0 460 325">
  <defs>
    <linearGradient id="linear-gradient" x1="172.21" y1="437.39" x2="172.21" y2="421.78" gradientTransform="matrix(1, 0, 0, -1, 0, 633.2)" gradientUnits="userSpaceOnUse">
      <stop offset="0.22" stop-color="#32d4f5"/>
      <stop offset="0.47" stop-color="#31d1f3"/>
      <stop offset="0.63" stop-color="#2ec9eb"/>
      <stop offset="0.77" stop-color="#29bade"/>
      <stop offset="0.89" stop-color="#22a5cb"/>
      <stop offset="1" stop-color="#198ab3"/>
    </linearGradient>
    <linearGradient id="linear-gradient-2" x1="171.76" y1="445.77" x2="172.9" y2="431.59" xlink:href="#linear-gradient"/>
    <linearGradient id="linear-gradient-3" x1="314.51" y1="386.4" x2="314.51" y2="370.78" xlink:href="#linear-gradient"/>
    <linearGradient id="linear-gradient-4" x1="314.06" y1="394.77" x2="315.2" y2="380.6" xlink:href="#linear-gradient"/>
  </defs>
  <g id="Shapes">
    <rect width="460" height="325" fill="#fff"/>
    <g>
      <rect x="5" y="39.6" width="450" height="280" fill="#fff"/>
      <rect x="5" y="39.6" width="450" height="280" fill="#3c3c41" opacity="0.4"/>
    </g>
    <g>
      <rect x="10" y="49.6" width="250" height="265" fill="#fff"/>
      <rect x="10" y="49.6" width="250" height="265" fill="#3c3c41" opacity="0.08"/>
    </g>
    <g>
      <rect x="33.6" y="83.16" width="110" height="25" fill="#fff"/>
      <rect x="33.6" y="83.16" width="110" height="25" fill="#5ea0ef" opacity="0.5"/>
    </g>
    <g>
      <line x1="88.6" y1="108.47" x2="88.6" y2="117.52" fill="none" stroke="#005ba1" stroke-miterlimit="10"/>
      <polygon points="84.86 116.43 88.6 122.9 92.34 116.43 84.86 116.43" fill="#005ba1"/>
    </g>
    <g>
      <rect x="33.6" y="123.16" width="110" height="25" fill="#fff"/>
      <rect x="33.6" y="123.16" width="110" height="25" fill="#ffe452" opacity="0.3"/>
      <rect x="33.6" y="123.16" width="110" height="25" fill="none" stroke="#dfa500" stroke-miterlimit="10" stroke-width="0.5"/>
    </g>
    <g>
      <line x1="88.6" y1="148.47" x2="88.6" y2="157.52" fill="none" stroke="#005ba1" stroke-miterlimit="10"/>
      <polygon points="84.86 156.43 88.6 162.9 92.34 156.43 84.86 156.43" fill="#005ba1"/>
    </g>
    <g>
      <rect x="33.6" y="163.16" width="110" height="25" fill="#fff"/>
      <rect x="33.6" y="163.16" width="110" height="25" fill="#ffe452" opacity="0.3"/>
      <rect x="33.6" y="163.16" width="110" height="25" fill="none" stroke="#dfa500" stroke-miterlimit="10" stroke-width="0.5"/>
    </g>
    <g>
      <line x1="88.6" y1="188.47" x2="88.6" y2="197.52" fill="none" stroke="#005ba1" stroke-miterlimit="10"/>
      <polygon points="84.86 196.43 88.6 202.9 92.34 196.43 84.86 196.43" fill="#005ba1"/>
    </g>
    <g>
      <line x1="143.69" y1="214.32" x2="157.15" y2="214.32" fill="none" stroke="#005ba1" stroke-miterlimit="10"/>
      <polygon points="156.06 218.06 162.53 214.32 156.06 210.58 156.06 218.06" fill="#005ba1"/>
    </g>
    <g>
      <rect x="33.6" y="203.16" width="110" height="25" fill="#fff"/>
      <rect x="33.6" y="203.16" width="110" height="25" fill="#5ea0ef" opacity="0.5"/>
    </g>
    <g>
      <rect x="162.8" y="203.16" width="90" height="25" fill="#fff"/>
      <rect x="162.8" y="203.16" width="90" height="25" fill="#999" opacity="0.5"/>
    </g>
    <g>
      <line x1="88.6" y1="228.47" x2="88.6" y2="237.52" fill="none" stroke="#005ba1" stroke-miterlimit="10"/>
      <polygon points="84.86 236.43 88.6 242.9 92.34 236.43 84.86 236.43" fill="#005ba1"/>
    </g>
    <g>
      <rect x="33.6" y="243.16" width="110" height="25" fill="#fff"/>
      <rect x="33.6" y="243.16" width="110" height="25" fill="#5ea0ef" opacity="0.5"/>
    </g>
    <g>
      <line x1="88.6" y1="268.47" x2="88.6" y2="277.52" fill="none" stroke="#005ba1" stroke-miterlimit="10"/>
      <polygon points="84.86 276.43 88.6 282.9 92.34 276.43 84.86 276.43" fill="#005ba1"/>
    </g>
    <g>
      <rect x="33.6" y="283.16" width="110" height="25" fill="#fff"/>
      <rect x="33.6" y="283.16" width="110" height="25" fill="#5ea0ef" opacity="0.5"/>
    </g>
    <g>
      <path d="M34,135.32H24a5,5,0,0,1-5-5V101a5,5,0,0,1,5-5h8.52" fill="none" stroke="#4f4f4f" stroke-miterlimit="10"/>
      <path d="M26.37,100.31a.45.45,0,0,1,.14-.62l5.8-3.7-5.8-3.69a.47.47,0,0,1-.14-.63.44.44,0,0,1,.62-.13l6.4,4.07a.47.47,0,0,1,.21.38.44.44,0,0,1-.21.38L27,100.45a.42.42,0,0,1-.24.07A.44.44,0,0,1,26.37,100.31Z" fill="#4f4f4f"/>
    </g>
    <g>
      <path d="M34,253.65H24a5,5,0,0,1-5-5V219.32a5,5,0,0,1,5-5h8.52" fill="none" stroke="#4f4f4f" stroke-miterlimit="10"/>
      <path d="M26.37,218.64a.45.45,0,0,1,.14-.62l5.8-3.7-5.8-3.7a.45.45,0,0,1,.48-.76l6.4,4.08a.45.45,0,0,1,.21.38.44.44,0,0,1-.21.38L27,218.78a.42.42,0,0,1-.24.07A.44.44,0,0,1,26.37,218.64Z" fill="#4f4f4f"/>
    </g>
    <g>
      <path d="M143.5,174h10a5,5,0,0,0,5-5V139.66a5,5,0,0,0-5-5H145" fill="none" stroke="#4f4f4f" stroke-miterlimit="10"/>
      <path d="M151.13,130.34a.44.44,0,0,1-.14.62l-5.8,3.7,5.8,3.7a.44.44,0,0,1,.14.62.45.45,0,0,1-.62.14l-6.4-4.08a.47.47,0,0,1-.21-.38.44.44,0,0,1,.21-.38l6.4-4.08a.44.44,0,0,1,.24-.07A.43.43,0,0,1,151.13,130.34Z" fill="#4f4f4f"/>
    </g>
    <g>
      <rect x="266" y="49.6" width="184" height="265" fill="#fff"/>
      <rect x="266" y="49.6" width="184" height="265" fill="#3c3c41" opacity="0.08"/>
    </g>
    <g>
      <rect x="305.1" y="83.16" width="110" height="25" fill="#fff"/>
      <rect x="305.1" y="83.16" width="110" height="25" fill="#5ea0ef" opacity="0.5"/>
    </g>
    <g>
      <line x1="360.1" y1="108.47" x2="360.1" y2="117.52" fill="none" stroke="#005ba1" stroke-miterlimit="10"/>
      <polygon points="356.36 116.43 360.1 122.9 363.84 116.43 356.36 116.43" fill="#005ba1"/>
    </g>
    <g>
      <rect x="305.1" y="123.16" width="110" height="25" fill="#fff"/>
      <rect x="305.1" y="123.16" width="110" height="25" fill="#ffe452" opacity="0.3"/>
      <rect x="305.1" y="123.16" width="110" height="25" fill="none" stroke="#dfa500" stroke-miterlimit="10" stroke-width="0.5"/>
    </g>
    <g>
      <line x1="360.1" y1="148.47" x2="360.1" y2="157.52" fill="none" stroke="#005ba1" stroke-miterlimit="10"/>
      <polygon points="356.36 156.43 360.1 162.9 363.84 156.43 356.36 156.43" fill="#005ba1"/>
    </g>
    <g>
      <rect x="305.1" y="163.16" width="110" height="25" fill="#fff"/>
      <rect x="305.1" y="163.16" width="110" height="25" fill="#ffe452" opacity="0.3"/>
      <rect x="305.1" y="163.16" width="110" height="25" fill="none" stroke="#dfa500" stroke-miterlimit="10" stroke-width="0.5"/>
    </g>
    <g>
      <line x1="360.1" y1="188.47" x2="360.1" y2="197.52" fill="none" stroke="#005ba1" stroke-miterlimit="10"/>
      <polygon points="356.36 196.43 360.1 202.9 363.84 196.43 356.36 196.43" fill="#005ba1"/>
    </g>
    <g>
      <rect x="305.1" y="203.16" width="110" height="25" fill="#fff"/>
      <rect x="305.1" y="203.16" width="110" height="25" fill="#5ea0ef" opacity="0.5"/>
    </g>
    <g>
      <line x1="360.1" y1="228.47" x2="360.1" y2="249.22" fill="none" stroke="#005ba1" stroke-miterlimit="10"/>
      <polygon points="356.36 248.12 360.1 254.6 363.84 248.12 356.36 248.12" fill="#005ba1"/>
    </g>
    <g>
      <rect x="305.1" y="254.6" width="110" height="25" fill="#fff"/>
      <rect x="305.1" y="254.6" width="110" height="25" fill="#999" opacity="0.5"/>
    </g>
    <g>
      <path d="M305.5,135.32h-10a5,5,0,0,1-5-5V101a5,5,0,0,1,5-5H304" fill="none" stroke="#4f4f4f" stroke-miterlimit="10"/>
      <path d="M297.87,100.31a.44.44,0,0,1,.14-.62l5.8-3.7L298,92.3a.46.46,0,0,1-.14-.63.44.44,0,0,1,.62-.13l6.4,4.07a.47.47,0,0,1,.21.38.44.44,0,0,1-.21.38l-6.4,4.08a.44.44,0,0,1-.24.07A.43.43,0,0,1,297.87,100.31Z" fill="#4f4f4f"/>
    </g>
    <g>
      <path d="M415,174h10a5,5,0,0,0,5-5V139.66a5,5,0,0,0-5-5h-8.52" fill="none" stroke="#4f4f4f" stroke-miterlimit="10"/>
      <path d="M422.63,130.34a.45.45,0,0,1-.14.62l-5.8,3.7,5.8,3.7a.45.45,0,0,1-.48.76l-6.4-4.08a.47.47,0,0,1-.21-.38.44.44,0,0,1,.21-.38l6.4-4.08a.42.42,0,0,1,.24-.07A.44.44,0,0,1,422.63,130.34Z" fill="#4f4f4f"/>
    </g>
    <g>
      <path d="M143.5,296h10a5,5,0,0,0,5-5V261.66a5,5,0,0,0-5-5H145" fill="none" stroke="#4f4f4f" stroke-miterlimit="10"/>
      <path d="M151.13,252.34a.44.44,0,0,1-.14.62l-5.8,3.7,5.8,3.7a.44.44,0,0,1,.14.62.45.45,0,0,1-.62.14l-6.4-4.08a.47.47,0,0,1-.21-.38.44.44,0,0,1,.21-.38l6.4-4.08a.44.44,0,0,1,.24-.07A.43.43,0,0,1,151.13,252.34Z" fill="#4f4f4f"/>
    </g>
    <g>
      <g>
        <path d="M179.94,208.6a1.67,1.67,0,0,0,1.67-1.67h0a.61.61,0,0,0,0-.19c-.67-5.26-3.65-9.54-9.4-9.54s-8.82,3.62-9.41,9.55a1.69,1.69,0,0,0,1.49,1.85h15.65Z" fill="url(#linear-gradient)"/>
        <path d="M172.21,198.44a5.25,5.25,0,0,1-2.86-.84l2.86,7.39,2.8-7.34A5.14,5.14,0,0,1,172.21,198.44Z" fill="#fff" opacity="0.8" style="isolation: isolate"/>
        <circle cx="172.22" cy="193.16" r="5.27" fill="url(#linear-gradient-2)"/>
      </g>
      <g>
        <path d="M183.63,193.25l3.28-1.8v-1.89L181,192.89v.85l5.94,3v-1.85Z" fill="#0078d4"/>
        <path d="M187.18,198.61h1.9l4.37-10.72h-1.9Z" fill="#0078d4"/>
        <path d="M199.8,192.84l-6-3.33v1.94l3.29,1.8-3.29,1.58v1.89l6-3Z" fill="#0078d4"/>
      </g>
    </g>
    <g>
      <g>
        <path d="M322.24,259.6a1.67,1.67,0,0,0,1.67-1.67h0a.61.61,0,0,0,0-.19c-.66-5.26-3.65-9.54-9.4-9.54s-8.81,3.62-9.4,9.55a1.68,1.68,0,0,0,1.49,1.85h15.64Z" fill="url(#linear-gradient-3)"/>
        <path d="M314.51,249.44a5.24,5.24,0,0,1-2.85-.84l2.85,7.39,2.81-7.34A5.26,5.26,0,0,1,314.51,249.44Z" fill="#fff" opacity="0.8" style="isolation: isolate"/>
        <circle cx="314.52" cy="244.16" r="5.27" fill="url(#linear-gradient-4)"/>
      </g>
      <g>
        <path d="M325.93,244.25l3.29-1.8v-1.9l-6,3.34v.85l6,3v-1.85Z" fill="#0078d4"/>
        <path d="M329.49,249.61h1.89l4.37-10.72h-1.89Z" fill="#0078d4"/>
        <path d="M342.1,243.84l-5.94-3.33v1.94l3.28,1.8-3.28,1.57v1.9l5.94-3Z" fill="#0078d4"/>
      </g>
    </g>
  </g>
  <g id="Text">
    <g>
      <path d="M55.49,98.9H54.32l-1.4-2.35a4.9,4.9,0,0,0-.38-.56,1.92,1.92,0,0,0-.37-.38,1.14,1.14,0,0,0-.41-.21,1.55,1.55,0,0,0-.5-.07h-.8V98.9h-1V90.5H52a3.7,3.7,0,0,1,1,.14,2.11,2.11,0,0,1,.8.42,2,2,0,0,1,.54.7,2.58,2.58,0,0,1,.06,1.78,2.13,2.13,0,0,1-.37.66,2.57,2.57,0,0,1-.59.49,3,3,0,0,1-.77.31v0a2.58,2.58,0,0,1,.37.22,1.9,1.9,0,0,1,.29.28,3.58,3.58,0,0,1,.28.37l.31.49Zm-5-7.51v3h1.33a2.11,2.11,0,0,0,.68-.11A1.77,1.77,0,0,0,53,94a1.41,1.41,0,0,0,.35-.51,1.65,1.65,0,0,0,.13-.68,1.31,1.31,0,0,0-.43-1,1.92,1.92,0,0,0-1.27-.38Z" fill="#1e1e1e"/>
      <path d="M61,96.14H56.75a2.28,2.28,0,0,0,.54,1.55,1.89,1.89,0,0,0,1.42.55,3,3,0,0,0,1.86-.67v.9a3.47,3.47,0,0,1-2.09.57,2.56,2.56,0,0,1-2-.81,3.37,3.37,0,0,1-.72-2.3,3.29,3.29,0,0,1,.79-2.29,2.58,2.58,0,0,1,2-.88,2.29,2.29,0,0,1,1.83.76A3.19,3.19,0,0,1,61,95.64Zm-1-.81A2,2,0,0,0,59.6,94a1.38,1.38,0,0,0-1.09-.46,1.54,1.54,0,0,0-1.16.49,2.21,2.21,0,0,0-.58,1.27Z" fill="#1e1e1e"/>
      <path d="M62.08,98.69v-1a2.88,2.88,0,0,0,1.73.58c.84,0,1.26-.29,1.26-.85A.78.78,0,0,0,65,97a1,1,0,0,0-.3-.29,1.93,1.93,0,0,0-.43-.23l-.54-.22a5.79,5.79,0,0,1-.7-.32,1.74,1.74,0,0,1-.5-.36,1.29,1.29,0,0,1-.31-.46,1.79,1.79,0,0,1-.1-.6,1.45,1.45,0,0,1,.2-.75,1.55,1.55,0,0,1,.51-.54,2.51,2.51,0,0,1,.74-.34,3.56,3.56,0,0,1,2.24.16v1a2.78,2.78,0,0,0-1.52-.43,1.88,1.88,0,0,0-.49.06,1.06,1.06,0,0,0-.37.18.85.85,0,0,0-.24.26.69.69,0,0,0-.08.35.8.8,0,0,0,.08.39.94.94,0,0,0,.25.28,1.67,1.67,0,0,0,.4.22l.53.22a6.21,6.21,0,0,1,.72.31,2.44,2.44,0,0,1,.54.37,1.36,1.36,0,0,1,.46,1.09,1.5,1.5,0,0,1-.2.77,1.7,1.7,0,0,1-.52.55,2.49,2.49,0,0,1-.76.32,3.68,3.68,0,0,1-.89.1A3.51,3.51,0,0,1,62.08,98.69Z" fill="#1e1e1e"/>
      <path d="M70,99a2.79,2.79,0,0,1-2.12-.84A3.1,3.1,0,0,1,67.13,96,3.26,3.26,0,0,1,68,93.61a3,3,0,0,1,2.23-.85,2.7,2.7,0,0,1,2.1.83A3.27,3.27,0,0,1,73,95.88a3.23,3.23,0,0,1-.81,2.3A2.83,2.83,0,0,1,70,99Zm.07-5.47a1.83,1.83,0,0,0-1.46.63,2.59,2.59,0,0,0-.54,1.74,2.46,2.46,0,0,0,.54,1.68,1.87,1.87,0,0,0,1.46.62,1.79,1.79,0,0,0,1.44-.61,2.62,2.62,0,0,0,.5-1.71,2.71,2.71,0,0,0-.5-1.74A1.76,1.76,0,0,0,70.11,93.57Z" fill="#1e1e1e"/>
      <path d="M79.42,98.9h-1V98h0A2,2,0,0,1,76.58,99c-1.43,0-2.14-.85-2.14-2.55V92.9h1v3.44c0,1.26.49,1.9,1.46,1.9A1.48,1.48,0,0,0,78,97.72a2,2,0,0,0,.46-1.36V92.9h1Z" fill="#1e1e1e"/>
      <path d="M84.49,93.88a1.18,1.18,0,0,0-.73-.2,1.25,1.25,0,0,0-1,.58,2.74,2.74,0,0,0-.41,1.58V98.9h-1v-6h1v1.24h0a2.17,2.17,0,0,1,.63-1,1.44,1.44,0,0,1,.94-.35,1.75,1.75,0,0,1,.58.08Z" fill="#1e1e1e"/>
      <path d="M89.62,98.63A3.1,3.1,0,0,1,88,99a2.68,2.68,0,0,1-2.07-.83A3,3,0,0,1,85.12,96,3.32,3.32,0,0,1,86,93.66a3,3,0,0,1,2.27-.9,3.09,3.09,0,0,1,1.39.3v1a2.45,2.45,0,0,0-1.43-.47,1.93,1.93,0,0,0-1.51.66A2.52,2.52,0,0,0,86.1,96a2.39,2.39,0,0,0,.56,1.67,1.92,1.92,0,0,0,1.48.61,2.4,2.4,0,0,0,1.48-.53Z" fill="#1e1e1e"/>
      <path d="M95.89,96.14H91.66a2.19,2.19,0,0,0,.54,1.55,1.86,1.86,0,0,0,1.42.55,3,3,0,0,0,1.86-.67v.9a3.52,3.52,0,0,1-2.09.57,2.54,2.54,0,0,1-2-.81,3.83,3.83,0,0,1,.07-4.59,2.56,2.56,0,0,1,2-.88,2.28,2.28,0,0,1,1.82.76,3.19,3.19,0,0,1,.64,2.12Zm-1-.81a2,2,0,0,0-.4-1.3,1.39,1.39,0,0,0-1.1-.46,1.52,1.52,0,0,0-1.15.49,2.16,2.16,0,0,0-.59,1.27Z" fill="#1e1e1e"/>
      <path d="M103.6,90.86a1.34,1.34,0,0,0-.64-.15c-.67,0-1,.42-1,1.27v.92h1.41v.82H102V98.9h-1V93.72h-1V92.9h1v-1a2,2,0,0,1,.54-1.49,1.84,1.84,0,0,1,1.36-.55,1.86,1.86,0,0,1,.7.11Z" fill="#1e1e1e"/>
      <path d="M104.88,91.38a.6.6,0,0,1-.44-.18.57.57,0,0,1-.18-.44.61.61,0,0,1,.18-.45.6.6,0,0,1,.44-.18.61.61,0,0,1,.45.18.62.62,0,0,1,0,.89A.61.61,0,0,1,104.88,91.38Zm.47,7.52h-1v-6h1Z" fill="#1e1e1e"/>
      <path d="M108.26,98.9h-1V90h1Z" fill="#1e1e1e"/>
      <path d="M113,98.84a1.82,1.82,0,0,1-.9.19c-1,0-1.58-.58-1.58-1.76V93.72h-1V92.9h1V91.44l1-.31V92.9H113v.82h-1.52V97.1a1.41,1.41,0,0,0,.21.87.82.82,0,0,0,.68.25A1,1,0,0,0,113,98Z" fill="#1e1e1e"/>
      <path d="M119.09,96.14h-4.23a2.23,2.23,0,0,0,.53,1.55,1.89,1.89,0,0,0,1.42.55,3,3,0,0,0,1.87-.67v.9a3.53,3.53,0,0,1-2.1.57,2.53,2.53,0,0,1-2-.81,3.33,3.33,0,0,1-.73-2.3,3.29,3.29,0,0,1,.79-2.29,2.58,2.58,0,0,1,2-.88,2.28,2.28,0,0,1,1.82.76,3.19,3.19,0,0,1,.64,2.12Zm-1-.81a2,2,0,0,0-.4-1.3,1.4,1.4,0,0,0-1.1-.46,1.54,1.54,0,0,0-1.16.49,2.21,2.21,0,0,0-.58,1.27Z" fill="#1e1e1e"/>
      <path d="M123.67,93.88a1.14,1.14,0,0,0-.72-.2,1.24,1.24,0,0,0-1,.58,2.67,2.67,0,0,0-.41,1.58V98.9h-1v-6h1v1.24h0a2.17,2.17,0,0,1,.63-1,1.44,1.44,0,0,1,.94-.35,1.65,1.65,0,0,1,.57.08Z" fill="#1e1e1e"/>
      <path d="M124.35,98.69v-1a2.9,2.9,0,0,0,1.73.58c.85,0,1.27-.29,1.27-.85a.78.78,0,0,0-.11-.41,1,1,0,0,0-.29-.29,2.27,2.27,0,0,0-.44-.23l-.53-.22a5.16,5.16,0,0,1-.7-.32,1.94,1.94,0,0,1-.51-.36,1.41,1.41,0,0,1-.3-.46,1.57,1.57,0,0,1-.1-.6,1.44,1.44,0,0,1,.19-.75,1.65,1.65,0,0,1,.51-.54,2.51,2.51,0,0,1,.74-.34,3.41,3.41,0,0,1,.85-.11,3.46,3.46,0,0,1,1.4.27v1a2.79,2.79,0,0,0-1.53-.43,1.75,1.75,0,0,0-.48.06,1.11,1.11,0,0,0-.38.18.85.85,0,0,0-.24.26.82.82,0,0,0-.08.35.74.74,0,0,0,.33.67,1.89,1.89,0,0,0,.4.22l.54.22a6.85,6.85,0,0,1,.71.31,2.44,2.44,0,0,1,.54.37,1.38,1.38,0,0,1,.34.46,1.54,1.54,0,0,1,.12.63,1.49,1.49,0,0,1-.19.77,1.85,1.85,0,0,1-.53.55,2.54,2.54,0,0,1-.75.32,3.82,3.82,0,0,1-.9.1A3.54,3.54,0,0,1,124.35,98.69Z" fill="#1e1e1e"/>
    </g>
    <g>
      <path d="M59.4,138.9h-1v-5.63c0-.45,0-1,.08-1.64h0a5.38,5.38,0,0,1-.26.82l-2.87,6.45h-.48L52,132.49a4.44,4.44,0,0,1-.25-.86h0c0,.34.05.89.05,1.65v5.62h-1v-8.4h1.3l2.58,5.86a7.92,7.92,0,0,1,.39,1h0c.17-.46.3-.81.41-1l2.63-5.84H59.4Z" fill="#1e1e1e"/>
      <path d="M64,139a2.79,2.79,0,0,1-2.12-.84,3.1,3.1,0,0,1-.79-2.23,3.26,3.26,0,0,1,.82-2.36,3,3,0,0,1,2.24-.85,2.69,2.69,0,0,1,2.09.83,3.27,3.27,0,0,1,.75,2.29,3.23,3.23,0,0,1-.81,2.3A2.83,2.83,0,0,1,64,139Zm.07-5.47a1.83,1.83,0,0,0-1.46.63,2.59,2.59,0,0,0-.54,1.74,2.41,2.41,0,0,0,.55,1.68,1.85,1.85,0,0,0,1.45.62,1.78,1.78,0,0,0,1.44-.61,2.62,2.62,0,0,0,.5-1.71,2.71,2.71,0,0,0-.5-1.74A1.75,1.75,0,0,0,64.05,133.57Z" fill="#1e1e1e"/>
      <path d="M73.63,138.9h-1v-1h0A2.2,2.2,0,0,1,70.58,139a2.25,2.25,0,0,1-1.81-.8,3.32,3.32,0,0,1-.67-2.2,3.59,3.59,0,0,1,.75-2.38,2.46,2.46,0,0,1,2-.9,1.91,1.91,0,0,1,1.79,1h0V130h1Zm-1-2.71v-.88a1.7,1.7,0,0,0-.48-1.23,1.61,1.61,0,0,0-1.22-.51,1.64,1.64,0,0,0-1.38.65,2.79,2.79,0,0,0-.51,1.78,2.48,2.48,0,0,0,.49,1.63,1.55,1.55,0,0,0,1.29.61,1.68,1.68,0,0,0,1.31-.58A2.2,2.2,0,0,0,72.67,136.19Z" fill="#1e1e1e"/>
      <path d="M80.4,136.14H76.16a2.28,2.28,0,0,0,.54,1.55,1.87,1.87,0,0,0,1.42.55,3,3,0,0,0,1.86-.67v.9a3.5,3.5,0,0,1-2.09.57,2.56,2.56,0,0,1-2-.81,3.37,3.37,0,0,1-.73-2.3,3.29,3.29,0,0,1,.8-2.29,2.56,2.56,0,0,1,2-.88,2.28,2.28,0,0,1,1.82.76,3.2,3.2,0,0,1,.65,2.12Zm-1-.81A2,2,0,0,0,79,134a1.39,1.39,0,0,0-1.1-.46,1.52,1.52,0,0,0-1.15.49,2.22,2.22,0,0,0-.59,1.27Z" fill="#1e1e1e"/>
      <path d="M82.81,138.9h-1V130h1Z" fill="#1e1e1e"/>
      <path d="M88.17,138.9v-8.4h2.39a2.63,2.63,0,0,1,1.73.53,1.72,1.72,0,0,1,.64,1.39,2,2,0,0,1-1.45,2v0a2.13,2.13,0,0,1,1.36.64,2,2,0,0,1,.51,1.41,2.2,2.2,0,0,1-.78,1.75,2.88,2.88,0,0,1-1.95.66Zm1-7.51v2.71h1a1.94,1.94,0,0,0,1.28-.39,1.35,1.35,0,0,0,.46-1.09c0-.82-.54-1.23-1.61-1.23Zm0,3.6v3h1.33a2,2,0,0,0,1.35-.41,1.39,1.39,0,0,0,.47-1.12c0-1-.67-1.49-2-1.49Z" fill="#1e1e1e"/>
      <path d="M95.41,131.38a.62.62,0,0,1-.44-.18.57.57,0,0,1-.18-.44.61.61,0,0,1,.18-.45.62.62,0,0,1,.44-.18.61.61,0,0,1,.45.18.58.58,0,0,1,.19.45.58.58,0,0,1-.19.44A.61.61,0,0,1,95.41,131.38Zm.47,7.52h-1v-6h1Z" fill="#1e1e1e"/>
      <path d="M102.81,138.9h-1v-3.42c0-1.27-.47-1.91-1.4-1.91a1.52,1.52,0,0,0-1.19.54,2,2,0,0,0-.47,1.37v3.42h-1v-6h1v1h0a2.17,2.17,0,0,1,2-1.14,1.83,1.83,0,0,1,1.51.64,2.86,2.86,0,0,1,.52,1.84Z" fill="#1e1e1e"/>
      <path d="M109.74,138.9h-1v-1h0a2.43,2.43,0,0,1-3.87.36,3.27,3.27,0,0,1-.68-2.2,3.59,3.59,0,0,1,.75-2.38,2.48,2.48,0,0,1,2-.9,1.94,1.94,0,0,1,1.8,1h0V130h1Zm-1-2.71v-.88a1.7,1.7,0,0,0-.48-1.23,1.61,1.61,0,0,0-1.22-.51,1.64,1.64,0,0,0-1.38.65,2.79,2.79,0,0,0-.51,1.78,2.48,2.48,0,0,0,.49,1.63,1.55,1.55,0,0,0,1.29.61,1.68,1.68,0,0,0,1.31-.58A2.2,2.2,0,0,0,108.78,136.19Z" fill="#1e1e1e"/>
      <path d="M112.18,131.38a.6.6,0,0,1-.44-.18.57.57,0,0,1-.18-.44.61.61,0,0,1,.18-.45.6.6,0,0,1,.44-.18.64.64,0,0,1,.45.18.61.61,0,0,1,.18.45.6.6,0,0,1-.18.44A.64.64,0,0,1,112.18,131.38Zm.47,7.52h-1v-6h1Z" fill="#1e1e1e"/>
      <path d="M119.57,138.9h-1v-3.42c0-1.27-.46-1.91-1.39-1.91a1.54,1.54,0,0,0-1.2.54,2,2,0,0,0-.47,1.37v3.42h-1v-6h1v1h0a2.16,2.16,0,0,1,2-1.14,1.83,1.83,0,0,1,1.51.64,2.8,2.8,0,0,1,.52,1.84Z" fill="#1e1e1e"/>
      <path d="M126.5,138.42q0,3.32-3.16,3.31a4.31,4.31,0,0,1-2-.42v-1a4,4,0,0,0,1.94.57c1.47,0,2.21-.79,2.21-2.36v-.65h0a2.25,2.25,0,0,1-2.06,1.14,2.22,2.22,0,0,1-1.8-.8,3.15,3.15,0,0,1-.69-2.14,3.73,3.73,0,0,1,.74-2.43,2.44,2.44,0,0,1,2-.91,2,2,0,0,1,1.8,1h0v-.84h1Zm-1-2.23v-.88a1.73,1.73,0,0,0-.48-1.23,1.58,1.58,0,0,0-1.2-.51,1.68,1.68,0,0,0-1.4.65A2.91,2.91,0,0,0,122,136a2.48,2.48,0,0,0,.48,1.6,1.54,1.54,0,0,0,1.28.61,1.7,1.7,0,0,0,1.32-.58A2.16,2.16,0,0,0,125.54,136.19Z" fill="#1e1e1e"/>
    </g>
    <g>
      <path d="M53.37,179.9h-1v-5.63c0-.45,0-1,.08-1.64h0a5.64,5.64,0,0,1-.25.82l-2.87,6.45h-.48L46,173.49a5.3,5.3,0,0,1-.25-.86h0c0,.34,0,.89,0,1.65v5.62h-1v-8.4h1.3l2.58,5.86a7.92,7.92,0,0,1,.39,1h0c.17-.46.31-.81.41-1l2.63-5.84h1.23Z" fill="#1e1e1e"/>
      <path d="M58,180a2.79,2.79,0,0,1-2.13-.84A3.1,3.1,0,0,1,55,177a3.26,3.26,0,0,1,.83-2.36,3,3,0,0,1,2.23-.85,2.69,2.69,0,0,1,2.09.83,3.23,3.23,0,0,1,.76,2.29,3.19,3.19,0,0,1-.82,2.3A2.81,2.81,0,0,1,58,180Zm.07-5.47a1.84,1.84,0,0,0-1.47.63,2.59,2.59,0,0,0-.54,1.74,2.46,2.46,0,0,0,.55,1.68,1.85,1.85,0,0,0,1.46.62,1.76,1.76,0,0,0,1.43-.61,2.62,2.62,0,0,0,.5-1.71,2.71,2.71,0,0,0-.5-1.74A1.73,1.73,0,0,0,58,174.57Z" fill="#1e1e1e"/>
      <path d="M67.6,179.9h-1v-1h0a2.43,2.43,0,0,1-3.87.36,3.33,3.33,0,0,1-.68-2.2,3.59,3.59,0,0,1,.75-2.38,2.48,2.48,0,0,1,2-.9,1.94,1.94,0,0,1,1.8,1h0V171h1Zm-1-2.71v-.88a1.7,1.7,0,0,0-.48-1.23,1.61,1.61,0,0,0-1.22-.51,1.67,1.67,0,0,0-1.38.65,2.79,2.79,0,0,0-.5,1.78,2.53,2.53,0,0,0,.48,1.63,1.55,1.55,0,0,0,1.3.61,1.66,1.66,0,0,0,1.3-.58A2.2,2.2,0,0,0,66.64,177.19Z" fill="#1e1e1e"/>
      <path d="M74.37,177.14H70.13a2.28,2.28,0,0,0,.54,1.55,1.89,1.89,0,0,0,1.42.55,3,3,0,0,0,1.86-.67v.9a3.47,3.47,0,0,1-2.09.57,2.56,2.56,0,0,1-2-.81,3.37,3.37,0,0,1-.72-2.3,3.29,3.29,0,0,1,.79-2.29,2.58,2.58,0,0,1,2-.88,2.29,2.29,0,0,1,1.83.76,3.19,3.19,0,0,1,.64,2.12Zm-1-.81A2,2,0,0,0,73,175a1.38,1.38,0,0,0-1.09-.46,1.54,1.54,0,0,0-1.16.49,2.21,2.21,0,0,0-.58,1.27Z" fill="#1e1e1e"/>
      <path d="M76.78,179.9h-1V171h1Z" fill="#1e1e1e"/>
      <path d="M88.39,171.5l-3.11,8.4H84.2l-3-8.4h1.1l2.32,6.66a3.77,3.77,0,0,1,.17.75h0a4.09,4.09,0,0,1,.2-.76l2.37-6.65Z" fill="#1e1e1e"/>
      <path d="M92.89,179.9h-1V179h0A2,2,0,0,1,90.06,180a2,2,0,0,1-1.41-.47,1.64,1.64,0,0,1-.5-1.26c0-1.12.66-1.77,2-2l1.79-.25q0-1.53-1.23-1.53a3,3,0,0,0-2,.74v-1a3.68,3.68,0,0,1,2-.57c1.41,0,2.12.75,2.12,2.24Zm-1-3-1.44.2a2.3,2.3,0,0,0-1,.33,1,1,0,0,0-.34.84.92.92,0,0,0,.31.72,1.25,1.25,0,0,0,.84.28,1.54,1.54,0,0,0,1.18-.51,1.76,1.76,0,0,0,.46-1.26Z" fill="#1e1e1e"/>
      <path d="M95.66,179.9h-1V171h1Z" fill="#1e1e1e"/>
      <path d="M98.09,172.38a.58.58,0,0,1-.43-.18.55.55,0,0,1-.19-.44.63.63,0,0,1,.62-.63.61.61,0,0,1,.45.18.58.58,0,0,1,.19.45.58.58,0,0,1-.19.44A.61.61,0,0,1,98.09,172.38Zm.47,7.52h-1v-6h1Z" fill="#1e1e1e"/>
      <path d="M105.63,179.9h-1v-1h0a2.43,2.43,0,0,1-3.87.36,3.27,3.27,0,0,1-.68-2.2,3.59,3.59,0,0,1,.75-2.38,2.46,2.46,0,0,1,2-.9,1.94,1.94,0,0,1,1.8,1h0V171h1Zm-1-2.71v-.88a1.7,1.7,0,0,0-.48-1.23,1.61,1.61,0,0,0-1.22-.51,1.64,1.64,0,0,0-1.38.65,2.79,2.79,0,0,0-.51,1.78,2.48,2.48,0,0,0,.49,1.63,1.55,1.55,0,0,0,1.29.61,1.68,1.68,0,0,0,1.31-.58A2.2,2.2,0,0,0,104.67,177.19Z" fill="#1e1e1e"/>
      <path d="M111.87,179.9h-1V179h0A2,2,0,0,1,109,180a1.93,1.93,0,0,1-1.4-.47,1.65,1.65,0,0,1-.51-1.26c0-1.12.66-1.77,2-2l1.8-.25c0-1-.41-1.53-1.24-1.53a3,3,0,0,0-2,.74v-1a3.67,3.67,0,0,1,2-.57c1.42,0,2.12.75,2.12,2.24Zm-1-3-1.45.2a2.35,2.35,0,0,0-1,.33,1,1,0,0,0-.34.84.93.93,0,0,0,.32.72,1.24,1.24,0,0,0,.83.28,1.52,1.52,0,0,0,1.18-.51,1.77,1.77,0,0,0,.47-1.26Z" fill="#1e1e1e"/>
      <path d="M116.46,179.84a1.76,1.76,0,0,1-.89.19c-1,0-1.58-.58-1.58-1.76v-3.55h-1v-.82h1v-1.46l1-.31v1.77h1.51v.82H115v3.38a1.41,1.41,0,0,0,.21.87.81.81,0,0,0,.68.25.94.94,0,0,0,.62-.2Z" fill="#1e1e1e"/>
      <path d="M118.24,172.38a.6.6,0,0,1-.44-.18.57.57,0,0,1-.18-.44.61.61,0,0,1,.18-.45.6.6,0,0,1,.44-.18.63.63,0,0,1,.45.18.61.61,0,0,1,.18.45.6.6,0,0,1-.18.44A.63.63,0,0,1,118.24,172.38Zm.47,7.52h-1v-6h1Z" fill="#1e1e1e"/>
      <path d="M123.16,180a2.77,2.77,0,0,1-2.12-.84,3.11,3.11,0,0,1-.8-2.23,3.26,3.26,0,0,1,.83-2.36,3,3,0,0,1,2.23-.85,2.71,2.71,0,0,1,2.1.83,3.27,3.27,0,0,1,.75,2.29,3.23,3.23,0,0,1-.81,2.3A2.83,2.83,0,0,1,123.16,180Zm.07-5.47a1.81,1.81,0,0,0-1.46.63,2.59,2.59,0,0,0-.54,1.74,2.46,2.46,0,0,0,.54,1.68,1.87,1.87,0,0,0,1.46.62,1.76,1.76,0,0,0,1.43-.61,2.57,2.57,0,0,0,.51-1.71,2.65,2.65,0,0,0-.51-1.74A1.73,1.73,0,0,0,123.23,174.57Z" fill="#1e1e1e"/>
      <path d="M132.67,179.9h-1v-3.42c0-1.27-.46-1.91-1.39-1.91a1.5,1.5,0,0,0-1.19.54,2,2,0,0,0-.47,1.37v3.42h-1v-6h1v1h0a2.16,2.16,0,0,1,2-1.14,1.81,1.81,0,0,1,1.5.64,2.8,2.8,0,0,1,.53,1.84Z" fill="#1e1e1e"/>
    </g>
    <g>
      <path d="M62.94,219.4H61.85L61,217.05H57.4l-.84,2.35h-1.1l3.22-8.4h1Zm-2.3-3.24-1.32-3.58a2.44,2.44,0,0,1-.13-.56h0a3,3,0,0,1-.14.56l-1.31,3.58Z" fill="#1e1e1e"/>
      <path d="M68.14,219.13a3.12,3.12,0,0,1-1.64.41,2.72,2.72,0,0,1-2.08-.83,3.06,3.06,0,0,1-.78-2.17,3.32,3.32,0,0,1,.85-2.38,3,3,0,0,1,2.26-.9,3.1,3.1,0,0,1,1.4.3v1a2.47,2.47,0,0,0-1.43-.47,1.92,1.92,0,0,0-1.51.66,2.52,2.52,0,0,0-.59,1.73,2.39,2.39,0,0,0,.55,1.67,1.94,1.94,0,0,0,1.49.61,2.44,2.44,0,0,0,1.48-.53Z" fill="#1e1e1e"/>
      <path d="M72.37,219.34a1.76,1.76,0,0,1-.89.19c-1.06,0-1.58-.58-1.58-1.76v-3.55h-1v-.82h1v-1.46l1-.31v1.77h1.51v.82H70.86v3.38a1.41,1.41,0,0,0,.21.87.81.81,0,0,0,.68.25.94.94,0,0,0,.62-.2Z" fill="#1e1e1e"/>
      <path d="M74.15,211.88a.6.6,0,0,1-.44-.18.57.57,0,0,1-.18-.44.61.61,0,0,1,.18-.45.6.6,0,0,1,.44-.18.64.64,0,0,1,.45.18.61.61,0,0,1,.18.45.6.6,0,0,1-.18.44A.64.64,0,0,1,74.15,211.88Zm.47,7.52h-1v-6h1Z" fill="#1e1e1e"/>
      <path d="M79.07,219.54A2.76,2.76,0,0,1,77,218.7a3.11,3.11,0,0,1-.8-2.23,3.26,3.26,0,0,1,.83-2.36,3,3,0,0,1,2.23-.85,2.69,2.69,0,0,1,2.09.83,3.75,3.75,0,0,1,0,4.59A2.83,2.83,0,0,1,79.07,219.54Zm.07-5.47a1.84,1.84,0,0,0-1.47.63,2.64,2.64,0,0,0-.53,1.74,2.46,2.46,0,0,0,.54,1.68,1.85,1.85,0,0,0,1.46.62,1.76,1.76,0,0,0,1.43-.61,2.57,2.57,0,0,0,.5-1.71,2.65,2.65,0,0,0-.5-1.74A1.73,1.73,0,0,0,79.14,214.07Z" fill="#1e1e1e"/>
      <path d="M88.57,219.4h-1V216c0-1.27-.46-1.91-1.39-1.91a1.5,1.5,0,0,0-1.19.54,2,2,0,0,0-.48,1.37v3.42h-1v-6h1v1h0a2.16,2.16,0,0,1,2-1.14,1.82,1.82,0,0,1,1.5.64,2.8,2.8,0,0,1,.52,1.84Z" fill="#1e1e1e"/>
      <path d="M96.64,211.36a1.34,1.34,0,0,0-.64-.15c-.67,0-1,.42-1,1.27v.92H96.4v.82H95v5.18H94v-5.18H93v-.82h1v-1a2,2,0,0,1,.55-1.49,1.82,1.82,0,0,1,1.36-.55,1.94,1.94,0,0,1,.7.11Z" fill="#1e1e1e"/>
      <path d="M97.92,211.88a.6.6,0,0,1-.44-.18.57.57,0,0,1-.18-.44.61.61,0,0,1,.18-.45.6.6,0,0,1,.44-.18.64.64,0,0,1,.45.18.61.61,0,0,1,.18.45.6.6,0,0,1-.18.44A.64.64,0,0,1,97.92,211.88Zm.47,7.52h-1v-6h1Z" fill="#1e1e1e"/>
      <path d="M101.29,219.4h-1v-8.88h1Z" fill="#1e1e1e"/>
      <path d="M106,219.34a1.76,1.76,0,0,1-.89.19c-1,0-1.58-.58-1.58-1.76v-3.55h-1v-.82h1v-1.46l1-.31v1.77H106v.82h-1.51v3.38a1.41,1.41,0,0,0,.21.87.81.81,0,0,0,.68.25.94.94,0,0,0,.62-.2Z" fill="#1e1e1e"/>
      <path d="M112.13,216.64h-4.24a2.28,2.28,0,0,0,.54,1.55,1.87,1.87,0,0,0,1.42.55,3,3,0,0,0,1.86-.67v.9a3.5,3.5,0,0,1-2.09.57,2.56,2.56,0,0,1-2-.81,3.37,3.37,0,0,1-.72-2.3,3.29,3.29,0,0,1,.79-2.29,2.58,2.58,0,0,1,2-.88,2.27,2.27,0,0,1,1.82.76,3.2,3.2,0,0,1,.65,2.12Zm-1-.81a1.91,1.91,0,0,0-.4-1.3,1.39,1.39,0,0,0-1.1-.46,1.54,1.54,0,0,0-1.15.49,2.22,2.22,0,0,0-.59,1.27Z" fill="#1e1e1e"/>
      <path d="M116.71,214.38a1.18,1.18,0,0,0-.73-.2,1.22,1.22,0,0,0-1,.58,2.67,2.67,0,0,0-.42,1.58v3.06h-1v-6h1v1.24h0a2.08,2.08,0,0,1,.62-1,1.47,1.47,0,0,1,1-.35,1.65,1.65,0,0,1,.57.08Z" fill="#1e1e1e"/>
      <path d="M117.39,219.19v-1a2.88,2.88,0,0,0,1.73.58c.84,0,1.26-.29,1.26-.85a.78.78,0,0,0-.1-.41,1,1,0,0,0-.3-.29,2.18,2.18,0,0,0-.43-.23l-.54-.22a5.79,5.79,0,0,1-.7-.32,1.74,1.74,0,0,1-.5-.36,1.29,1.29,0,0,1-.31-.46,1.79,1.79,0,0,1-.1-.6,1.55,1.55,0,0,1,.19-.75,1.68,1.68,0,0,1,.52-.54,2.51,2.51,0,0,1,.74-.34,3.56,3.56,0,0,1,2.24.16v1a2.78,2.78,0,0,0-1.52-.43,1.88,1.88,0,0,0-.49.06,1.06,1.06,0,0,0-.37.18.85.85,0,0,0-.24.26.69.69,0,0,0-.08.35.8.8,0,0,0,.08.39.94.94,0,0,0,.25.28,1.67,1.67,0,0,0,.4.22l.53.22a6.21,6.21,0,0,1,.72.31,2.44,2.44,0,0,1,.54.37,1.36,1.36,0,0,1,.46,1.09,1.5,1.5,0,0,1-.2.77,1.7,1.7,0,0,1-.52.55,2.49,2.49,0,0,1-.76.32,3.68,3.68,0,0,1-.89.1A3.51,3.51,0,0,1,117.39,219.19Z" fill="#1e1e1e"/>
    </g>
    <g>
      <path d="M327,98.9h-1.17l-1.41-2.35A3.88,3.88,0,0,0,324,96a2.24,2.24,0,0,0-.37-.38,1.23,1.23,0,0,0-.41-.21,1.55,1.55,0,0,0-.5-.07H322V98.9h-1V90.5h2.51a3.62,3.62,0,0,1,1,.14,2.23,2.23,0,0,1,.81.42,2,2,0,0,1,.54.7,2.58,2.58,0,0,1,.06,1.78,2.13,2.13,0,0,1-.37.66,2.57,2.57,0,0,1-.59.49,3.1,3.1,0,0,1-.77.31v0a2.58,2.58,0,0,1,.37.22,1.9,1.9,0,0,1,.29.28c.09.11.19.24.28.37l.31.49Zm-5-7.51v3h1.34a2.11,2.11,0,0,0,.68-.11,1.61,1.61,0,0,0,.54-.32,1.32,1.32,0,0,0,.36-.51,1.65,1.65,0,0,0,.13-.68,1.28,1.28,0,0,0-.44-1,1.88,1.88,0,0,0-1.26-.38Z" fill="#1e1e1e"/>
      <path d="M332.49,96.14h-4.24a2.28,2.28,0,0,0,.54,1.55,1.87,1.87,0,0,0,1.42.55,3,3,0,0,0,1.86-.67v.9A3.5,3.5,0,0,1,330,99a2.56,2.56,0,0,1-2-.81,3.37,3.37,0,0,1-.72-2.3,3.29,3.29,0,0,1,.79-2.29,2.58,2.58,0,0,1,2-.88,2.27,2.27,0,0,1,1.82.76,3.2,3.2,0,0,1,.65,2.12Zm-1-.81a1.91,1.91,0,0,0-.4-1.3,1.39,1.39,0,0,0-1.1-.46,1.54,1.54,0,0,0-1.15.49,2.22,2.22,0,0,0-.59,1.27Z" fill="#1e1e1e"/>
      <path d="M333.58,98.69v-1a2.88,2.88,0,0,0,1.73.58c.84,0,1.26-.29,1.26-.85a.7.7,0,0,0-.11-.41,1,1,0,0,0-.29-.29,2.18,2.18,0,0,0-.43-.23l-.54-.22a5.79,5.79,0,0,1-.7-.32,1.74,1.74,0,0,1-.5-.36,1.29,1.29,0,0,1-.31-.46,1.79,1.79,0,0,1-.1-.6,1.44,1.44,0,0,1,.19-.75,1.58,1.58,0,0,1,.52-.54,2.4,2.4,0,0,1,.74-.34,3.35,3.35,0,0,1,.85-.11,3.41,3.41,0,0,1,1.39.27v1a2.78,2.78,0,0,0-1.52-.43,1.88,1.88,0,0,0-.49.06,1.06,1.06,0,0,0-.37.18.85.85,0,0,0-.24.26.7.7,0,0,0-.09.35.8.8,0,0,0,.09.39.94.94,0,0,0,.25.28,1.67,1.67,0,0,0,.4.22l.53.22a6,6,0,0,1,.71.31,2,2,0,0,1,.54.37,1.41,1.41,0,0,1,.35.46,1.54,1.54,0,0,1,.12.63,1.5,1.5,0,0,1-.2.77,1.82,1.82,0,0,1-.52.55,2.49,2.49,0,0,1-.76.32,3.76,3.76,0,0,1-.9.1A3.49,3.49,0,0,1,333.58,98.69Z" fill="#1e1e1e"/>
      <path d="M341.54,99a2.77,2.77,0,0,1-2.12-.84,3.11,3.11,0,0,1-.8-2.23,3.26,3.26,0,0,1,.83-2.36,3,3,0,0,1,2.23-.85,2.7,2.7,0,0,1,2.1.83,3.27,3.27,0,0,1,.75,2.29,3.23,3.23,0,0,1-.81,2.3A2.83,2.83,0,0,1,341.54,99Zm.07-5.47a1.81,1.81,0,0,0-1.46.63,2.59,2.59,0,0,0-.54,1.74,2.46,2.46,0,0,0,.54,1.68,1.87,1.87,0,0,0,1.46.62,1.76,1.76,0,0,0,1.43-.61,2.57,2.57,0,0,0,.5-1.71,2.65,2.65,0,0,0-.5-1.74A1.73,1.73,0,0,0,341.61,93.57Z" fill="#1e1e1e"/>
      <path d="M350.92,98.9h-1V98h0A2,2,0,0,1,348.08,99c-1.43,0-2.14-.85-2.14-2.55V92.9h.95v3.44c0,1.26.49,1.9,1.45,1.9a1.49,1.49,0,0,0,1.16-.52,2,2,0,0,0,.46-1.36V92.9h1Z" fill="#1e1e1e"/>
      <path d="M356,93.88a1.14,1.14,0,0,0-.72-.2,1.25,1.25,0,0,0-1,.58,2.74,2.74,0,0,0-.41,1.58V98.9h-1v-6h1v1.24h0a2.17,2.17,0,0,1,.63-1,1.44,1.44,0,0,1,.94-.35,1.65,1.65,0,0,1,.57.08Z" fill="#1e1e1e"/>
      <path d="M361.12,98.63a3.1,3.1,0,0,1-1.64.41,2.68,2.68,0,0,1-2.07-.83,3,3,0,0,1-.79-2.17,3.32,3.32,0,0,1,.85-2.38,3,3,0,0,1,2.26-.9,3.1,3.1,0,0,1,1.4.3v1a2.47,2.47,0,0,0-1.43-.47,1.93,1.93,0,0,0-1.51.66A2.52,2.52,0,0,0,357.6,96a2.39,2.39,0,0,0,.56,1.67,1.92,1.92,0,0,0,1.48.61,2.42,2.42,0,0,0,1.48-.53Z" fill="#1e1e1e"/>
      <path d="M367.39,96.14h-4.23a2.19,2.19,0,0,0,.54,1.55,1.85,1.85,0,0,0,1.41.55,3,3,0,0,0,1.87-.67v.9a3.53,3.53,0,0,1-2.1.57,2.53,2.53,0,0,1-2-.81,3.83,3.83,0,0,1,.07-4.59,2.55,2.55,0,0,1,2-.88,2.28,2.28,0,0,1,1.82.76,3.19,3.19,0,0,1,.64,2.12Zm-1-.81A2,2,0,0,0,366,94a1.4,1.4,0,0,0-1.1-.46,1.56,1.56,0,0,0-1.16.49,2.21,2.21,0,0,0-.58,1.27Z" fill="#1e1e1e"/>
      <path d="M375.1,90.86a1.34,1.34,0,0,0-.64-.15c-.67,0-1,.42-1,1.27v.92h1.41v.82h-1.41V98.9h-.95V93.72h-1V92.9h1v-1a2,2,0,0,1,.54-1.49,1.82,1.82,0,0,1,1.36-.55,1.9,1.9,0,0,1,.7.11Z" fill="#1e1e1e"/>
      <path d="M376.38,91.38a.6.6,0,0,1-.44-.18.57.57,0,0,1-.18-.44.61.61,0,0,1,.18-.45.6.6,0,0,1,.44-.18.62.62,0,0,1,.63.63.6.6,0,0,1-.18.44A.61.61,0,0,1,376.38,91.38Zm.47,7.52h-1v-6h1Z" fill="#1e1e1e"/>
      <path d="M379.76,98.9h-1V90h1Z" fill="#1e1e1e"/>
      <path d="M384.48,98.84a1.76,1.76,0,0,1-.89.19c-1,0-1.58-.58-1.58-1.76V93.72h-1V92.9h1V91.44l1-.31V92.9h1.51v.82H383V97.1a1.41,1.41,0,0,0,.21.87.81.81,0,0,0,.68.25.94.94,0,0,0,.62-.2Z" fill="#1e1e1e"/>
      <path d="M390.59,96.14h-4.24a2.28,2.28,0,0,0,.54,1.55,1.89,1.89,0,0,0,1.42.55,3,3,0,0,0,1.86-.67v.9a3.47,3.47,0,0,1-2.09.57,2.56,2.56,0,0,1-2-.81,3.37,3.37,0,0,1-.72-2.3,3.29,3.29,0,0,1,.79-2.29,2.58,2.58,0,0,1,2-.88,2.29,2.29,0,0,1,1.83.76,3.19,3.19,0,0,1,.64,2.12Zm-1-.81a2,2,0,0,0-.4-1.3,1.42,1.42,0,0,0-1.1-.46,1.54,1.54,0,0,0-1.16.49,2.15,2.15,0,0,0-.58,1.27Z" fill="#1e1e1e"/>
      <path d="M395.17,93.88a1.16,1.16,0,0,0-.72-.2,1.24,1.24,0,0,0-1,.58,2.67,2.67,0,0,0-.42,1.58V98.9h-1v-6h1v1.24h0a2.08,2.08,0,0,1,.62-1,1.49,1.49,0,0,1,1-.35,1.65,1.65,0,0,1,.57.08Z" fill="#1e1e1e"/>
      <path d="M395.85,98.69v-1a2.9,2.9,0,0,0,1.73.58c.84,0,1.27-.29,1.27-.85a.78.78,0,0,0-.11-.41,1,1,0,0,0-.29-.29,2.27,2.27,0,0,0-.44-.23l-.54-.22a5.61,5.61,0,0,1-.69-.32,1.79,1.79,0,0,1-.51-.36,1.41,1.41,0,0,1-.3-.46,1.57,1.57,0,0,1-.11-.6,1.45,1.45,0,0,1,.2-.75,1.65,1.65,0,0,1,.51-.54,2.51,2.51,0,0,1,.74-.34,3.56,3.56,0,0,1,2.24.16v1a2.76,2.76,0,0,0-1.52-.43,1.88,1.88,0,0,0-.49.06,1.16,1.16,0,0,0-.37.18.85.85,0,0,0-.24.26.82.82,0,0,0-.08.35.74.74,0,0,0,.33.67,1.67,1.67,0,0,0,.4.22l.53.22a6.21,6.21,0,0,1,.72.31,2.44,2.44,0,0,1,.54.37,1.38,1.38,0,0,1,.34.46,1.54,1.54,0,0,1,.12.63,1.41,1.41,0,0,1-.2.77,1.7,1.7,0,0,1-.52.55,2.49,2.49,0,0,1-.76.32,3.68,3.68,0,0,1-.89.1A3.51,3.51,0,0,1,395.85,98.69Z" fill="#1e1e1e"/>
    </g>
    <g>
      <path d="M330.89,138.9h-1v-5.63c0-.45,0-1,.08-1.64h0a4.6,4.6,0,0,1-.25.82l-2.87,6.45h-.48l-2.86-6.41a4.31,4.31,0,0,1-.26-.86h0c0,.34,0,.89,0,1.65v5.62h-.95v-8.4h1.3l2.58,5.86a6.32,6.32,0,0,1,.38,1h0c.17-.46.3-.81.4-1l2.63-5.84h1.23Z" fill="#1e1e1e"/>
      <path d="M335.48,139a2.79,2.79,0,0,1-2.12-.84,3.11,3.11,0,0,1-.8-2.23,3.26,3.26,0,0,1,.83-2.36,3,3,0,0,1,2.23-.85,2.7,2.7,0,0,1,2.1.83,3.27,3.27,0,0,1,.75,2.29,3.23,3.23,0,0,1-.81,2.3A2.83,2.83,0,0,1,335.48,139Zm.07-5.47a1.83,1.83,0,0,0-1.46.63,2.59,2.59,0,0,0-.54,1.74,2.46,2.46,0,0,0,.54,1.68,1.87,1.87,0,0,0,1.46.62,1.79,1.79,0,0,0,1.44-.61,2.62,2.62,0,0,0,.5-1.71,2.71,2.71,0,0,0-.5-1.74A1.76,1.76,0,0,0,335.55,133.57Z" fill="#1e1e1e"/>
      <path d="M345.13,138.9h-1v-1h0a2.2,2.2,0,0,1-2.06,1.16,2.24,2.24,0,0,1-1.81-.8,3.32,3.32,0,0,1-.67-2.2,3.59,3.59,0,0,1,.75-2.38,2.46,2.46,0,0,1,2-.9,1.92,1.92,0,0,1,1.8,1h0V130h1Zm-1-2.71v-.88a1.7,1.7,0,0,0-.48-1.23,1.61,1.61,0,0,0-1.22-.51,1.68,1.68,0,0,0-1.39.65,2.85,2.85,0,0,0-.5,1.78,2.53,2.53,0,0,0,.48,1.63,1.58,1.58,0,0,0,1.3.61,1.68,1.68,0,0,0,1.31-.58A2.2,2.2,0,0,0,344.17,136.19Z" fill="#1e1e1e"/>
      <path d="M351.89,136.14h-4.23a2.19,2.19,0,0,0,.54,1.55,1.86,1.86,0,0,0,1.42.55,3,3,0,0,0,1.86-.67v.9a3.52,3.52,0,0,1-2.09.57,2.54,2.54,0,0,1-2-.81,3.83,3.83,0,0,1,.07-4.59,2.56,2.56,0,0,1,2-.88,2.28,2.28,0,0,1,1.82.76,3.19,3.19,0,0,1,.64,2.12Zm-1-.81a2,2,0,0,0-.4-1.3,1.39,1.39,0,0,0-1.1-.46,1.52,1.52,0,0,0-1.15.49,2.16,2.16,0,0,0-.59,1.27Z" fill="#1e1e1e"/>
      <path d="M354.31,138.9h-1V130h1Z" fill="#1e1e1e"/>
      <path d="M359.67,138.9v-8.4h2.39a2.65,2.65,0,0,1,1.73.53,1.75,1.75,0,0,1,.64,1.39,2.07,2.07,0,0,1-.39,1.25,2.09,2.09,0,0,1-1.07.75v0a2.1,2.1,0,0,1,1.36.64,2,2,0,0,1,.51,1.41,2.19,2.19,0,0,1-.77,1.75,2.91,2.91,0,0,1-1.95.66Zm1-7.51v2.71h1a1.89,1.89,0,0,0,1.27-.39,1.33,1.33,0,0,0,.47-1.09c0-.82-.54-1.23-1.61-1.23Zm0,3.6v3H362a2,2,0,0,0,1.35-.41,1.42,1.42,0,0,0,.47-1.12c0-1-.67-1.49-2-1.49Z" fill="#1e1e1e"/>
      <path d="M366.91,131.38a.6.6,0,0,1-.44-.18.57.57,0,0,1-.18-.44.61.61,0,0,1,.18-.45.6.6,0,0,1,.44-.18.62.62,0,0,1,.63.63.6.6,0,0,1-.18.44A.61.61,0,0,1,366.91,131.38Zm.47,7.52h-1v-6h1Z" fill="#1e1e1e"/>
      <path d="M374.31,138.9h-1v-3.42c0-1.27-.47-1.91-1.4-1.91a1.5,1.5,0,0,0-1.19.54,2,2,0,0,0-.47,1.37v3.42h-1v-6h1v1h0a2.16,2.16,0,0,1,2-1.14,1.83,1.83,0,0,1,1.51.64,2.86,2.86,0,0,1,.52,1.84Z" fill="#1e1e1e"/>
      <path d="M381.24,138.9h-1v-1h0a2.2,2.2,0,0,1-2.06,1.16,2.25,2.25,0,0,1-1.81-.8,3.32,3.32,0,0,1-.67-2.2,3.59,3.59,0,0,1,.75-2.38,2.46,2.46,0,0,1,2-.9,1.91,1.91,0,0,1,1.79,1h0V130h1Zm-1-2.71v-.88a1.7,1.7,0,0,0-.48-1.23,1.61,1.61,0,0,0-1.22-.51,1.64,1.64,0,0,0-1.38.65,2.79,2.79,0,0,0-.51,1.78,2.48,2.48,0,0,0,.49,1.63,1.55,1.55,0,0,0,1.29.61,1.68,1.68,0,0,0,1.31-.58A2.2,2.2,0,0,0,380.28,136.19Z" fill="#1e1e1e"/>
      <path d="M383.68,131.38a.59.59,0,0,1-.44-.18.58.58,0,0,1-.19-.44.62.62,0,0,1,.19-.45.59.59,0,0,1,.44-.18.64.64,0,0,1,.45.18.61.61,0,0,1,.18.45.6.6,0,0,1-.18.44A.64.64,0,0,1,383.68,131.38Zm.46,7.52h-1v-6h1Z" fill="#1e1e1e"/>
      <path d="M391.07,138.9h-1v-3.42c0-1.27-.47-1.91-1.4-1.91a1.52,1.52,0,0,0-1.19.54,2,2,0,0,0-.47,1.37v3.42h-1v-6h1v1h0a2.17,2.17,0,0,1,2-1.14,1.83,1.83,0,0,1,1.51.64,2.8,2.8,0,0,1,.52,1.84Z" fill="#1e1e1e"/>
      <path d="M398,138.42q0,3.32-3.16,3.31a4.31,4.31,0,0,1-1.95-.42v-1a4,4,0,0,0,1.94.57c1.47,0,2.21-.79,2.21-2.36v-.65h0a2.44,2.44,0,0,1-3.87.34,3.19,3.19,0,0,1-.68-2.14,3.73,3.73,0,0,1,.74-2.43,2.44,2.44,0,0,1,2-.91,2,2,0,0,1,1.8,1h0v-.84h1Zm-1-2.23v-.88a1.73,1.73,0,0,0-.48-1.23,1.6,1.6,0,0,0-1.21-.51,1.66,1.66,0,0,0-1.39.65,2.85,2.85,0,0,0-.5,1.81,2.48,2.48,0,0,0,.48,1.6,1.54,1.54,0,0,0,1.28.61,1.7,1.7,0,0,0,1.32-.58A2.16,2.16,0,0,0,397,136.19Z" fill="#1e1e1e"/>
    </g>
    <g>
      <path d="M324.87,179.9h-1v-5.63c0-.45,0-1,.08-1.64h0a5.64,5.64,0,0,1-.25.82l-2.87,6.45h-.48l-2.87-6.41a4.44,4.44,0,0,1-.25-.86h0c0,.34,0,.89,0,1.65v5.62h-.95v-8.4h1.3l2.58,5.86a7.92,7.92,0,0,1,.39,1h0c.17-.46.31-.81.41-1l2.63-5.84h1.23Z" fill="#1e1e1e"/>
      <path d="M329.46,180a2.79,2.79,0,0,1-2.13-.84,3.1,3.1,0,0,1-.79-2.23,3.22,3.22,0,0,1,.83-2.36,3,3,0,0,1,2.23-.85,2.69,2.69,0,0,1,2.09.83,3.28,3.28,0,0,1,.76,2.29,3.23,3.23,0,0,1-.82,2.3A2.81,2.81,0,0,1,329.46,180Zm.07-5.47a1.84,1.84,0,0,0-1.47.63,2.59,2.59,0,0,0-.54,1.74,2.46,2.46,0,0,0,.55,1.68,1.85,1.85,0,0,0,1.46.62,1.76,1.76,0,0,0,1.43-.61,2.62,2.62,0,0,0,.5-1.71,2.71,2.71,0,0,0-.5-1.74A1.73,1.73,0,0,0,329.53,174.57Z" fill="#1e1e1e"/>
      <path d="M339.1,179.9h-1v-1h0a2.43,2.43,0,0,1-3.87.36,3.27,3.27,0,0,1-.68-2.2,3.59,3.59,0,0,1,.75-2.38,2.48,2.48,0,0,1,2-.9,1.94,1.94,0,0,1,1.8,1h0V171h1Zm-1-2.71v-.88a1.7,1.7,0,0,0-.48-1.23,1.61,1.61,0,0,0-1.22-.51,1.66,1.66,0,0,0-1.38.65,2.79,2.79,0,0,0-.51,1.78,2.48,2.48,0,0,0,.49,1.63,1.55,1.55,0,0,0,1.3.61,1.67,1.67,0,0,0,1.3-.58A2.2,2.2,0,0,0,338.14,177.19Z" fill="#1e1e1e"/>
      <path d="M345.87,177.14h-4.24a2.28,2.28,0,0,0,.54,1.55,1.89,1.89,0,0,0,1.42.55,3,3,0,0,0,1.86-.67v.9a3.47,3.47,0,0,1-2.09.57,2.56,2.56,0,0,1-2-.81,3.37,3.37,0,0,1-.72-2.3,3.29,3.29,0,0,1,.79-2.29,2.58,2.58,0,0,1,2-.88,2.27,2.27,0,0,1,1.82.76,3.2,3.2,0,0,1,.65,2.12Zm-1-.81a1.91,1.91,0,0,0-.4-1.3,1.39,1.39,0,0,0-1.1-.46,1.54,1.54,0,0,0-1.15.49,2.22,2.22,0,0,0-.59,1.27Z" fill="#1e1e1e"/>
      <path d="M348.28,179.9h-1V171h1Z" fill="#1e1e1e"/>
      <path d="M359.89,171.5l-3.11,8.4H355.7l-3.05-8.4h1.09l2.33,6.66a4.63,4.63,0,0,1,.17.75h0a3.43,3.43,0,0,1,.2-.76l2.37-6.65Z" fill="#1e1e1e"/>
      <path d="M364.38,179.9h-1V179h0a2,2,0,0,1-1.85,1.07,2,2,0,0,1-1.4-.47,1.65,1.65,0,0,1-.51-1.26c0-1.12.66-1.77,2-2l1.79-.25q0-1.53-1.23-1.53a3,3,0,0,0-2,.74v-1a3.68,3.68,0,0,1,2-.57c1.41,0,2.11.75,2.11,2.24Zm-1-3-1.44.2a2.3,2.3,0,0,0-1,.33,1,1,0,0,0-.34.84.92.92,0,0,0,.31.72,1.25,1.25,0,0,0,.84.28,1.54,1.54,0,0,0,1.18-.51,1.76,1.76,0,0,0,.46-1.26Z" fill="#1e1e1e"/>
      <path d="M367.16,179.9h-1V171h1Z" fill="#1e1e1e"/>
      <path d="M369.59,172.38a.62.62,0,0,1-.44-.18.57.57,0,0,1-.18-.44.61.61,0,0,1,.18-.45.62.62,0,0,1,.44-.18.61.61,0,0,1,.45.18.62.62,0,0,1,0,.89A.61.61,0,0,1,369.59,172.38Zm.47,7.52h-1v-6h1Z" fill="#1e1e1e"/>
      <path d="M377.13,179.9h-1v-1h0a2.2,2.2,0,0,1-2.06,1.16,2.24,2.24,0,0,1-1.81-.8,3.32,3.32,0,0,1-.67-2.2,3.59,3.59,0,0,1,.75-2.38,2.46,2.46,0,0,1,2-.9,1.91,1.91,0,0,1,1.79,1h0V171h1Zm-1-2.71v-.88a1.7,1.7,0,0,0-.48-1.23,1.61,1.61,0,0,0-1.22-.51,1.64,1.64,0,0,0-1.38.65,2.79,2.79,0,0,0-.51,1.78,2.53,2.53,0,0,0,.48,1.63,1.58,1.58,0,0,0,1.3.61,1.68,1.68,0,0,0,1.31-.58A2.2,2.2,0,0,0,376.17,177.19Z" fill="#1e1e1e"/>
      <path d="M383.37,179.9h-1V179h0a2,2,0,0,1-1.84,1.07,2,2,0,0,1-1.41-.47,1.68,1.68,0,0,1-.5-1.26c0-1.12.66-1.77,2-2l1.8-.25c0-1-.41-1.53-1.24-1.53a3,3,0,0,0-2,.74v-1a3.68,3.68,0,0,1,2-.57c1.41,0,2.12.75,2.12,2.24Zm-1-3-1.45.2a2.35,2.35,0,0,0-1,.33,1,1,0,0,0-.34.84.93.93,0,0,0,.32.72,1.21,1.21,0,0,0,.83.28,1.52,1.52,0,0,0,1.18-.51,1.77,1.77,0,0,0,.47-1.26Z" fill="#1e1e1e"/>
      <path d="M388,179.84a1.76,1.76,0,0,1-.89.19c-1.05,0-1.58-.58-1.58-1.76v-3.55h-1v-.82h1v-1.46l1-.31v1.77H388v.82h-1.51v3.38a1.41,1.41,0,0,0,.21.87.81.81,0,0,0,.68.25.94.94,0,0,0,.62-.2Z" fill="#1e1e1e"/>
      <path d="M389.74,172.38a.6.6,0,0,1-.44-.18.57.57,0,0,1-.18-.44.61.61,0,0,1,.18-.45.6.6,0,0,1,.44-.18.64.64,0,0,1,.45.18.61.61,0,0,1,.18.45.6.6,0,0,1-.18.44A.64.64,0,0,1,389.74,172.38Zm.47,7.52h-1v-6h1Z" fill="#1e1e1e"/>
      <path d="M394.66,180a2.76,2.76,0,0,1-2.12-.84,3.11,3.11,0,0,1-.8-2.23,3.26,3.26,0,0,1,.83-2.36,3,3,0,0,1,2.23-.85,2.67,2.67,0,0,1,2.09.83,3.75,3.75,0,0,1-.05,4.59A2.85,2.85,0,0,1,394.66,180Zm.07-5.47a1.81,1.81,0,0,0-1.46.63,2.59,2.59,0,0,0-.54,1.74,2.46,2.46,0,0,0,.54,1.68,1.85,1.85,0,0,0,1.46.62,1.76,1.76,0,0,0,1.43-.61,2.57,2.57,0,0,0,.5-1.71,2.65,2.65,0,0,0-.5-1.74A1.73,1.73,0,0,0,394.73,174.57Z" fill="#1e1e1e"/>
      <path d="M404.16,179.9h-1v-3.42c0-1.27-.46-1.91-1.39-1.91a1.5,1.5,0,0,0-1.19.54,2,2,0,0,0-.48,1.37v3.42h-1v-6h1v1h0a2.16,2.16,0,0,1,2-1.14,1.82,1.82,0,0,1,1.5.64,2.8,2.8,0,0,1,.52,1.84Z" fill="#1e1e1e"/>
    </g>
    <g>
      <path d="M333.08,215.73v3.17h-1v-8.4h2.31a3,3,0,0,1,2.09.66,2.34,2.34,0,0,1,.74,1.85,2.54,2.54,0,0,1-.82,2,3.18,3.18,0,0,1-2.22.76Zm0-4.34v3.45h1a2.28,2.28,0,0,0,1.55-.47,1.64,1.64,0,0,0,.54-1.31c0-1.11-.66-1.67-2-1.67Z" fill="#1e1e1e"/>
      <path d="M342.57,218.9h-1V218h0a2,2,0,0,1-1.85,1.07,1.93,1.93,0,0,1-1.4-.47,1.65,1.65,0,0,1-.51-1.26c0-1.12.66-1.77,2-2l1.8-.25c0-1-.41-1.53-1.24-1.53a3,3,0,0,0-1.95.74v-1a3.68,3.68,0,0,1,2-.57c1.41,0,2.11.75,2.11,2.24Zm-1-3-1.45.2a2.35,2.35,0,0,0-1,.33,1,1,0,0,0-.34.84.93.93,0,0,0,.32.72,1.24,1.24,0,0,0,.83.28,1.52,1.52,0,0,0,1.18-.51,1.77,1.77,0,0,0,.47-1.26Z" fill="#1e1e1e"/>
      <path d="M349.5,218.42q0,3.32-3.16,3.31a4.31,4.31,0,0,1-1.95-.42v-1a4,4,0,0,0,1.94.57c1.47,0,2.21-.79,2.21-2.36v-.65h0a2.44,2.44,0,0,1-3.87.34,3.19,3.19,0,0,1-.68-2.14,3.67,3.67,0,0,1,.74-2.43,2.44,2.44,0,0,1,2-.91,2,2,0,0,1,1.8,1h0v-.84h1Zm-1-2.23v-.88a1.73,1.73,0,0,0-.48-1.23,1.62,1.62,0,0,0-1.21-.51,1.66,1.66,0,0,0-1.39.65A2.85,2.85,0,0,0,345,216a2.48,2.48,0,0,0,.48,1.6,1.54,1.54,0,0,0,1.28.61,1.66,1.66,0,0,0,1.31-.58A2.12,2.12,0,0,0,348.54,216.19Z" fill="#1e1e1e"/>
      <path d="M356.27,216.14H352a2.28,2.28,0,0,0,.54,1.55,1.89,1.89,0,0,0,1.42.55,3,3,0,0,0,1.86-.67v.9a3.47,3.47,0,0,1-2.09.57,2.56,2.56,0,0,1-2-.81,3.37,3.37,0,0,1-.72-2.3,3.29,3.29,0,0,1,.79-2.29,2.58,2.58,0,0,1,2-.88,2.29,2.29,0,0,1,1.83.76,3.25,3.25,0,0,1,.64,2.12Zm-1-.81a2,2,0,0,0-.41-1.3,1.38,1.38,0,0,0-1.09-.46,1.54,1.54,0,0,0-1.16.49,2.22,2.22,0,0,0-.59,1.27Z" fill="#1e1e1e"/>
      <path d="M364,210.86a1.3,1.3,0,0,0-.63-.15c-.68,0-1,.42-1,1.27v.92h1.4v.82h-1.4v5.18h-1v-5.18h-1v-.82h1v-1a2,2,0,0,1,.55-1.49,1.81,1.81,0,0,1,1.36-.55,1.84,1.84,0,0,1,.69.11Z" fill="#1e1e1e"/>
      <path d="M365.26,211.38a.6.6,0,0,1-.44-.18.57.57,0,0,1-.18-.44.61.61,0,0,1,.18-.45.6.6,0,0,1,.44-.18.64.64,0,0,1,.45.18.61.61,0,0,1,.18.45.6.6,0,0,1-.18.44A.64.64,0,0,1,365.26,211.38Zm.47,7.52h-1v-6h1Z" fill="#1e1e1e"/>
      <path d="M368.63,218.9h-1V210h1Z" fill="#1e1e1e"/>
      <path d="M373.36,218.84a1.8,1.8,0,0,1-.9.19c-1,0-1.57-.58-1.57-1.76v-3.55h-1v-.82h1v-1.46l1-.31v1.77h1.51v.82h-1.51v3.38a1.49,1.49,0,0,0,.2.87.83.83,0,0,0,.68.25,1,1,0,0,0,.63-.2Z" fill="#1e1e1e"/>
      <path d="M379.47,216.14h-4.24a2.28,2.28,0,0,0,.54,1.55,1.87,1.87,0,0,0,1.42.55,3,3,0,0,0,1.86-.67v.9A3.5,3.5,0,0,1,377,219a2.56,2.56,0,0,1-2-.81,3.37,3.37,0,0,1-.73-2.3,3.29,3.29,0,0,1,.8-2.29,2.56,2.56,0,0,1,2-.88,2.27,2.27,0,0,1,1.82.76,3.2,3.2,0,0,1,.65,2.12Zm-1-.81a2,2,0,0,0-.4-1.3,1.39,1.39,0,0,0-1.1-.46,1.52,1.52,0,0,0-1.15.49,2.22,2.22,0,0,0-.59,1.27Z" fill="#1e1e1e"/>
      <path d="M384.05,213.88a1.18,1.18,0,0,0-.73-.2,1.25,1.25,0,0,0-1,.58,2.74,2.74,0,0,0-.41,1.58v3.06h-1v-6h1v1.24h0a2.17,2.17,0,0,1,.63-1,1.46,1.46,0,0,1,.94-.35,1.71,1.71,0,0,1,.58.08Z" fill="#1e1e1e"/>
      <path d="M384.73,218.69v-1a2.88,2.88,0,0,0,1.73.58c.84,0,1.26-.29,1.26-.85a.7.7,0,0,0-.11-.41,1,1,0,0,0-.29-.29,2.18,2.18,0,0,0-.43-.23l-.54-.22a5.79,5.79,0,0,1-.7-.32,1.74,1.74,0,0,1-.5-.36,1.29,1.29,0,0,1-.31-.46,1.57,1.57,0,0,1-.1-.6,1.44,1.44,0,0,1,.19-.75,1.58,1.58,0,0,1,.52-.54,2.45,2.45,0,0,1,.73-.34,3.49,3.49,0,0,1,.86-.11,3.41,3.41,0,0,1,1.39.27v1a2.78,2.78,0,0,0-1.52-.43,1.88,1.88,0,0,0-.49.06,1.06,1.06,0,0,0-.37.18.85.85,0,0,0-.24.26.7.7,0,0,0-.09.35.8.8,0,0,0,.09.39.94.94,0,0,0,.25.28,1.67,1.67,0,0,0,.4.22l.53.22a7.07,7.07,0,0,1,.72.31,2.16,2.16,0,0,1,.53.37,1.41,1.41,0,0,1,.35.46,1.54,1.54,0,0,1,.12.63,1.5,1.5,0,0,1-.2.77,1.7,1.7,0,0,1-.52.55,2.49,2.49,0,0,1-.76.32,3.71,3.71,0,0,1-.9.1A3.49,3.49,0,0,1,384.73,218.69Z" fill="#1e1e1e"/>
    </g>
    <g>
      <path d="M188.55,216q0,3.54-3.19,3.54t-3.06-3.4V211h1v5.08c0,1.72.73,2.58,2.18,2.58s2.11-.83,2.11-2.5V211h1Z" fill="#1e1e1e"/>
      <path d="M190.16,219.19v-1a2.87,2.87,0,0,0,1.72.58c.85,0,1.27-.29,1.27-.85a.78.78,0,0,0-.11-.41,1,1,0,0,0-.29-.29,2,2,0,0,0-.44-.23l-.53-.22a5.16,5.16,0,0,1-.7-.32,1.94,1.94,0,0,1-.51-.36,1.41,1.41,0,0,1-.3-.46,1.57,1.57,0,0,1-.1-.6,1.44,1.44,0,0,1,.19-.75,1.58,1.58,0,0,1,.52-.54,2.45,2.45,0,0,1,.73-.34,3.59,3.59,0,0,1,2.25.16v1a2.78,2.78,0,0,0-1.52-.43,1.83,1.83,0,0,0-.49.06,1,1,0,0,0-.37.18.66.66,0,0,0-.24.26.7.7,0,0,0-.09.35.8.8,0,0,0,.09.39.82.82,0,0,0,.25.28,1.81,1.81,0,0,0,.39.22l.54.22a6.85,6.85,0,0,1,.71.31,2.44,2.44,0,0,1,.54.37,1.38,1.38,0,0,1,.34.46,1.54,1.54,0,0,1,.12.63,1.49,1.49,0,0,1-.19.77,1.74,1.74,0,0,1-.53.55,2.54,2.54,0,0,1-.75.32,3.82,3.82,0,0,1-.9.1A3.47,3.47,0,0,1,190.16,219.19Z" fill="#1e1e1e"/>
      <path d="M200.43,216.64H196.2a2.19,2.19,0,0,0,.54,1.55,1.85,1.85,0,0,0,1.41.55,3,3,0,0,0,1.87-.67v.9a3.52,3.52,0,0,1-2.09.57,2.54,2.54,0,0,1-2-.81,3.85,3.85,0,0,1,.06-4.59,2.58,2.58,0,0,1,2-.88,2.28,2.28,0,0,1,1.82.76,3.19,3.19,0,0,1,.64,2.12Zm-1-.81a2,2,0,0,0-.4-1.3,1.4,1.4,0,0,0-1.1-.46,1.56,1.56,0,0,0-1.16.49,2.21,2.21,0,0,0-.58,1.27Z" fill="#1e1e1e"/>
      <path d="M205,214.38a1.2,1.2,0,0,0-.73-.2,1.25,1.25,0,0,0-1,.58,2.67,2.67,0,0,0-.41,1.58v3.06h-1v-6h1v1.24h0a2.17,2.17,0,0,1,.63-1,1.44,1.44,0,0,1,.94-.35,1.75,1.75,0,0,1,.58.08Z" fill="#1e1e1e"/>
      <path d="M213.44,219.13a3.13,3.13,0,0,1-1.65.41,2.71,2.71,0,0,1-2.07-.83,3.06,3.06,0,0,1-.78-2.17,3.36,3.36,0,0,1,.84-2.38,3,3,0,0,1,2.27-.9,3.13,3.13,0,0,1,1.4.3v1a2.49,2.49,0,0,0-1.43-.47,1.92,1.92,0,0,0-1.51.66,2.52,2.52,0,0,0-.59,1.73,2.39,2.39,0,0,0,.55,1.67,1.94,1.94,0,0,0,1.49.61,2.44,2.44,0,0,0,1.48-.53Z" fill="#1e1e1e"/>
      <path d="M217.4,219.54a2.79,2.79,0,0,1-2.13-.84,3.1,3.1,0,0,1-.79-2.23,3.26,3.26,0,0,1,.82-2.36,3,3,0,0,1,2.24-.85,2.69,2.69,0,0,1,2.09.83,3.27,3.27,0,0,1,.75,2.29,3.23,3.23,0,0,1-.81,2.3A2.81,2.81,0,0,1,217.4,219.54Zm.07-5.47a1.84,1.84,0,0,0-1.47.63,2.59,2.59,0,0,0-.54,1.74,2.41,2.41,0,0,0,.55,1.68,1.85,1.85,0,0,0,1.46.62,1.77,1.77,0,0,0,1.43-.61,2.62,2.62,0,0,0,.5-1.71,2.71,2.71,0,0,0-.5-1.74A1.74,1.74,0,0,0,217.47,214.07Z" fill="#1e1e1e"/>
      <path d="M227,219.4h-1v-1h0a2.43,2.43,0,0,1-3.87.36,3.27,3.27,0,0,1-.68-2.2,3.59,3.59,0,0,1,.75-2.38,2.48,2.48,0,0,1,2-.9,1.94,1.94,0,0,1,1.8,1h0v-3.72h1Zm-1-2.71v-.88a1.7,1.7,0,0,0-.48-1.23,1.61,1.61,0,0,0-1.22-.51,1.64,1.64,0,0,0-1.38.65,2.79,2.79,0,0,0-.51,1.78,2.48,2.48,0,0,0,.49,1.63,1.55,1.55,0,0,0,1.29.61,1.68,1.68,0,0,0,1.31-.58A2.2,2.2,0,0,0,226.08,216.69Z" fill="#1e1e1e"/>
      <path d="M233.81,216.64h-4.24a2.28,2.28,0,0,0,.54,1.55,1.87,1.87,0,0,0,1.42.55,3,3,0,0,0,1.86-.67v.9a3.5,3.5,0,0,1-2.09.57,2.56,2.56,0,0,1-2-.81,3.37,3.37,0,0,1-.72-2.3,3.29,3.29,0,0,1,.79-2.29,2.58,2.58,0,0,1,2-.88,2.27,2.27,0,0,1,1.82.76,3.2,3.2,0,0,1,.65,2.12Zm-1-.81a1.91,1.91,0,0,0-.4-1.3,1.39,1.39,0,0,0-1.1-.46,1.54,1.54,0,0,0-1.15.49,2.22,2.22,0,0,0-.59,1.27Z" fill="#1e1e1e"/>
    </g>
    <g>
      <path d="M341.18,268.07c0,2.36-1.07,3.54-3.19,3.54s-3.06-1.13-3.06-3.4v-5.14h1v5.07c0,1.72.73,2.59,2.18,2.59s2.1-.84,2.1-2.5v-5.16h1Z" fill="#1e1e1e"/>
      <path d="M342.78,271.25v-1a2.84,2.84,0,0,0,1.73.58c.85,0,1.27-.28,1.27-.84a.76.76,0,0,0-.11-.41,1.17,1.17,0,0,0-.29-.3,3,3,0,0,0-.44-.23l-.53-.21a6.76,6.76,0,0,1-.7-.32,2.55,2.55,0,0,1-.51-.36,1.52,1.52,0,0,1-.3-.46,1.63,1.63,0,0,1-.1-.61,1.38,1.38,0,0,1,.19-.74,1.78,1.78,0,0,1,.51-.55,2.49,2.49,0,0,1,.74-.33,3.59,3.59,0,0,1,2.25.16v1a2.71,2.71,0,0,0-1.53-.43,1.75,1.75,0,0,0-.48.06,1.15,1.15,0,0,0-.37.17.76.76,0,0,0-.24.27.67.67,0,0,0-.09.34.75.75,0,0,0,.09.39.81.81,0,0,0,.24.29,2.48,2.48,0,0,0,.4.22l.54.21c.26.11.5.21.71.32a2.82,2.82,0,0,1,.54.36,1.41,1.41,0,0,1,.34.47,1.46,1.46,0,0,1,.12.62,1.5,1.5,0,0,1-.19.78,1.61,1.61,0,0,1-.53.54,2.3,2.3,0,0,1-.75.32,3.36,3.36,0,0,1-.9.11A3.41,3.41,0,0,1,342.78,271.25Z" fill="#1e1e1e"/>
      <path d="M353.06,268.71h-4.23a2.25,2.25,0,0,0,.53,1.55,1.88,1.88,0,0,0,1.42.54,2.94,2.94,0,0,0,1.87-.67V271a3.53,3.53,0,0,1-2.1.57,2.51,2.51,0,0,1-2-.82,3.83,3.83,0,0,1,.06-4.58,2.54,2.54,0,0,1,2-.88,2.26,2.26,0,0,1,1.83.76,3.18,3.18,0,0,1,.64,2.12Zm-1-.81a2,2,0,0,0-.4-1.3,1.37,1.37,0,0,0-1.1-.46,1.57,1.57,0,0,0-1.16.48,2.24,2.24,0,0,0-.58,1.28Z" fill="#1e1e1e"/>
      <path d="M357.64,266.44a1.14,1.14,0,0,0-.72-.19,1.21,1.21,0,0,0-1,.58,2.64,2.64,0,0,0-.41,1.58v3.06h-1v-6h1v1.24h0a2,2,0,0,1,.63-1,1.54,1.54,0,0,1,1.51-.27Z" fill="#1e1e1e"/>
      <path d="M366.06,271.19a3.08,3.08,0,0,1-1.64.42,2.75,2.75,0,0,1-2.07-.83,3.06,3.06,0,0,1-.79-2.17,3.35,3.35,0,0,1,.85-2.38,3,3,0,0,1,2.27-.9,3.27,3.27,0,0,1,1.4.29v1a2.42,2.42,0,0,0-1.43-.47,1.92,1.92,0,0,0-1.51.66,2.46,2.46,0,0,0-.59,1.73,2.36,2.36,0,0,0,.55,1.66,1.91,1.91,0,0,0,1.49.61,2.38,2.38,0,0,0,1.47-.52Z" fill="#1e1e1e"/>
      <path d="M370,271.61a2.79,2.79,0,0,1-2.12-.84,3.1,3.1,0,0,1-.79-2.23,3.24,3.24,0,0,1,.82-2.36,3,3,0,0,1,2.24-.85,2.66,2.66,0,0,1,2.09.83,3.77,3.77,0,0,1-.06,4.59A2.87,2.87,0,0,1,370,271.61Zm.07-5.47a1.83,1.83,0,0,0-1.46.63,2.58,2.58,0,0,0-.54,1.73,2.42,2.42,0,0,0,.55,1.69,1.84,1.84,0,0,0,1.45.61,1.77,1.77,0,0,0,1.44-.6,3.23,3.23,0,0,0,0-3.45A1.75,1.75,0,0,0,370.09,266.14Z" fill="#1e1e1e"/>
      <path d="M379.67,271.47h-1v-1h0a2.21,2.21,0,0,1-2.06,1.16,2.26,2.26,0,0,1-1.81-.81,3.28,3.28,0,0,1-.67-2.19,3.57,3.57,0,0,1,.75-2.38,2.46,2.46,0,0,1,2-.9,1.9,1.9,0,0,1,1.79,1h0v-3.71h1Zm-1-2.71v-.89a1.73,1.73,0,0,0-.48-1.23,1.78,1.78,0,0,0-2.6.14,2.81,2.81,0,0,0-.51,1.78,2.51,2.51,0,0,0,.49,1.64,1.57,1.57,0,0,0,1.29.6,1.65,1.65,0,0,0,1.31-.58A2.17,2.17,0,0,0,378.71,268.76Z" fill="#1e1e1e"/>
      <path d="M386.44,268.71H382.2a2.3,2.3,0,0,0,.54,1.55,1.87,1.87,0,0,0,1.42.54,2.93,2.93,0,0,0,1.86-.67V271a3.5,3.5,0,0,1-2.09.57,2.53,2.53,0,0,1-2-.82,3.36,3.36,0,0,1-.73-2.3,3.29,3.29,0,0,1,.8-2.28,2.53,2.53,0,0,1,2-.88,2.25,2.25,0,0,1,1.82.76,3.18,3.18,0,0,1,.65,2.12Zm-1-.81a2,2,0,0,0-.4-1.3,1.36,1.36,0,0,0-1.1-.46,1.55,1.55,0,0,0-1.15.48,2.25,2.25,0,0,0-.59,1.28Z" fill="#1e1e1e"/>
    </g>
    <g>
      <path d="M52.3,258.9H47.85v-8.4h4.27v.89H48.83v2.8h3v.88h-3V258H52.3Z" fill="#1e1e1e"/>
      <path d="M58.17,252.9l-2,3,2,3H57L55.84,257l-.26-.46h0l-.28.46-1.2,1.94H53L55,256l-2-3.06h1.12l1.16,2,.25.47h0l1.5-2.52Z" fill="#1e1e1e"/>
      <path d="M63.39,258.63a3.1,3.1,0,0,1-1.64.41,2.68,2.68,0,0,1-2.07-.83,3,3,0,0,1-.79-2.17,3.32,3.32,0,0,1,.85-2.38,3,3,0,0,1,2.27-.9,3.09,3.09,0,0,1,1.39.3v1a2.45,2.45,0,0,0-1.43-.47,2,2,0,0,0-1.51.66,2.52,2.52,0,0,0-.59,1.73,2.39,2.39,0,0,0,.56,1.67,1.92,1.92,0,0,0,1.48.61,2.4,2.4,0,0,0,1.48-.53Z" fill="#1e1e1e"/>
      <path d="M69.67,256.14H65.43a2.19,2.19,0,0,0,.54,1.55,1.86,1.86,0,0,0,1.42.55,3,3,0,0,0,1.86-.67v.9a3.52,3.52,0,0,1-2.09.57,2.54,2.54,0,0,1-2-.81,3.83,3.83,0,0,1,.07-4.59,2.56,2.56,0,0,1,2-.88,2.28,2.28,0,0,1,1.82.76,3.2,3.2,0,0,1,.65,2.12Zm-1-.81a2,2,0,0,0-.4-1.3,1.39,1.39,0,0,0-1.1-.46,1.52,1.52,0,0,0-1.15.49,2.16,2.16,0,0,0-.59,1.27Z" fill="#1e1e1e"/>
      <path d="M72.1,258h0v3.62h-1V252.9h1V254h0a2.29,2.29,0,0,1,2.08-1.2,2.2,2.2,0,0,1,1.81.81,3.37,3.37,0,0,1,.65,2.16,3.76,3.76,0,0,1-.73,2.41,2.46,2.46,0,0,1-2,.9A2,2,0,0,1,72.1,258Zm0-2.42v.83a1.81,1.81,0,0,0,.48,1.27,1.73,1.73,0,0,0,2.6-.15,3.09,3.09,0,0,0,.49-1.86,2.41,2.41,0,0,0-.46-1.57,1.53,1.53,0,0,0-1.25-.57,1.73,1.73,0,0,0-1.35.58A2.16,2.16,0,0,0,72.08,255.62Z" fill="#1e1e1e"/>
      <path d="M81,258.84a1.82,1.82,0,0,1-.9.19c-1,0-1.58-.58-1.58-1.76v-3.55h-1v-.82h1v-1.46l1-.31v1.77H81v.82H79.44v3.38a1.41,1.41,0,0,0,.21.87.82.82,0,0,0,.68.25A1,1,0,0,0,81,258Z" fill="#1e1e1e"/>
      <path d="M82.73,251.38a.6.6,0,0,1-.44-.18.57.57,0,0,1-.18-.44.61.61,0,0,1,.18-.45.6.6,0,0,1,.44-.18.62.62,0,0,1,.63.63.6.6,0,0,1-.18.44A.61.61,0,0,1,82.73,251.38Zm.47,7.52h-1v-6h1Z" fill="#1e1e1e"/>
      <path d="M87.65,259a2.79,2.79,0,0,1-2.12-.84,3.1,3.1,0,0,1-.79-2.23,3.26,3.26,0,0,1,.82-2.36,3,3,0,0,1,2.23-.85,2.7,2.7,0,0,1,2.1.83,3.27,3.27,0,0,1,.75,2.29,3.23,3.23,0,0,1-.81,2.3A2.83,2.83,0,0,1,87.65,259Zm.07-5.47a1.83,1.83,0,0,0-1.46.63,2.59,2.59,0,0,0-.54,1.74,2.46,2.46,0,0,0,.54,1.68,1.87,1.87,0,0,0,1.46.62,1.79,1.79,0,0,0,1.44-.61,2.62,2.62,0,0,0,.5-1.71,2.71,2.71,0,0,0-.5-1.74A1.76,1.76,0,0,0,87.72,253.57Z" fill="#1e1e1e"/>
      <path d="M97.16,258.9h-1v-3.42c0-1.27-.47-1.91-1.4-1.91a1.5,1.5,0,0,0-1.19.54,2,2,0,0,0-.47,1.37v3.42h-1v-6h1v1h0a2.16,2.16,0,0,1,2-1.14,1.83,1.83,0,0,1,1.51.64,2.86,2.86,0,0,1,.52,1.84Z" fill="#1e1e1e"/>
      <path d="M105.22,250.86a1.34,1.34,0,0,0-.64-.15c-.67,0-1,.42-1,1.27v.92H105v.82h-1.41v5.18h-.95v-5.18h-1v-.82h1v-1a2,2,0,0,1,.54-1.49,1.84,1.84,0,0,1,1.36-.55,1.86,1.86,0,0,1,.7.11Z" fill="#1e1e1e"/>
      <path d="M106.5,251.38a.6.6,0,0,1-.44-.18.57.57,0,0,1-.18-.44.61.61,0,0,1,.18-.45.6.6,0,0,1,.44-.18.61.61,0,0,1,.45.18.62.62,0,0,1,0,.89A.61.61,0,0,1,106.5,251.38Zm.47,7.52h-1v-6h1Z" fill="#1e1e1e"/>
      <path d="M109.88,258.9h-1V250h1Z" fill="#1e1e1e"/>
      <path d="M114.61,258.84a1.82,1.82,0,0,1-.9.19c-1,0-1.58-.58-1.58-1.76v-3.55h-1v-.82h1v-1.46l1-.31v1.77h1.52v.82h-1.52v3.38a1.41,1.41,0,0,0,.21.87.82.82,0,0,0,.68.25,1,1,0,0,0,.63-.2Z" fill="#1e1e1e"/>
      <path d="M120.71,256.14h-4.23a2.23,2.23,0,0,0,.53,1.55,1.89,1.89,0,0,0,1.42.55,3,3,0,0,0,1.87-.67v.9a3.53,3.53,0,0,1-2.1.57,2.53,2.53,0,0,1-2-.81,3.33,3.33,0,0,1-.73-2.3,3.29,3.29,0,0,1,.79-2.29,2.58,2.58,0,0,1,2-.88,2.28,2.28,0,0,1,1.82.76,3.19,3.19,0,0,1,.64,2.12Zm-1-.81a2,2,0,0,0-.4-1.3,1.4,1.4,0,0,0-1.1-.46,1.54,1.54,0,0,0-1.16.49,2.21,2.21,0,0,0-.58,1.27Z" fill="#1e1e1e"/>
      <path d="M125.29,253.88a1.14,1.14,0,0,0-.72-.2,1.24,1.24,0,0,0-1,.58,2.67,2.67,0,0,0-.41,1.58v3.06h-1v-6h1v1.24h0a2.17,2.17,0,0,1,.63-1,1.44,1.44,0,0,1,.94-.35,1.65,1.65,0,0,1,.57.08Z" fill="#1e1e1e"/>
      <path d="M126,258.69v-1a2.9,2.9,0,0,0,1.73.58c.85,0,1.27-.29,1.27-.85a.78.78,0,0,0-.11-.41,1,1,0,0,0-.29-.29,2.27,2.27,0,0,0-.44-.23l-.53-.22a5.16,5.16,0,0,1-.7-.32,1.94,1.94,0,0,1-.51-.36,1.41,1.41,0,0,1-.3-.46,1.57,1.57,0,0,1-.1-.6,1.44,1.44,0,0,1,.19-.75,1.65,1.65,0,0,1,.51-.54,2.51,2.51,0,0,1,.74-.34,3.59,3.59,0,0,1,2.25.16v1a2.79,2.79,0,0,0-1.53-.43,1.75,1.75,0,0,0-.48.06,1.11,1.11,0,0,0-.38.18.85.85,0,0,0-.24.26.82.82,0,0,0-.08.35.74.74,0,0,0,.33.67,1.89,1.89,0,0,0,.4.22l.54.22a6.85,6.85,0,0,1,.71.31,2.44,2.44,0,0,1,.54.37,1.38,1.38,0,0,1,.34.46,1.54,1.54,0,0,1,.12.63,1.49,1.49,0,0,1-.19.77,1.74,1.74,0,0,1-.53.55,2.54,2.54,0,0,1-.75.32,3.82,3.82,0,0,1-.9.1A3.54,3.54,0,0,1,126,258.69Z" fill="#1e1e1e"/>
    </g>
    <g>
      <path d="M63.52,298.9H62.35l-1.41-2.35a5,5,0,0,0-.37-.56,2.27,2.27,0,0,0-.38-.38,1.07,1.07,0,0,0-.41-.21,1.49,1.49,0,0,0-.49-.07h-.81v3.57h-1v-8.4H60a3.64,3.64,0,0,1,1,.14,2.23,2.23,0,0,1,.81.42,1.84,1.84,0,0,1,.53.7,2.28,2.28,0,0,1,.2,1,2.53,2.53,0,0,1-.13.8,2.15,2.15,0,0,1-.38.66,2.37,2.37,0,0,1-.59.49,2.82,2.82,0,0,1-.77.31v0a2.13,2.13,0,0,1,.37.22,2.56,2.56,0,0,1,.3.28c.09.11.18.24.27.37s.2.3.31.49Zm-5-7.51v3.05h1.34a2.15,2.15,0,0,0,.68-.11A1.61,1.61,0,0,0,61,294a1.57,1.57,0,0,0,.36-.51,1.83,1.83,0,0,0,.13-.68,1.32,1.32,0,0,0-.44-1.05,1.88,1.88,0,0,0-1.26-.38Z" fill="#1e1e1e"/>
      <path d="M69,296.14H64.78a2.19,2.19,0,0,0,.54,1.55,1.86,1.86,0,0,0,1.42.55,3,3,0,0,0,1.86-.67v.9a3.52,3.52,0,0,1-2.09.57,2.54,2.54,0,0,1-2-.81,3.83,3.83,0,0,1,.07-4.59,2.56,2.56,0,0,1,2-.88,2.28,2.28,0,0,1,1.82.76,3.19,3.19,0,0,1,.64,2.12Zm-1-.81a2,2,0,0,0-.4-1.3,1.39,1.39,0,0,0-1.1-.46,1.52,1.52,0,0,0-1.15.49,2.16,2.16,0,0,0-.59,1.27Z" fill="#1e1e1e"/>
      <path d="M70.1,298.69v-1a2.9,2.9,0,0,0,1.73.58c.85,0,1.27-.29,1.27-.85A.78.78,0,0,0,73,297a1,1,0,0,0-.29-.29,2.27,2.27,0,0,0-.44-.23l-.53-.22a5.16,5.16,0,0,1-.7-.32,1.94,1.94,0,0,1-.51-.36,1.41,1.41,0,0,1-.3-.46,1.57,1.57,0,0,1-.1-.6,1.44,1.44,0,0,1,.19-.75,1.58,1.58,0,0,1,.52-.54,2.45,2.45,0,0,1,.73-.34,3.59,3.59,0,0,1,2.25.16v1a2.79,2.79,0,0,0-1.53-.43,1.75,1.75,0,0,0-.48.06,1,1,0,0,0-.37.18.66.66,0,0,0-.24.26.7.7,0,0,0-.09.35.8.8,0,0,0,.09.39.9.9,0,0,0,.24.28,1.89,1.89,0,0,0,.4.22l.54.22a6.85,6.85,0,0,1,.71.31,2.44,2.44,0,0,1,.54.37,1.38,1.38,0,0,1,.34.46,1.54,1.54,0,0,1,.12.63,1.49,1.49,0,0,1-.19.77,1.74,1.74,0,0,1-.53.55,2.54,2.54,0,0,1-.75.32,3.82,3.82,0,0,1-.9.1A3.54,3.54,0,0,1,70.1,298.69Z" fill="#1e1e1e"/>
      <path d="M80.41,298.9h-1V298h0A2,2,0,0,1,77.58,299c-1.43,0-2.15-.85-2.15-2.55V292.9h1v3.44c0,1.26.48,1.9,1.45,1.9a1.5,1.5,0,0,0,1.16-.52,2,2,0,0,0,.45-1.36V292.9h1Z" fill="#1e1e1e"/>
      <path d="M83.31,298.9h-1V290h1Z" fill="#1e1e1e"/>
      <path d="M88,298.84a1.82,1.82,0,0,1-.9.19c-1,0-1.57-.58-1.57-1.76v-3.55h-1v-.82h1v-1.46l1-.31v1.77H88v.82H86.53v3.38a1.49,1.49,0,0,0,.2.87.83.83,0,0,0,.68.25A1,1,0,0,0,88,298Z" fill="#1e1e1e"/>
      <path d="M95.58,290.86a1.37,1.37,0,0,0-.64-.15c-.68,0-1,.42-1,1.27v.92h1.4v.82h-1.4v5.18H93v-5.18H92v-.82h1v-1a2,2,0,0,1,.55-1.49,1.81,1.81,0,0,1,1.36-.55,1.94,1.94,0,0,1,.7.11Z" fill="#1e1e1e"/>
      <path d="M96.86,291.38a.6.6,0,0,1-.44-.18.57.57,0,0,1-.18-.44.61.61,0,0,1,.18-.45.6.6,0,0,1,.44-.18.64.64,0,0,1,.45.18.61.61,0,0,1,.18.45.6.6,0,0,1-.18.44A.64.64,0,0,1,96.86,291.38Zm.47,7.52h-1v-6h1Z" fill="#1e1e1e"/>
      <path d="M100.23,298.9h-1V290h1Z" fill="#1e1e1e"/>
      <path d="M105,298.84a1.76,1.76,0,0,1-.89.19c-1.06,0-1.58-.58-1.58-1.76v-3.55h-1v-.82h1v-1.46l1-.31v1.77H105v.82h-1.51v3.38a1.41,1.41,0,0,0,.21.87.8.8,0,0,0,.67.25,1,1,0,0,0,.63-.2Z" fill="#1e1e1e"/>
      <path d="M111.07,296.14h-4.24a2.28,2.28,0,0,0,.54,1.55,1.87,1.87,0,0,0,1.42.55,3,3,0,0,0,1.86-.67v.9a3.5,3.5,0,0,1-2.09.57,2.56,2.56,0,0,1-2-.81,3.37,3.37,0,0,1-.73-2.3,3.29,3.29,0,0,1,.8-2.29,2.58,2.58,0,0,1,2-.88,2.27,2.27,0,0,1,1.82.76,3.2,3.2,0,0,1,.65,2.12Zm-1-.81a1.91,1.91,0,0,0-.4-1.3,1.39,1.39,0,0,0-1.1-.46,1.54,1.54,0,0,0-1.15.49,2.22,2.22,0,0,0-.59,1.27Z" fill="#1e1e1e"/>
      <path d="M115.65,293.88a1.18,1.18,0,0,0-.73-.2,1.25,1.25,0,0,0-1,.58,2.74,2.74,0,0,0-.41,1.58v3.06h-1v-6h1v1.24h0a2.17,2.17,0,0,1,.63-1,1.47,1.47,0,0,1,1-.35,1.65,1.65,0,0,1,.57.08Z" fill="#1e1e1e"/>
      <path d="M116.33,298.69v-1a2.88,2.88,0,0,0,1.73.58c.84,0,1.26-.29,1.26-.85a.7.7,0,0,0-.11-.41,1,1,0,0,0-.29-.29,2.18,2.18,0,0,0-.43-.23l-.54-.22a5.79,5.79,0,0,1-.7-.32,1.74,1.74,0,0,1-.5-.36,1.29,1.29,0,0,1-.31-.46,1.79,1.79,0,0,1-.1-.6,1.55,1.55,0,0,1,.19-.75,1.58,1.58,0,0,1,.52-.54,2.4,2.4,0,0,1,.74-.34,3.35,3.35,0,0,1,.85-.11A3.41,3.41,0,0,1,120,293v1a2.78,2.78,0,0,0-1.52-.43,1.88,1.88,0,0,0-.49.06,1.06,1.06,0,0,0-.37.18.85.85,0,0,0-.24.26.69.69,0,0,0-.08.35.8.8,0,0,0,.08.39.94.94,0,0,0,.25.28,1.67,1.67,0,0,0,.4.22l.53.22a7.07,7.07,0,0,1,.72.31,2.16,2.16,0,0,1,.53.37,1.41,1.41,0,0,1,.35.46,1.54,1.54,0,0,1,.12.63,1.5,1.5,0,0,1-.2.77,1.7,1.7,0,0,1-.52.55,2.49,2.49,0,0,1-.76.32,3.71,3.71,0,0,1-.9.1A3.49,3.49,0,0,1,116.33,298.69Z" fill="#1e1e1e"/>
    </g>
    <g>
      <path d="M15.54,15.6H13.67v-5c0-.54,0-1.14.07-1.8h-.05c-.1.52-.19.89-.26,1.12l-2,5.71H9.91L7.91,10a9.65,9.65,0,0,1-.27-1.18h0c0,.83.08,1.56.08,2.18V15.6H6V7.2H8.73l1.72,5a6.58,6.58,0,0,1,.3,1.2h0a12.46,12.46,0,0,1,.34-1.21l1.71-5h2.71Z" fill="#1e1e1e"/>
      <path d="M24.37,7.2l-2.89,8.4H19.33L16.47,7.2h2l1.75,5.85a3.71,3.71,0,0,1,.17.83h0a5.3,5.3,0,0,1,.18-.86L22.39,7.2Z" fill="#1e1e1e"/>
      <path d="M31.08,15.3a5.54,5.54,0,0,1-2.41.45,4,4,0,0,1-3-1.14,4.16,4.16,0,0,1-1.11-3,4.46,4.46,0,0,1,1.25-3.27A4.38,4.38,0,0,1,29,7.06a6,6,0,0,1,2.08.31V9.19a3.68,3.68,0,0,0-1.93-.5,2.54,2.54,0,0,0-1.91.74,2.79,2.79,0,0,0-.72,2,2.73,2.73,0,0,0,.68,1.94,2.43,2.43,0,0,0,1.85.72,4,4,0,0,0,2-.54Z" fill="#1e1e1e"/>
      <path d="M40.89,15.6h-5V7.2H40.7V8.74h-3v1.87h2.75v1.53H37.74v1.93h3.15Z" fill="#1e1e1e"/>
      <path d="M47.94,15.6H46.09V12.27c0-.93-.33-1.4-1-1.4a1,1,0,0,0-.79.37,1.4,1.4,0,0,0-.31.94V15.6H42.14v-6H44v1h0A2.12,2.12,0,0,1,46,9.45c1.32,0,2,.83,2,2.48Z" fill="#1e1e1e"/>
      <path d="M55.3,15.6H53.45v-.83h0a2.08,2.08,0,0,1-1.86,1,2.28,2.28,0,0,1-1.81-.8,3.27,3.27,0,0,1-.68-2.21,3.6,3.6,0,0,1,.75-2.39,2.48,2.48,0,0,1,2-.9,1.68,1.68,0,0,1,1.62.84h0V6.72H55.3Zm-1.81-2.92v-.45a1.45,1.45,0,0,0-.34-1,1.12,1.12,0,0,0-.89-.39,1.1,1.1,0,0,0-1,.49A2.23,2.23,0,0,0,51,12.68a2,2,0,0,0,.33,1.22,1.18,1.18,0,0,0,1.84,0A1.87,1.87,0,0,0,53.49,12.68Z" fill="#1e1e1e"/>
      <path d="M58.7,14.9h0v3.46H56.83V9.6h1.85v.9h0a2.36,2.36,0,0,1,3.73-.25,3.39,3.39,0,0,1,.64,2.18,3.73,3.73,0,0,1-.74,2.41,2.44,2.44,0,0,1-2,.91A1.86,1.86,0,0,1,58.7,14.9Zm-.05-2.46v.48a1.54,1.54,0,0,0,.33,1,1.08,1.08,0,0,0,.86.39,1.12,1.12,0,0,0,1-.49,2.32,2.32,0,0,0,.35-1.39c0-1-.41-1.58-1.23-1.58a1.18,1.18,0,0,0-.93.43A1.73,1.73,0,0,0,58.65,12.44Z" fill="#1e1e1e"/>
      <path d="M67.18,15.75a3.23,3.23,0,0,1-2.36-.84A3.08,3.08,0,0,1,64,12.62a3.08,3.08,0,0,1,.89-2.33,3.38,3.38,0,0,1,2.41-.84,3.16,3.16,0,0,1,2.34.84,3,3,0,0,1,.85,2.23,3.19,3.19,0,0,1-.87,2.36A3.27,3.27,0,0,1,67.18,15.75Zm0-4.88a1.23,1.23,0,0,0-1,.45,2,2,0,0,0-.37,1.28c0,1.15.47,1.73,1.4,1.73s1.33-.59,1.33-1.78S68.12,10.87,67.23,10.87Z" fill="#1e1e1e"/>
      <path d="M72.56,8.65a1.07,1.07,0,0,1-.77-.28.88.88,0,0,1-.3-.68.87.87,0,0,1,.3-.68,1.11,1.11,0,0,1,.77-.26,1.09,1.09,0,0,1,.77.26.87.87,0,0,1,.3.68.89.89,0,0,1-.3.69A1.1,1.1,0,0,1,72.56,8.65Zm.91,7H71.62v-6h1.85Z" fill="#1e1e1e"/>
      <path d="M80.8,15.6H79V12.27c0-.93-.33-1.4-1-1.4a1,1,0,0,0-.79.37,1.4,1.4,0,0,0-.31.94V15.6H75v-6h1.85v1h0a2.14,2.14,0,0,1,1.93-1.1c1.33,0,2,.83,2,2.48Z" fill="#1e1e1e"/>
      <path d="M85.83,15.53a2.83,2.83,0,0,1-1.24.22c-1.3,0-2-.68-2-2V11h-1V9.6h1V8.31l1.85-.53V9.6h1.35V11H84.48v2.42c0,.63.25.94.74.94a1.31,1.31,0,0,0,.61-.17Z" fill="#1e1e1e"/>
      <path d="M8.49,31.91H7.64A7.49,7.49,0,0,1,5.82,26.8a7.78,7.78,0,0,1,1.82-5.2H8.5a7.91,7.91,0,0,0-1.84,5.18A7.75,7.75,0,0,0,8.49,31.91Z" fill="#1e1e1e"/>
      <path d="M13.18,29.73a3.22,3.22,0,0,1-1.64.41,2.76,2.76,0,0,1-2.08-.83,3.06,3.06,0,0,1-.78-2.17,3.3,3.3,0,0,1,.85-2.38,3,3,0,0,1,2.26-.9,3.24,3.24,0,0,1,1.4.29v1a2.4,2.4,0,0,0-1.43-.47,1.92,1.92,0,0,0-1.51.66,2.5,2.5,0,0,0-.59,1.73,2.36,2.36,0,0,0,.55,1.66,1.91,1.91,0,0,0,1.49.61,2.43,2.43,0,0,0,1.48-.52Z" fill="#1e1e1e"/>
      <path d="M19,30H18v-.94h0a2,2,0,0,1-1.84,1.08,2,2,0,0,1-1.41-.47,1.64,1.64,0,0,1-.5-1.26c0-1.12.66-1.78,2-2L18,26.2q0-1.53-1.23-1.53a2.92,2.92,0,0,0-2,.74v-1a3.76,3.76,0,0,1,2-.56c1.41,0,2.12.75,2.12,2.24Zm-1-3-1.44.19a2.43,2.43,0,0,0-1,.34.93.93,0,0,0-.34.84.89.89,0,0,0,.31.71,1.2,1.2,0,0,0,.84.28,1.53,1.53,0,0,0,1.18-.5A1.79,1.79,0,0,0,18,27.56Z" fill="#1e1e1e"/>
      <path d="M21.67,30h-1V21.12h1Z" fill="#1e1e1e"/>
      <path d="M24.45,30h-1V21.12h1Z" fill="#1e1e1e"/>
      <path d="M31.18,27.24H26.94a2.3,2.3,0,0,0,.54,1.55,1.87,1.87,0,0,0,1.42.54,2.93,2.93,0,0,0,1.86-.67v.91a3.5,3.5,0,0,1-2.09.57,2.53,2.53,0,0,1-2-.82,3.36,3.36,0,0,1-.73-2.3,3.29,3.29,0,0,1,.8-2.28,2.54,2.54,0,0,1,2-.88,2.24,2.24,0,0,1,1.82.76,3.18,3.18,0,0,1,.65,2.12Zm-1-.81a1.91,1.91,0,0,0-.4-1.3,1.36,1.36,0,0,0-1.1-.46,1.55,1.55,0,0,0-1.15.48A2.25,2.25,0,0,0,27,26.43Z" fill="#1e1e1e"/>
      <path d="M37.81,30h-1V29h0a2.23,2.23,0,0,1-2.06,1.16,2.25,2.25,0,0,1-1.81-.8,3.33,3.33,0,0,1-.68-2.2A3.57,3.57,0,0,1,33,24.76a2.48,2.48,0,0,1,2-.9,1.93,1.93,0,0,1,1.8,1h0V21.12h1Zm-1-2.71V26.4a1.73,1.73,0,0,0-.48-1.23,1.62,1.62,0,0,0-1.22-.5,1.66,1.66,0,0,0-1.38.64,2.87,2.87,0,0,0-.5,1.78,2.54,2.54,0,0,0,.48,1.64,1.59,1.59,0,0,0,1.3.6,1.63,1.63,0,0,0,1.3-.58A2.11,2.11,0,0,0,36.85,27.29Z" fill="#1e1e1e"/>
      <path d="M44,29.13h0V30h-1V21.12h1v3.94h0a2.26,2.26,0,0,1,2.07-1.2,2.19,2.19,0,0,1,1.81.81,3.27,3.27,0,0,1,.66,2.15,3.74,3.74,0,0,1-.74,2.42,2.42,2.42,0,0,1-2,.9A2,2,0,0,1,44,29.13Zm0-2.42v.84a1.77,1.77,0,0,0,.48,1.26,1.59,1.59,0,0,0,1.23.52,1.6,1.6,0,0,0,1.37-.67,3,3,0,0,0,.49-1.85,2.41,2.41,0,0,0-.46-1.57,1.54,1.54,0,0,0-1.26-.57,1.69,1.69,0,0,0-1.34.58A2.15,2.15,0,0,0,44,26.71Z" fill="#1e1e1e"/>
      <path d="M54.77,24,52,31c-.49,1.24-1.18,1.86-2.08,1.86a2.21,2.21,0,0,1-.62-.07v-.86a1.71,1.71,0,0,0,.57.1A1.19,1.19,0,0,0,51,31.13L51.45,30,49.1,24h1.07l1.62,4.62.13.45h0c0-.09.06-.24.12-.44L53.77,24Z" fill="#1e1e1e"/>
      <path d="M61.87,29.94a1.82,1.82,0,0,1-.9.19c-1,0-1.57-.59-1.57-1.76V24.82h-1V24h1V22.54l1-.31V24h1.51v.82H60.36V28.2a1.45,1.45,0,0,0,.2.86.84.84,0,0,0,.68.26,1,1,0,0,0,.63-.2Z" fill="#1e1e1e"/>
      <path d="M68,30h-1V26.54c0-1.25-.46-1.87-1.39-1.87a1.55,1.55,0,0,0-1.19.54A2,2,0,0,0,64,26.6V30h-1V21.12h1V25h0a2.18,2.18,0,0,1,2-1.14c1.35,0,2,.81,2,2.44Z" fill="#1e1e1e"/>
      <path d="M74.66,27.24H70.42A2.3,2.3,0,0,0,71,28.79a1.87,1.87,0,0,0,1.42.54,2.93,2.93,0,0,0,1.86-.67v.91a3.5,3.5,0,0,1-2.09.57,2.52,2.52,0,0,1-2-.82,3.36,3.36,0,0,1-.73-2.3,3.29,3.29,0,0,1,.8-2.28,2.53,2.53,0,0,1,2-.88,2.25,2.25,0,0,1,1.82.76,3.18,3.18,0,0,1,.65,2.12Zm-1-.81a2,2,0,0,0-.4-1.3,1.36,1.36,0,0,0-1.1-.46,1.55,1.55,0,0,0-1.15.48,2.25,2.25,0,0,0-.59,1.28Z" fill="#1e1e1e"/>
      <path d="M84,30H79.53V21.6h4.26v.89H80.51v2.79h3v.89h-3v2.94H84Z" fill="#1e1e1e"/>
      <path d="M90.27,30h-1V26.58c0-1.27-.47-1.91-1.4-1.91a1.5,1.5,0,0,0-1.19.54,2,2,0,0,0-.47,1.37V30h-1V24h1v1h0a2.16,2.16,0,0,1,2-1.14,1.83,1.83,0,0,1,1.51.64,2.85,2.85,0,0,1,.52,1.83Z" fill="#1e1e1e"/>
      <path d="M97.2,30h-1V29h0a2.21,2.21,0,0,1-2.06,1.16,2.28,2.28,0,0,1-1.81-.8,3.32,3.32,0,0,1-.67-2.2,3.57,3.57,0,0,1,.75-2.38,2.46,2.46,0,0,1,2-.9,1.9,1.9,0,0,1,1.79,1h0V21.12h1Zm-1-2.71V26.4a1.73,1.73,0,0,0-.48-1.23,1.78,1.78,0,0,0-2.6.14,2.81,2.81,0,0,0-.51,1.78,2.49,2.49,0,0,0,.49,1.64,1.57,1.57,0,0,0,1.29.6,1.65,1.65,0,0,0,1.31-.58A2.16,2.16,0,0,0,96.24,27.29Z" fill="#1e1e1e"/>
      <path d="M100,29.13h0v3.63H99V24h1v1.06h0a2.26,2.26,0,0,1,2.07-1.2,2.18,2.18,0,0,1,1.81.81,3.27,3.27,0,0,1,.65,2.15,3.73,3.73,0,0,1-.73,2.42,2.44,2.44,0,0,1-2,.9A2,2,0,0,1,100,29.13Zm0-2.42v.84a1.77,1.77,0,0,0,.48,1.26,1.72,1.72,0,0,0,2.59-.15,3,3,0,0,0,.5-1.85,2.41,2.41,0,0,0-.46-1.57,1.54,1.54,0,0,0-1.26-.57,1.68,1.68,0,0,0-1.34.58A2.15,2.15,0,0,0,100,26.71Z" fill="#1e1e1e"/>
      <path d="M108.58,30.14a2.79,2.79,0,0,1-2.13-.84,3.1,3.1,0,0,1-.79-2.23,3.21,3.21,0,0,1,.83-2.36,3,3,0,0,1,2.23-.85,2.69,2.69,0,0,1,2.09.83,3.28,3.28,0,0,1,.76,2.29,3.25,3.25,0,0,1-.82,2.3A2.85,2.85,0,0,1,108.58,30.14Zm.07-5.47a1.84,1.84,0,0,0-1.47.63,2.59,2.59,0,0,0-.54,1.74,2.46,2.46,0,0,0,.55,1.68,1.85,1.85,0,0,0,1.46.61,1.75,1.75,0,0,0,1.43-.6,2.65,2.65,0,0,0,.5-1.72,2.66,2.66,0,0,0-.5-1.73A1.73,1.73,0,0,0,108.65,24.67Z" fill="#1e1e1e"/>
      <path d="M113.5,22.48a.6.6,0,0,1-.44-.18.59.59,0,0,1-.18-.44.61.61,0,0,1,.18-.45.6.6,0,0,1,.44-.18.64.64,0,0,1,.45.18.61.61,0,0,1,.18.45.62.62,0,0,1-.18.44A.64.64,0,0,1,113.5,22.48ZM114,30h-1V24h1Z" fill="#1e1e1e"/>
      <path d="M120.77,30h-1V26.58c0-1.27-.46-1.91-1.39-1.91a1.5,1.5,0,0,0-1.19.54,2,2,0,0,0-.47,1.37V30h-1V24h1v1h0a2.16,2.16,0,0,1,2-1.14,1.81,1.81,0,0,1,1.5.64,2.79,2.79,0,0,1,.52,1.83Z" fill="#1e1e1e"/>
      <path d="M125.27,29.94a1.82,1.82,0,0,1-.9.19c-1.05,0-1.58-.59-1.58-1.76V24.82h-1V24h1V22.54l1-.31V24h1.52v.82h-1.52V28.2a1.37,1.37,0,0,0,.21.86.83.83,0,0,0,.68.26,1.05,1.05,0,0,0,.63-.2Z" fill="#1e1e1e"/>
      <path d="M138.53,30h-1V24.36c0-.44,0-1,.09-1.63h0a5.05,5.05,0,0,1-.25.81L134.49,30H134l-2.87-6.41a5.64,5.64,0,0,1-.25-.86h0c0,.33,0,.88,0,1.65V30H130V21.6h1.3l2.57,5.86a7.38,7.38,0,0,1,.39,1h0c.16-.47.3-.81.4-1l2.63-5.83h1.23Z" fill="#1e1e1e"/>
      <path d="M141,22.48a.6.6,0,0,1-.44-.18.59.59,0,0,1-.18-.44.61.61,0,0,1,.18-.45.6.6,0,0,1,.44-.18.62.62,0,0,1,.63.63.62.62,0,0,1-.18.44A.61.61,0,0,1,141,22.48Zm.47,7.52h-1V24h1Z" fill="#1e1e1e"/>
      <path d="M148.44,30h-1V29h0a2.43,2.43,0,0,1-3.87.36,3.27,3.27,0,0,1-.68-2.2,3.57,3.57,0,0,1,.75-2.38,2.48,2.48,0,0,1,2-.9,1.93,1.93,0,0,1,1.8,1h0V21.12h1Zm-1-2.71V26.4a1.73,1.73,0,0,0-.48-1.23,1.78,1.78,0,0,0-2.6.14,2.81,2.81,0,0,0-.51,1.78,2.49,2.49,0,0,0,.49,1.64,1.57,1.57,0,0,0,1.29.6,1.65,1.65,0,0,0,1.31-.58A2.16,2.16,0,0,0,147.48,27.29Z" fill="#1e1e1e"/>
      <path d="M155.45,30h-1V29h0a2.23,2.23,0,0,1-2.06,1.16,2.25,2.25,0,0,1-1.81-.8,3.33,3.33,0,0,1-.68-2.2,3.57,3.57,0,0,1,.75-2.38,2.48,2.48,0,0,1,2-.9,1.93,1.93,0,0,1,1.8,1h0V21.12h1Zm-1-2.71V26.4a1.73,1.73,0,0,0-.48-1.23,1.64,1.64,0,0,0-1.22-.5,1.66,1.66,0,0,0-1.38.64,2.81,2.81,0,0,0-.5,1.78,2.54,2.54,0,0,0,.48,1.64,1.57,1.57,0,0,0,1.3.6,1.63,1.63,0,0,0,1.3-.58A2.16,2.16,0,0,0,154.49,27.29Z" fill="#1e1e1e"/>
      <path d="M158.23,30h-1V21.12h1Z" fill="#1e1e1e"/>
      <path d="M165,27.24h-4.24a2.3,2.3,0,0,0,.54,1.55,1.87,1.87,0,0,0,1.42.54,2.91,2.91,0,0,0,1.86-.67v.91a3.47,3.47,0,0,1-2.09.57,2.53,2.53,0,0,1-2-.82,3.35,3.35,0,0,1-.72-2.3,3.28,3.28,0,0,1,.79-2.28,2.54,2.54,0,0,1,2-.88,2.24,2.24,0,0,1,1.82.76,3.18,3.18,0,0,1,.65,2.12Zm-1-.81a1.91,1.91,0,0,0-.4-1.3,1.36,1.36,0,0,0-1.1-.46,1.56,1.56,0,0,0-1.15.48,2.25,2.25,0,0,0-.59,1.28Z" fill="#1e1e1e"/>
      <path d="M174,24l-1.8,6h-1l-1.23-4.29a3,3,0,0,1-.1-.56h0a2.06,2.06,0,0,1-.13.54L168.33,30h-1l-1.81-6h1l1.25,4.51a4.55,4.55,0,0,1,.08.54h0a3.14,3.14,0,0,1,.11-.55l1.38-4.5h.88l1.24,4.52a3.36,3.36,0,0,1,.09.54h.05a2.61,2.61,0,0,1,.1-.54L173,24Z" fill="#1e1e1e"/>
      <path d="M179.25,30h-1v-.94h0a2.2,2.2,0,0,1-3.25.61,1.68,1.68,0,0,1-.5-1.26c0-1.12.66-1.78,2-2l1.8-.25c0-1-.41-1.53-1.24-1.53a2.94,2.94,0,0,0-2,.74v-1a3.76,3.76,0,0,1,2-.56c1.41,0,2.12.75,2.12,2.24Zm-1-3-1.45.19a2.43,2.43,0,0,0-1,.34.93.93,0,0,0-.34.84.9.9,0,0,0,.32.71,1.16,1.16,0,0,0,.83.28,1.51,1.51,0,0,0,1.18-.5,1.8,1.8,0,0,0,.47-1.27Z" fill="#1e1e1e"/>
      <path d="M184.12,25a1.18,1.18,0,0,0-.73-.19,1.2,1.2,0,0,0-1,.58,2.64,2.64,0,0,0-.42,1.58V30h-1V24h1v1.24h0a2,2,0,0,1,.62-1,1.42,1.42,0,0,1,1-.35,1.44,1.44,0,0,1,.57.08Z" fill="#1e1e1e"/>
      <path d="M190,27.24h-4.24a2.3,2.3,0,0,0,.54,1.55,1.87,1.87,0,0,0,1.42.54,2.91,2.91,0,0,0,1.86-.67v.91a3.5,3.5,0,0,1-2.09.57,2.53,2.53,0,0,1-2-.82,3.35,3.35,0,0,1-.72-2.3,3.28,3.28,0,0,1,.79-2.28,2.54,2.54,0,0,1,2-.88,2.24,2.24,0,0,1,1.82.76,3.18,3.18,0,0,1,.65,2.12Zm-1-.81a1.91,1.91,0,0,0-.4-1.3,1.36,1.36,0,0,0-1.1-.46,1.56,1.56,0,0,0-1.15.48,2.25,2.25,0,0,0-.59,1.28Z" fill="#1e1e1e"/>
      <path d="M191.05,31.91h-.86A7.75,7.75,0,0,0,192,26.78a7.86,7.86,0,0,0-1.84-5.18h.87a7.74,7.74,0,0,1,1.83,5.2A7.45,7.45,0,0,1,191.05,31.91Z" fill="#1e1e1e"/>
    </g>
    <g>
      <path d="M81.77,68.87H79.9v-5c0-.54,0-1.14.07-1.8h0a8.14,8.14,0,0,1-.27,1.11l-2,5.72H76.15l-2-5.66c0-.15-.14-.54-.26-1.17h0c0,.83.07,1.56.07,2.18v4.65H72.2v-8.4H75l1.72,5a7,7,0,0,1,.29,1.2h0c.1-.47.22-.87.33-1.22l1.72-5h2.7Z" fill="#1e1e1e"/>
      <path d="M90.61,60.47l-2.9,8.4H85.57l-2.86-8.4h2l1.75,5.84a4.62,4.62,0,0,1,.17.84h0a3.78,3.78,0,0,1,.18-.86l1.74-5.82Z" fill="#1e1e1e"/>
      <path d="M97.31,68.57a5.47,5.47,0,0,1-2.4.44,4,4,0,0,1-3-1.13,4.16,4.16,0,0,1-1.11-3A4.42,4.42,0,0,1,92,61.58a4.33,4.33,0,0,1,3.23-1.26,5.92,5.92,0,0,1,2.07.32v1.82A3.63,3.63,0,0,0,95.39,62a2.53,2.53,0,0,0-1.91.75,2.77,2.77,0,0,0-.73,2,2.72,2.72,0,0,0,.69,2,2.43,2.43,0,0,0,1.84.72,3.93,3.93,0,0,0,2-.54Z" fill="#1e1e1e"/>
      <path d="M106.94,62h-3v2.06h2.72V65.6H104v3.27h-1.89v-8.4h4.85Z" fill="#1e1e1e"/>
      <path d="M109,61.92a1.07,1.07,0,0,1-.77-.28.9.9,0,0,1-.3-.68.85.85,0,0,1,.3-.68A1.11,1.11,0,0,1,109,60a1.1,1.1,0,0,1,.77.27.85.85,0,0,1,.3.68.89.89,0,0,1-.3.69A1.1,1.1,0,0,1,109,61.92Zm.92,7H108v-6h1.86Z" fill="#1e1e1e"/>
      <path d="M113.27,68.87h-1.85V60h1.85Z" fill="#1e1e1e"/>
      <path d="M118.41,68.8a2.78,2.78,0,0,1-1.23.21c-1.31,0-2-.67-2-2V64.23h-1V62.87h1v-1.3l1.84-.52v1.82h1.35v1.36h-1.35v2.43c0,.62.25.94.75.94a1.27,1.27,0,0,0,.6-.17Z" fill="#1e1e1e"/>
      <path d="M124.84,66.4h-3.92c.07.87.62,1.3,1.65,1.3a3.15,3.15,0,0,0,1.74-.47v1.34a4.51,4.51,0,0,1-2.16.44,3,3,0,0,1-2.26-.8,3.08,3.08,0,0,1-.8-2.25,3.23,3.23,0,0,1,.87-2.37,2.9,2.9,0,0,1,2.13-.87,2.63,2.63,0,0,1,2,.78,3,3,0,0,1,.72,2.12Zm-1.72-1.14c0-.86-.35-1.29-1-1.29a1,1,0,0,0-.77.37,1.65,1.65,0,0,0-.4.92Z" fill="#1e1e1e"/>
      <path d="M129.93,64.54a1.61,1.61,0,0,0-.78-.18,1.1,1.1,0,0,0-.94.44,1.88,1.88,0,0,0-.34,1.2v2.87H126v-6h1.85V64h0a1.6,1.6,0,0,1,1.58-1.22,1.35,1.35,0,0,1,.46.07Z" fill="#1e1e1e"/>
      <path d="M136,68.17h0v3.46H134.1V62.87H136v.9h0a2.16,2.16,0,0,1,1.92-1.05,2.2,2.2,0,0,1,1.81.8,3.43,3.43,0,0,1,.63,2.18,3.67,3.67,0,0,1-.74,2.41,2.42,2.42,0,0,1-2,.9A1.87,1.87,0,0,1,136,68.17Zm-.06-2.46v.48a1.52,1.52,0,0,0,.33,1,1.06,1.06,0,0,0,.86.4,1.17,1.17,0,0,0,1-.49,2.4,2.4,0,0,0,.34-1.39c0-1-.41-1.58-1.23-1.58a1.15,1.15,0,0,0-.93.43A1.73,1.73,0,0,0,135.92,65.71Z" fill="#1e1e1e"/>
      <path d="M142.49,61.92a1.06,1.06,0,0,1-.77-.28.9.9,0,0,1-.3-.68.85.85,0,0,1,.3-.68,1.1,1.1,0,0,1,.77-.27,1.11,1.11,0,0,1,.77.27.88.88,0,0,1,.29.68.91.91,0,0,1-.29.69A1.11,1.11,0,0,1,142.49,61.92Zm.91,7h-1.85v-6h1.85Z" fill="#1e1e1e"/>
      <path d="M146.81,68.17h0v3.46h-1.85V62.87h1.85v.9h0a2.36,2.36,0,0,1,3.73-.25,3.37,3.37,0,0,1,.64,2.18,3.73,3.73,0,0,1-.74,2.41,2.43,2.43,0,0,1-2,.9A1.88,1.88,0,0,1,146.81,68.17Zm-.05-2.46v.48a1.52,1.52,0,0,0,.33,1,1,1,0,0,0,.86.4,1.15,1.15,0,0,0,1-.49,2.4,2.4,0,0,0,.35-1.39c0-1-.41-1.58-1.23-1.58a1.15,1.15,0,0,0-.93.43A1.73,1.73,0,0,0,146.76,65.71Z" fill="#1e1e1e"/>
      <path d="M157.82,66.4h-3.91c.06.87.61,1.3,1.64,1.3a3.15,3.15,0,0,0,1.74-.47v1.34a4.51,4.51,0,0,1-2.16.44,3,3,0,0,1-2.26-.8,3.08,3.08,0,0,1-.8-2.25,3.23,3.23,0,0,1,.87-2.37,2.9,2.9,0,0,1,2.13-.87,2.62,2.62,0,0,1,2,.78,3,3,0,0,1,.72,2.12Zm-1.72-1.14c0-.86-.35-1.29-1-1.29a1,1,0,0,0-.77.37,1.65,1.65,0,0,0-.4.92Z" fill="#1e1e1e"/>
      <path d="M160.84,68.87H159V60h1.85Z" fill="#1e1e1e"/>
      <path d="M163.31,61.92a1.07,1.07,0,0,1-.77-.28.9.9,0,0,1-.3-.68.85.85,0,0,1,.3-.68,1.11,1.11,0,0,1,.77-.27,1.1,1.1,0,0,1,.77.27.85.85,0,0,1,.3.68.89.89,0,0,1-.3.69A1.1,1.1,0,0,1,163.31,61.92Zm.91,7h-1.85v-6h1.85Z" fill="#1e1e1e"/>
      <path d="M171.56,68.87h-1.85V65.53c0-.93-.33-1.39-1-1.39a1,1,0,0,0-.79.37,1.44,1.44,0,0,0-.31.94v3.42h-1.85v-6h1.85v1h0a2.12,2.12,0,0,1,1.92-1.1c1.33,0,2,.83,2,2.47Z" fill="#1e1e1e"/>
      <path d="M178.44,66.4h-3.91c.06.87.61,1.3,1.64,1.3a3.15,3.15,0,0,0,1.74-.47v1.34a4.51,4.51,0,0,1-2.16.44,3,3,0,0,1-2.25-.8,3,3,0,0,1-.81-2.25,3.23,3.23,0,0,1,.87-2.37,2.9,2.9,0,0,1,2.13-.87,2.6,2.6,0,0,1,2,.78,3,3,0,0,1,.72,2.12Zm-1.71-1.14q0-1.29-1-1.29a1,1,0,0,0-.77.37,1.58,1.58,0,0,0-.39.92Z" fill="#1e1e1e"/>
    </g>
    <g>
      <path d="M291.25,68.87h-2.17l-1.31-2.16a4.22,4.22,0,0,0-.28-.44,2.39,2.39,0,0,0-.27-.33,1,1,0,0,0-.29-.22.83.83,0,0,0-.32-.07h-.51v3.22h-1.89v-8.4h3c2,0,3.05.76,3.05,2.28a2.37,2.37,0,0,1-.13.81,2.33,2.33,0,0,1-.38.67,2.53,2.53,0,0,1-.6.52,3.16,3.16,0,0,1-.77.34v0a1.26,1.26,0,0,1,.36.19,2.45,2.45,0,0,1,.34.31,3.93,3.93,0,0,1,.31.38l.28.39Zm-5.15-7v2.34h.82a1.38,1.38,0,0,0,1-.35,1.17,1.17,0,0,0,.37-.89c0-.73-.44-1.1-1.32-1.1Z" fill="#1e1e1e"/>
      <path d="M296.94,68.87h-1.75V68h0a1.94,1.94,0,0,1-1.78,1,1.88,1.88,0,0,1-1.38-.49,1.79,1.79,0,0,1-.5-1.32c0-1.17.69-1.84,2.07-2L295.2,65c0-.66-.36-1-1.07-1a3.64,3.64,0,0,0-2,.64V63.23a4.62,4.62,0,0,1,1.06-.36,5.63,5.63,0,0,1,1.22-.15,2.27,2.27,0,0,1,2.57,2.56Zm-1.74-2.44V66l-1.09.14c-.6.07-.9.35-.9.81a.67.67,0,0,0,.22.52.84.84,0,0,0,.59.2,1.1,1.1,0,0,0,.85-.36A1.29,1.29,0,0,0,295.2,66.43Z" fill="#1e1e1e"/>
      <path d="M303.16,68.87h-5.39V68.1l3-3.87h-2.71V62.87h5.06v.91l-2.85,3.72h2.88Z" fill="#1e1e1e"/>
      <path d="M307,69a3.23,3.23,0,0,1-2.36-.84,3.47,3.47,0,0,1,0-4.61,3.38,3.38,0,0,1,2.41-.84,3.16,3.16,0,0,1,2.34.84,3,3,0,0,1,.85,2.23,3.19,3.19,0,0,1-.87,2.36A3.27,3.27,0,0,1,307,69Zm.05-4.87a1.23,1.23,0,0,0-1,.45,2,2,0,0,0-.37,1.28c0,1.15.47,1.73,1.4,1.73s1.33-.6,1.33-1.78S307.93,64.14,307,64.14Z" fill="#1e1e1e"/>
      <path d="M315.37,64.54a1.61,1.61,0,0,0-.78-.18,1.1,1.1,0,0,0-.94.44,1.88,1.88,0,0,0-.34,1.2v2.87h-1.85v-6h1.85V64h0a1.6,1.6,0,0,1,1.58-1.22,1.35,1.35,0,0,1,.46.07Z" fill="#1e1e1e"/>
      <path d="M321.62,66v2.9h-1.9v-8.4h3c2.12,0,3.17.89,3.17,2.67a2.55,2.55,0,0,1-.91,2,3.6,3.6,0,0,1-2.43.78Zm0-4v2.62h.74c1,0,1.51-.44,1.51-1.33s-.5-1.29-1.51-1.29Z" fill="#1e1e1e"/>
      <path d="M331.73,68.87H330V68h0a2,2,0,0,1-1.79,1,1.85,1.85,0,0,1-1.37-.49,1.76,1.76,0,0,1-.51-1.32c0-1.17.69-1.84,2.07-2L330,65c0-.66-.35-1-1.06-1a3.59,3.59,0,0,0-2,.64V63.23a4.52,4.52,0,0,1,1.05-.36,5.71,5.71,0,0,1,1.23-.15,2.26,2.26,0,0,1,2.56,2.56ZM330,66.43V66l-1.09.14c-.6.07-.9.35-.9.81a.67.67,0,0,0,.22.52.86.86,0,0,0,.59.2,1.08,1.08,0,0,0,.85-.36A1.29,1.29,0,0,0,330,66.43Z" fill="#1e1e1e"/>
      <path d="M339.11,68.18a3.37,3.37,0,0,1-1,2.59,3.92,3.92,0,0,1-2.8.92,4.42,4.42,0,0,1-1.92-.35V69.78a3.68,3.68,0,0,0,1.87.54,2,2,0,0,0,1.45-.49,1.76,1.76,0,0,0,.52-1.35V68h0a2.05,2.05,0,0,1-1.86,1,2.28,2.28,0,0,1-1.83-.8,3.29,3.29,0,0,1-.67-2.17,3.65,3.65,0,0,1,.75-2.42,2.44,2.44,0,0,1,2-.9,1.82,1.82,0,0,1,1.64.84h0v-.69h1.85ZM337.28,66v-.47a1.44,1.44,0,0,0-.34-1,1.06,1.06,0,0,0-.87-.4,1.15,1.15,0,0,0-1,.48,2.28,2.28,0,0,0-.35,1.35,1.93,1.93,0,0,0,.33,1.19,1.11,1.11,0,0,0,.92.44,1.14,1.14,0,0,0,.93-.45A1.83,1.83,0,0,0,337.28,66Z" fill="#1e1e1e"/>
      <path d="M346.06,66.4h-3.92c.07.87.61,1.3,1.65,1.3a3.15,3.15,0,0,0,1.74-.47v1.34a4.53,4.53,0,0,1-2.16.44,3,3,0,0,1-2.26-.8,3.08,3.08,0,0,1-.8-2.25,3.23,3.23,0,0,1,.87-2.37,2.88,2.88,0,0,1,2.13-.87,2.63,2.63,0,0,1,2,.78,3,3,0,0,1,.72,2.12Zm-1.72-1.14c0-.86-.35-1.29-1-1.29a1,1,0,0,0-.77.37,1.65,1.65,0,0,0-.4.92Z" fill="#1e1e1e"/>
      <path d="M346.91,68.71v-1.5a4.27,4.27,0,0,0,.91.41,3,3,0,0,0,.86.13,1.86,1.86,0,0,0,.78-.13.43.43,0,0,0,.28-.41.35.35,0,0,0-.13-.29,1,1,0,0,0-.33-.21,3.72,3.72,0,0,0-.44-.16c-.16,0-.31-.1-.46-.15a3.7,3.7,0,0,1-.63-.3,1.67,1.67,0,0,1-.46-.36,1.31,1.31,0,0,1-.28-.47,2,2,0,0,1-.1-.64,1.63,1.63,0,0,1,.81-1.46,2.64,2.64,0,0,1,.84-.34,4.46,4.46,0,0,1,1-.11,5.73,5.73,0,0,1,.81.06,5.88,5.88,0,0,1,.81.18v1.43a3,3,0,0,0-.76-.31,3.64,3.64,0,0,0-.79-.1,1.87,1.87,0,0,0-.34,0,1,1,0,0,0-.28.1.53.53,0,0,0-.2.16.38.38,0,0,0-.07.21.44.44,0,0,0,.11.29,1.18,1.18,0,0,0,.27.2,3.34,3.34,0,0,0,.38.15l.42.14a5,5,0,0,1,.66.28,2.18,2.18,0,0,1,.52.36,1.23,1.23,0,0,1,.32.48,1.6,1.6,0,0,1,.12.65,1.73,1.73,0,0,1-.23.91,1.84,1.84,0,0,1-.62.62,2.89,2.89,0,0,1-.88.35,5.1,5.1,0,0,1-1,.1A5.5,5.5,0,0,1,346.91,68.71Z" fill="#1e1e1e"/>
      <path d="M360.93,62h-3v2.06h2.72V65.6H358v3.27h-1.89v-8.4h4.85Z" fill="#1e1e1e"/>
      <path d="M363,61.92a1.07,1.07,0,0,1-.77-.28.9.9,0,0,1-.3-.68.85.85,0,0,1,.3-.68A1.11,1.11,0,0,1,363,60a1.1,1.1,0,0,1,.77.27.85.85,0,0,1,.3.68.89.89,0,0,1-.3.69A1.1,1.1,0,0,1,363,61.92Zm.92,7H362v-6h1.86Z" fill="#1e1e1e"/>
      <path d="M367.26,68.87h-1.85V60h1.85Z" fill="#1e1e1e"/>
      <path d="M372.4,68.8a2.78,2.78,0,0,1-1.23.21c-1.31,0-2-.67-2-2V64.23h-1V62.87h1v-1.3l1.84-.52v1.82h1.35v1.36h-1.35v2.43c0,.62.25.94.75.94a1.27,1.27,0,0,0,.6-.17Z" fill="#1e1e1e"/>
      <path d="M378.83,66.4h-3.92c.07.87.62,1.3,1.65,1.3a3.15,3.15,0,0,0,1.74-.47v1.34a4.51,4.51,0,0,1-2.16.44,3,3,0,0,1-2.26-.8,3.08,3.08,0,0,1-.8-2.25,3.23,3.23,0,0,1,.87-2.37,2.9,2.9,0,0,1,2.13-.87,2.62,2.62,0,0,1,2,.78,3,3,0,0,1,.72,2.12Zm-1.72-1.14c0-.86-.35-1.29-1-1.29a1,1,0,0,0-.77.37,1.65,1.65,0,0,0-.4.92Z" fill="#1e1e1e"/>
      <path d="M383.92,64.54a1.61,1.61,0,0,0-.78-.18,1.1,1.1,0,0,0-.94.44,1.88,1.88,0,0,0-.34,1.2v2.87H380v-6h1.85V64h0a1.6,1.6,0,0,1,1.58-1.22,1.35,1.35,0,0,1,.46.07Z" fill="#1e1e1e"/>
      <path d="M390,68.17h0v3.46h-1.85V62.87h1.85v.9h0a2.16,2.16,0,0,1,1.92-1.05,2.2,2.2,0,0,1,1.81.8,3.43,3.43,0,0,1,.63,2.18,3.73,3.73,0,0,1-.74,2.41,2.42,2.42,0,0,1-2,.9A1.87,1.87,0,0,1,390,68.17Zm-.06-2.46v.48a1.52,1.52,0,0,0,.33,1,1.06,1.06,0,0,0,.86.4,1.14,1.14,0,0,0,1-.49,2.32,2.32,0,0,0,.35-1.39c0-1-.41-1.58-1.23-1.58a1.15,1.15,0,0,0-.93.43A1.73,1.73,0,0,0,389.91,65.71Z" fill="#1e1e1e"/>
      <path d="M396.48,61.92a1.06,1.06,0,0,1-.77-.28.9.9,0,0,1-.3-.68.85.85,0,0,1,.3-.68,1.1,1.1,0,0,1,.77-.27,1.11,1.11,0,0,1,.77.27.88.88,0,0,1,.29.68.91.91,0,0,1-.29.69A1.11,1.11,0,0,1,396.48,61.92Zm.91,7h-1.85v-6h1.85Z" fill="#1e1e1e"/>
      <path d="M400.8,68.17h0v3.46h-1.85V62.87h1.85v.9h0a2.36,2.36,0,0,1,3.73-.25,3.37,3.37,0,0,1,.64,2.18,3.73,3.73,0,0,1-.74,2.41,2.43,2.43,0,0,1-2,.9A1.88,1.88,0,0,1,400.8,68.17Zm-.05-2.46v.48a1.52,1.52,0,0,0,.33,1,1,1,0,0,0,.86.4,1.15,1.15,0,0,0,1-.49,2.4,2.4,0,0,0,.35-1.39c0-1-.41-1.58-1.23-1.58a1.15,1.15,0,0,0-.93.43A1.73,1.73,0,0,0,400.75,65.71Z" fill="#1e1e1e"/>
      <path d="M411.81,66.4H407.9c.06.87.61,1.3,1.64,1.3a3.15,3.15,0,0,0,1.74-.47v1.34a4.51,4.51,0,0,1-2.16.44,3,3,0,0,1-2.26-.8,3.08,3.08,0,0,1-.8-2.25,3.23,3.23,0,0,1,.87-2.37,2.9,2.9,0,0,1,2.13-.87,2.62,2.62,0,0,1,2,.78,3,3,0,0,1,.72,2.12Zm-1.72-1.14c0-.86-.34-1.29-1-1.29a1,1,0,0,0-.77.37,1.65,1.65,0,0,0-.4.92Z" fill="#1e1e1e"/>
      <path d="M414.83,68.87H413V60h1.85Z" fill="#1e1e1e"/>
      <path d="M417.3,61.92a1.07,1.07,0,0,1-.77-.28.9.9,0,0,1-.3-.68.85.85,0,0,1,.3-.68,1.11,1.11,0,0,1,.77-.27,1.1,1.1,0,0,1,.77.27.85.85,0,0,1,.3.68.89.89,0,0,1-.3.69A1.1,1.1,0,0,1,417.3,61.92Zm.91,7h-1.85v-6h1.85Z" fill="#1e1e1e"/>
      <path d="M425.55,68.87H423.7V65.53c0-.93-.33-1.39-1-1.39a1,1,0,0,0-.8.37,1.44,1.44,0,0,0-.31.94v3.42h-1.85v-6h1.85v1h0a2.12,2.12,0,0,1,1.92-1.1c1.33,0,2,.83,2,2.47Z" fill="#1e1e1e"/>
      <path d="M432.43,66.4h-3.91c.06.87.61,1.3,1.64,1.3a3.15,3.15,0,0,0,1.74-.47v1.34a4.51,4.51,0,0,1-2.16.44,3,3,0,0,1-2.25-.8,3,3,0,0,1-.81-2.25,3.23,3.23,0,0,1,.87-2.37,2.9,2.9,0,0,1,2.13-.87,2.6,2.6,0,0,1,2,.78,3,3,0,0,1,.72,2.12Zm-1.72-1.14c0-.86-.34-1.29-1-1.29a1,1,0,0,0-.77.37,1.58,1.58,0,0,0-.39.92Z" fill="#1e1e1e"/>
    </g>
  </g>
</svg>
