<svg xmlns="http://www.w3.org/2000/svg" xmlns:xlink="http://www.w3.org/1999/xlink" viewBox="0 0 706.35 390">
  <defs>
    <symbol id="New_Symbol_125" data-name="New Symbol 125" viewBox="0 0 32 16">
      <path d="M31,8c0,3.85-3.6,7-8,7H9c-4.4,0-8-3.15-8-7S4.6,1,9,1H23C27.4,1,31,4.15,31,8Z" fill="#fff"/>
      <path d="M23,16H9c-5,0-9-3.59-9-8S4,0,9,0H23c5,0,9,3.59,9,8S28,16,23,16ZM9,2C5.14,2,2,4.69,2,8s3.14,6,7,6H23c3.86,0,7-2.69,7-6s-3.14-6-7-6Z" fill="#0072c6"/>
    </symbol>
  </defs>
  <g id="Shapes">
    <rect width="706.35" height="390" fill="#fff"/>
    <g>
      <rect x="376.35" y="287.58" width="215" height="85" fill="#fff"/>
      <rect x="376.35" y="287.58" width="215" height="85" fill="#3c3c41" opacity="0.05"/>
      <rect x="376.35" y="287.58" width="215" height="85" fill="none" stroke="#3c3c41" stroke-miterlimit="10" stroke-width="0.25"/>
    </g>
    <use width="32" height="16" transform="translate(73.58 22.58)" xlink:href="#New_Symbol_125"/>
    <g>
      <path d="M47.15,70.41c0,3.85-3.6,7-8,7h-14c-4.4,0-8-3.15-8-7s3.6-7,8-7h14C43.55,63.41,47.15,66.56,47.15,70.41Z" fill="#fff"/>
      <path d="M39.15,78.41h-14c-5,0-9-3.59-9-8s4-8,9-8h14c5,0,9,3.59,9,8S44.11,78.41,39.15,78.41Zm-14-14c-3.86,0-7,2.69-7,6s3.14,6,7,6h14c3.86,0,7-2.69,7-6s-3.14-6-7-6Z" fill="#76bc2d"/>
    </g>
    <g>
      <rect x="79.78" y="57.58" width="110" height="25" fill="#fff"/>
      <rect x="79.78" y="57.58" width="110" height="25" fill="#5ea0ef" opacity="0.5"/>
    </g>
    <g>
      <line x1="89.78" y1="39.15" x2="89.78" y2="52.2" fill="none" stroke="#005ba1" stroke-miterlimit="10"/>
      <polygon points="86.04 51.1 89.78 57.58 93.52 51.1 86.04 51.1" fill="#005ba1"/>
    </g>
    <g>
      <rect x="104.78" y="97.58" width="110" height="25" fill="#fff"/>
      <rect x="104.78" y="97.58" width="110" height="25" fill="#5ea0ef" opacity="0.5"/>
    </g>
    <g>
      <line x1="114.78" y1="82.89" x2="114.78" y2="91.94" fill="none" stroke="#005ba1" stroke-miterlimit="10"/>
      <polygon points="111.04 90.85 114.78 97.33 118.52 90.85 111.04 90.85" fill="#005ba1"/>
    </g>
    <g>
      <line x1="79.78" y1="70.41" x2="50.91" y2="70.41" fill="none" stroke="#4f4f4f" stroke-miterlimit="10"/>
      <path d="M57.06,66.09a.44.44,0,0,1-.13.62l-5.81,3.7,5.81,3.7a.44.44,0,0,1,.13.62.45.45,0,0,1-.62.14L50,70.79a.44.44,0,0,1-.21-.38A.47.47,0,0,1,50,70L56.44,66a.55.55,0,0,1,.24-.07A.45.45,0,0,1,57.06,66.09Z" fill="#4f4f4f"/>
    </g>
    <g>
      <rect x="129.78" y="137.27" width="110" height="25" fill="#fff"/>
      <rect x="129.78" y="137.27" width="110" height="25" fill="#5ea0ef" opacity="0.5"/>
    </g>
    <g>
      <line x1="139.78" y1="122.58" x2="139.78" y2="131.63" fill="none" stroke="#005ba1" stroke-miterlimit="10"/>
      <polygon points="136.04 130.53 139.78 137.01 143.52 130.53 136.04 130.53" fill="#005ba1"/>
    </g>
    <g>
      <path d="M129.78,148.93h-10a5,5,0,0,1-5-5V123.68" fill="none" stroke="#4f4f4f" stroke-miterlimit="10"/>
      <path d="M119.09,129.83a.45.45,0,0,1-.62-.14l-3.7-5.8-3.69,5.8a.47.47,0,0,1-.63.14.45.45,0,0,1-.13-.62l4.07-6.4a.47.47,0,0,1,.38-.21.44.44,0,0,1,.38.21l4.08,6.4a.42.42,0,0,1,.07.24A.43.43,0,0,1,119.09,129.83Z" fill="#4f4f4f"/>
    </g>
    <g>
      <path d="M104.35,108.93h-10a5,5,0,0,1-5-5V83.68" fill="none" stroke="#4f4f4f" stroke-miterlimit="10"/>
      <path d="M93.67,89.83a.45.45,0,0,1-.62-.14l-3.7-5.8-3.7,5.8a.45.45,0,1,1-.76-.48L89,82.81a.45.45,0,0,1,.76,0l4.08,6.4a.42.42,0,0,1,.07.24A.45.45,0,0,1,93.67,89.83Z" fill="#4f4f4f"/>
    </g>
    <g>
      <rect x="154.78" y="177.58" width="110" height="25" fill="#fff"/>
      <rect x="154.78" y="177.58" width="110" height="25" fill="#5ea0ef" opacity="0.5"/>
    </g>
    <g>
      <line x1="164.78" y1="162.89" x2="164.78" y2="171.94" fill="none" stroke="#005ba1" stroke-miterlimit="10"/>
      <polygon points="161.04 170.85 164.78 177.32 168.52 170.85 161.04 170.85" fill="#005ba1"/>
    </g>
    <g>
      <path d="M154.78,189.24h-10a5,5,0,0,1-5-5V164" fill="none" stroke="#4f4f4f" stroke-miterlimit="10"/>
      <path d="M144.09,170.15a.45.45,0,0,1-.62-.14l-3.7-5.81L136.08,170a.45.45,0,1,1-.76-.49l4.07-6.4a.47.47,0,0,1,.38-.21.44.44,0,0,1,.38.21l4.08,6.4a.46.46,0,0,1-.14.63Z" fill="#4f4f4f"/>
    </g>
    <g>
      <rect x="179.78" y="217.27" width="110" height="25" fill="#fff"/>
      <rect x="179.78" y="217.27" width="110" height="25" fill="#5ea0ef" opacity="0.5"/>
    </g>
    <g>
      <line x1="189.78" y1="202.58" x2="189.78" y2="211.63" fill="none" stroke="#005ba1" stroke-miterlimit="10"/>
      <polygon points="186.04 210.53 189.78 217.01 193.52 210.53 186.04 210.53" fill="#005ba1"/>
    </g>
    <g>
      <path d="M179.78,228.93h-10a5,5,0,0,1-5-5V203.68" fill="none" stroke="#4f4f4f" stroke-miterlimit="10"/>
      <path d="M169.09,209.83a.45.45,0,0,1-.62-.14l-3.7-5.8-3.69,5.8a.47.47,0,0,1-.63.14.45.45,0,0,1-.13-.62l4.07-6.4a.47.47,0,0,1,.38-.21.44.44,0,0,1,.38.21l4.08,6.4a.42.42,0,0,1,.07.24A.43.43,0,0,1,169.09,209.83Z" fill="#4f4f4f"/>
    </g>
    <g>
      <rect x="204.78" y="257.58" width="110" height="25" fill="#fff"/>
      <rect x="204.78" y="257.58" width="110" height="25" fill="#5ea0ef" opacity="0.5"/>
    </g>
    <g>
      <line x1="214.78" y1="242.89" x2="214.78" y2="251.94" fill="none" stroke="#005ba1" stroke-miterlimit="10"/>
      <polygon points="211.04 250.85 214.78 257.32 218.52 250.85 211.04 250.85" fill="#005ba1"/>
    </g>
    <g>
      <path d="M204.78,269.24h-10a5,5,0,0,1-5-5V244" fill="none" stroke="#4f4f4f" stroke-miterlimit="10"/>
      <path d="M194.09,250.15a.45.45,0,0,1-.62-.14l-3.7-5.81L186.08,250a.45.45,0,1,1-.76-.49l4.07-6.4a.47.47,0,0,1,.38-.21.44.44,0,0,1,.38.21l4.08,6.4a.46.46,0,0,1-.14.63Z" fill="#4f4f4f"/>
    </g>
    <g>
      <rect x="229.78" y="297.89" width="110" height="25" fill="#fff"/>
      <rect x="229.78" y="297.89" width="110" height="25" fill="#5ea0ef" opacity="0.5"/>
    </g>
    <g>
      <line x1="239.78" y1="283.21" x2="239.78" y2="292.26" fill="none" stroke="#005ba1" stroke-miterlimit="10"/>
      <polygon points="236.04 291.16 239.78 297.64 243.52 291.16 236.04 291.16" fill="#005ba1"/>
    </g>
    <g>
      <path d="M229.78,309.55h-10a5,5,0,0,1-5-5V284.31" fill="none" stroke="#4f4f4f" stroke-miterlimit="10"/>
      <path d="M219.09,290.46a.45.45,0,0,1-.62-.14l-3.7-5.81-3.69,5.81a.47.47,0,0,1-.63.14.45.45,0,0,1-.13-.62l4.07-6.4a.47.47,0,0,1,.38-.21.44.44,0,0,1,.38.21l4.08,6.4a.42.42,0,0,1,.07.24A.44.44,0,0,1,219.09,290.46Z" fill="#4f4f4f"/>
    </g>
    <g>
      <rect x="254.78" y="337.58" width="110" height="25" fill="#fff"/>
      <rect x="254.78" y="337.58" width="110" height="25" fill="#5ea0ef" opacity="0.5"/>
    </g>
    <g>
      <rect x="386.35" y="337.08" width="90" height="25.5" fill="#fff"/>
      <rect x="386.35" y="337.08" width="90" height="25.5" fill="#5ea0ef" opacity="0.5"/>
    </g>
    <g>
      <rect x="491.35" y="337.08" width="90" height="25.5" fill="#fff"/>
      <rect x="491.35" y="337.08" width="90" height="25.5" fill="#5ea0ef" opacity="0.5"/>
    </g>
    <g>
      <rect x="606.35" y="337.08" width="90" height="25.5" fill="#fff"/>
      <rect x="606.35" y="337.08" width="90" height="25.5" fill="#5ea0ef" opacity="0.5"/>
    </g>
    <g>
      <line x1="264.78" y1="322.89" x2="264.78" y2="331.94" fill="none" stroke="#005ba1" stroke-miterlimit="10"/>
      <polygon points="261.04 330.85 264.78 337.32 268.52 330.85 261.04 330.85" fill="#005ba1"/>
    </g>
    <g>
      <line x1="476.92" y1="349.24" x2="485.97" y2="349.24" fill="none" stroke="#005ba1" stroke-miterlimit="10"/>
      <polygon points="484.87 352.98 491.35 349.24 484.87 345.5 484.87 352.98" fill="#005ba1"/>
    </g>
    <g>
      <line x1="364.78" y1="349.24" x2="380.97" y2="349.24" fill="none" stroke="#005ba1" stroke-miterlimit="10"/>
      <polygon points="379.87 352.98 386.35 349.24 379.87 345.5 379.87 352.98" fill="#005ba1"/>
    </g>
    <g>
      <line x1="581.35" y1="349.24" x2="600.97" y2="349.24" fill="none" stroke="#005ba1" stroke-miterlimit="10"/>
      <polygon points="599.87 352.98 606.35 349.24 599.87 345.5 599.87 352.98" fill="#005ba1"/>
    </g>
    <g>
      <path d="M254.78,349.24h-10a5,5,0,0,1-5-5V324" fill="none" stroke="#4f4f4f" stroke-miterlimit="10"/>
      <path d="M244.09,330.15a.45.45,0,0,1-.62-.14l-3.7-5.81L236.08,330a.45.45,0,1,1-.76-.49l4.07-6.4a.47.47,0,0,1,.38-.21.44.44,0,0,1,.38.21l4.08,6.4a.46.46,0,0,1-.14.63Z" fill="#4f4f4f"/>
    </g>
    <g>
      <path d="M432.92,362.58v15a5,5,0,0,1-5,5H269.78a5,5,0,0,1-5-5V362.33" fill="none" stroke="#4f4f4f" stroke-miterlimit="10"/>
      <path d="M269.1,368.48a.45.45,0,0,1-.63-.13l-3.69-5.81-3.7,5.81a.44.44,0,0,1-.62.13.45.45,0,0,1-.14-.62l4.08-6.4a.44.44,0,0,1,.38-.21.47.47,0,0,1,.38.21l4.07,6.4a.46.46,0,0,1-.13.62Z" fill="#4f4f4f"/>
    </g>
    <g>
      <path d="M656.35,362.08v15.5a5,5,0,0,1-5,5h-110a5,5,0,0,1-5-5V362.33" fill="none" stroke="#4f4f4f" stroke-miterlimit="10"/>
      <path d="M540.67,368.48a.44.44,0,0,1-.62-.13l-3.7-5.81-3.7,5.81a.44.44,0,0,1-.62.13.45.45,0,0,1-.14-.62l4.08-6.4a.45.45,0,0,1,.76,0l4.08,6.4a.44.44,0,0,1,.07.24A.45.45,0,0,1,540.67,368.48Z" fill="#4f4f4f"/>
    </g>
    <g>
      <path d="M536.35,337.58v-10a5,5,0,0,0-5-5H437.92a5,5,0,0,0-5,5v8.92" fill="none" stroke="#4f4f4f" stroke-miterlimit="10"/>
      <path d="M428.6,330.35a.45.45,0,0,1,.63.13l3.69,5.81,3.7-5.81a.44.44,0,0,1,.62-.13.45.45,0,0,1,.14.62l-4.08,6.4a.44.44,0,0,1-.38.21.47.47,0,0,1-.38-.21l-4.07-6.4a.46.46,0,0,1,.13-.62Z" fill="#4f4f4f"/>
    </g>
  </g>
  <g id="Text">
    <g>
      <path d="M75.51,16.47H74.34l-1.41-2.35a5,5,0,0,0-.37-.56,2.27,2.27,0,0,0-.38-.38,1.07,1.07,0,0,0-.41-.21,1.49,1.49,0,0,0-.49-.07h-.81v3.57h-1V8.07H72a3.64,3.64,0,0,1,1,.14,2.23,2.23,0,0,1,.81.42,1.84,1.84,0,0,1,.53.7,2.28,2.28,0,0,1,.2,1,2.53,2.53,0,0,1-.13.8,2.15,2.15,0,0,1-.38.66,2.37,2.37,0,0,1-.59.49,2.82,2.82,0,0,1-.77.31v0a2.13,2.13,0,0,1,.37.22,2.56,2.56,0,0,1,.3.28c.09.11.18.24.27.37s.2.3.31.49ZM70.47,9v3h1.34a2.15,2.15,0,0,0,.68-.11,1.61,1.61,0,0,0,.54-.32,1.57,1.57,0,0,0,.36-.51,1.83,1.83,0,0,0,.13-.68,1.32,1.32,0,0,0-.44-1.05A1.88,1.88,0,0,0,71.82,9Z" fill="#1e1e1e"/>
      <path d="M81,13.71H76.77a2.19,2.19,0,0,0,.54,1.55,1.86,1.86,0,0,0,1.42.55,3,3,0,0,0,1.86-.67V16a3.52,3.52,0,0,1-2.09.57,2.54,2.54,0,0,1-2-.81,3.33,3.33,0,0,1-.73-2.3,3.29,3.29,0,0,1,.8-2.29,2.56,2.56,0,0,1,2-.88,2.28,2.28,0,0,1,1.82.76A3.19,3.19,0,0,1,81,13.21Zm-1-.81a2,2,0,0,0-.4-1.3,1.4,1.4,0,0,0-1.1-.46,1.52,1.52,0,0,0-1.15.49,2.16,2.16,0,0,0-.59,1.27Z" fill="#1e1e1e"/>
      <path d="M87.58,19.23h-1V15.44h0a2.14,2.14,0,0,1-2,1.17,2.25,2.25,0,0,1-1.81-.8,3.27,3.27,0,0,1-.68-2.2,3.57,3.57,0,0,1,.75-2.38,2.48,2.48,0,0,1,2-.9,1.89,1.89,0,0,1,1.78,1h0v-.84h1Zm-1-5.46V12.9a1.73,1.73,0,0,0-.49-1.25,1.61,1.61,0,0,0-1.22-.51,1.66,1.66,0,0,0-1.37.64A2.85,2.85,0,0,0,83,13.59a2.48,2.48,0,0,0,.49,1.63,1.55,1.55,0,0,0,1.25.59,1.73,1.73,0,0,0,1.35-.58A2.17,2.17,0,0,0,86.62,13.77Z" fill="#1e1e1e"/>
      <path d="M94.38,16.47h-1v-.95h0a2,2,0,0,1-1.85,1.09c-1.43,0-2.14-.85-2.14-2.55V10.47h.95v3.44c0,1.26.48,1.9,1.45,1.9A1.49,1.49,0,0,0,93,15.29a2,2,0,0,0,.45-1.36V10.47h1Z" fill="#1e1e1e"/>
      <path d="M101.14,13.71H96.9a2.28,2.28,0,0,0,.54,1.55,1.87,1.87,0,0,0,1.42.55,3,3,0,0,0,1.86-.67V16a3.5,3.5,0,0,1-2.09.57,2.56,2.56,0,0,1-2-.81,3.37,3.37,0,0,1-.73-2.3,3.29,3.29,0,0,1,.8-2.29,2.58,2.58,0,0,1,2-.88,2.27,2.27,0,0,1,1.82.76,3.2,3.2,0,0,1,.65,2.12Zm-1-.81a1.91,1.91,0,0,0-.4-1.3,1.39,1.39,0,0,0-1.1-.46,1.52,1.52,0,0,0-1.15.49,2.22,2.22,0,0,0-.59,1.27Z" fill="#1e1e1e"/>
      <path d="M102.23,16.26v-1a2.88,2.88,0,0,0,1.73.58c.84,0,1.26-.29,1.26-.85a.7.7,0,0,0-.11-.41,1,1,0,0,0-.29-.29,2.18,2.18,0,0,0-.43-.23l-.54-.22a5.16,5.16,0,0,1-.7-.32,1.74,1.74,0,0,1-.5-.36,1.29,1.29,0,0,1-.31-.46,1.57,1.57,0,0,1-.1-.6,1.44,1.44,0,0,1,.19-.75,1.58,1.58,0,0,1,.52-.54,2.45,2.45,0,0,1,.73-.34,3.49,3.49,0,0,1,.86-.11,3.41,3.41,0,0,1,1.39.27v1a2.78,2.78,0,0,0-1.52-.43,1.83,1.83,0,0,0-.49.06,1.06,1.06,0,0,0-.37.18.66.66,0,0,0-.24.26.7.7,0,0,0-.09.35.8.8,0,0,0,.09.39.82.82,0,0,0,.25.28,1.67,1.67,0,0,0,.4.22l.53.22a6.85,6.85,0,0,1,.71.31,2.44,2.44,0,0,1,.54.37,1.41,1.41,0,0,1,.35.46,1.54,1.54,0,0,1,.12.63,1.5,1.5,0,0,1-.2.77,1.74,1.74,0,0,1-.53.55,2.43,2.43,0,0,1-.75.32,3.76,3.76,0,0,1-.9.1A3.49,3.49,0,0,1,102.23,16.26Z" fill="#1e1e1e"/>
      <path d="M110.47,16.41a1.82,1.82,0,0,1-.9.19c-1,0-1.58-.58-1.58-1.76V11.29h-1v-.82h1V9l1-.31v1.77h1.52v.82H109v3.38a1.41,1.41,0,0,0,.21.87.82.82,0,0,0,.68.25,1,1,0,0,0,.63-.2Z" fill="#1e1e1e"/>
    </g>
    <g>
      <path d="M14.05,55.66H12.88L11.47,53.3a4.53,4.53,0,0,0-.37-.56,2.15,2.15,0,0,0-.37-.37,1.49,1.49,0,0,0-.41-.22,1.89,1.89,0,0,0-.5-.07H9v3.58H8v-8.4h2.51a3.63,3.63,0,0,1,1,.13,2.59,2.59,0,0,1,.81.42,2,2,0,0,1,.54.7A2.61,2.61,0,0,1,13,50.3a2,2,0,0,1-.38.65,2.13,2.13,0,0,1-.58.49,3.12,3.12,0,0,1-.77.32v0a1.55,1.55,0,0,1,.36.21,1.64,1.64,0,0,1,.3.29,4,4,0,0,1,.28.37l.31.48ZM9,48.15v3h1.34a1.87,1.87,0,0,0,.68-.11,1.46,1.46,0,0,0,.54-.32,1.32,1.32,0,0,0,.36-.51,1.6,1.6,0,0,0,.13-.67,1.35,1.35,0,0,0-.44-1.06,1.88,1.88,0,0,0-1.26-.37Z" fill="#1e1e1e"/>
      <path d="M19.55,52.9H15.31a2.3,2.3,0,0,0,.54,1.55,1.87,1.87,0,0,0,1.42.54,2.91,2.91,0,0,0,1.86-.67v.9A3.43,3.43,0,0,1,17,55.8,2.53,2.53,0,0,1,15,55a3.35,3.35,0,0,1-.72-2.3,3.28,3.28,0,0,1,.79-2.28,2.54,2.54,0,0,1,2-.88,2.24,2.24,0,0,1,1.82.76,3.17,3.17,0,0,1,.65,2.11Zm-1-.82a1.9,1.9,0,0,0-.4-1.29,1.36,1.36,0,0,0-1.1-.46,1.56,1.56,0,0,0-1.15.48,2.25,2.25,0,0,0-.59,1.27Z" fill="#1e1e1e"/>
      <path d="M20.64,55.44v-1a2.82,2.82,0,0,0,1.73.58q1.26,0,1.26-.84a.68.68,0,0,0-.11-.41,1.17,1.17,0,0,0-.29-.3,2.86,2.86,0,0,0-.43-.23L22.26,53c-.26-.11-.5-.21-.7-.32a2.22,2.22,0,0,1-.5-.36,1.38,1.38,0,0,1-.31-.46,1.66,1.66,0,0,1-.1-.61,1.38,1.38,0,0,1,.19-.74,1.7,1.7,0,0,1,.52-.55,2.21,2.21,0,0,1,.73-.33,3.07,3.07,0,0,1,.86-.11,3.41,3.41,0,0,1,1.39.27v1a2.7,2.7,0,0,0-1.52-.43,1.88,1.88,0,0,0-.49.06,1.26,1.26,0,0,0-.37.17.78.78,0,0,0-.24.27.67.67,0,0,0-.09.34.75.75,0,0,0,.09.39.83.83,0,0,0,.25.28,1.68,1.68,0,0,0,.4.23l.53.21a6,6,0,0,1,.71.32,2,2,0,0,1,.54.36,1.35,1.35,0,0,1,.35.47,1.46,1.46,0,0,1,.12.62,1.51,1.51,0,0,1-.2.78,1.68,1.68,0,0,1-.52.54,2.26,2.26,0,0,1-.76.32,3.76,3.76,0,0,1-.9.11A3.37,3.37,0,0,1,20.64,55.44Z" fill="#1e1e1e"/>
      <path d="M27.08,54.79h0v3.63h-1V49.66h1v1.05h0a2.27,2.27,0,0,1,2.07-1.19,2.2,2.2,0,0,1,1.81.8,3.31,3.31,0,0,1,.65,2.16,3.69,3.69,0,0,1-.73,2.41,2.43,2.43,0,0,1-2,.91A2,2,0,0,1,27.08,54.79Zm0-2.42v.84a1.78,1.78,0,0,0,.49,1.26,1.72,1.72,0,0,0,2.59-.15,3,3,0,0,0,.5-1.86,2.49,2.49,0,0,0-.46-1.57,1.56,1.56,0,0,0-1.26-.56,1.7,1.7,0,0,0-1.35.58A2.15,2.15,0,0,0,27.05,52.37Z" fill="#1e1e1e"/>
      <path d="M35.66,55.8A2.79,2.79,0,0,1,33.53,55a3.12,3.12,0,0,1-.79-2.23,3.23,3.23,0,0,1,.82-2.36,3,3,0,0,1,2.24-.85,2.68,2.68,0,0,1,2.09.82,3.29,3.29,0,0,1,.75,2.29,3.21,3.21,0,0,1-.81,2.3A2.82,2.82,0,0,1,35.66,55.8Zm.07-5.47a1.84,1.84,0,0,0-1.47.63,2.58,2.58,0,0,0-.54,1.73,2.46,2.46,0,0,0,.55,1.69,1.85,1.85,0,0,0,1.46.61,1.77,1.77,0,0,0,1.43-.6,3.23,3.23,0,0,0,0-3.45A1.74,1.74,0,0,0,35.73,50.33Z" fill="#1e1e1e"/>
      <path d="M45.16,55.66h-1V52.24c0-1.28-.47-1.91-1.4-1.91a1.52,1.52,0,0,0-1.19.54,2,2,0,0,0-.47,1.37v3.42h-1v-6h1v1h0a2.18,2.18,0,0,1,2-1.13,1.85,1.85,0,0,1,1.51.63A2.84,2.84,0,0,1,45.16,52Z" fill="#1e1e1e"/>
      <path d="M46.61,55.44v-1a2.82,2.82,0,0,0,1.73.58q1.26,0,1.26-.84a.76.76,0,0,0-.11-.41,1.17,1.17,0,0,0-.29-.3,2.86,2.86,0,0,0-.43-.23L48.23,53a6.76,6.76,0,0,1-.7-.32,2.22,2.22,0,0,1-.5-.36,1.38,1.38,0,0,1-.31-.46,1.66,1.66,0,0,1-.1-.61,1.38,1.38,0,0,1,.19-.74,1.7,1.7,0,0,1,.52-.55,2.21,2.21,0,0,1,.73-.33,3.07,3.07,0,0,1,.86-.11,3.41,3.41,0,0,1,1.39.27v1a2.7,2.7,0,0,0-1.52-.43,1.83,1.83,0,0,0-.49.06,1.26,1.26,0,0,0-.37.17.62.62,0,0,0-.24.27.67.67,0,0,0-.09.34.75.75,0,0,0,.09.39.74.74,0,0,0,.25.28,1.68,1.68,0,0,0,.4.23l.53.21a6.81,6.81,0,0,1,.71.32,2.42,2.42,0,0,1,.54.36,1.35,1.35,0,0,1,.35.47,1.46,1.46,0,0,1,.12.62,1.51,1.51,0,0,1-.2.78,1.61,1.61,0,0,1-.53.54,2.21,2.21,0,0,1-.75.32,3.82,3.82,0,0,1-.9.11A3.37,3.37,0,0,1,46.61,55.44Z" fill="#1e1e1e"/>
      <path d="M56.88,52.9H52.65a2.21,2.21,0,0,0,.54,1.55A1.85,1.85,0,0,0,54.6,55a2.94,2.94,0,0,0,1.87-.67v.9a3.45,3.45,0,0,1-2.09.58,2.52,2.52,0,0,1-2-.82,3.81,3.81,0,0,1,.07-4.58,2.53,2.53,0,0,1,2-.88,2.25,2.25,0,0,1,1.82.76,3.17,3.17,0,0,1,.64,2.11Zm-1-.82a2,2,0,0,0-.4-1.29,1.37,1.37,0,0,0-1.1-.46,1.55,1.55,0,0,0-1.15.48,2.19,2.19,0,0,0-.59,1.27Z" fill="#1e1e1e"/>
    </g>
    <g>
      <path d="M93.79,74.58H89.34v-8.4H93.6v.89H90.32v2.79h3v.89h-3v2.94h3.47Z" fill="#1e1e1e"/>
      <path d="M99.66,68.58l-2,3,2,3H98.51l-1.18-2c-.08-.12-.16-.27-.27-.45h0l-.27.45-1.21,2h-1.1l2-2.94-2-3.06h1.11l1.16,2c.09.15.17.31.26.47h0l1.5-2.52Z" fill="#1e1e1e"/>
      <path d="M104.88,74.3a3.14,3.14,0,0,1-1.65.42,2.72,2.72,0,0,1-2.07-.84,3,3,0,0,1-.78-2.16,3.3,3.3,0,0,1,.85-2.38,3,3,0,0,1,2.26-.9,3.27,3.27,0,0,1,1.4.29v1a2.4,2.4,0,0,0-1.43-.47,1.92,1.92,0,0,0-1.51.66,2.5,2.5,0,0,0-.59,1.73,2.36,2.36,0,0,0,.55,1.66,1.91,1.91,0,0,0,1.49.61,2.43,2.43,0,0,0,1.48-.52Z" fill="#1e1e1e"/>
      <path d="M111.15,71.82h-4.24a2.3,2.3,0,0,0,.54,1.55,1.88,1.88,0,0,0,1.42.54,2.89,2.89,0,0,0,1.86-.67v.91a3.47,3.47,0,0,1-2.09.57,2.51,2.51,0,0,1-2-.82,3.83,3.83,0,0,1,.06-4.58,2.54,2.54,0,0,1,2-.88,2.26,2.26,0,0,1,1.83.76,3.18,3.18,0,0,1,.64,2.12Zm-1-.81a2,2,0,0,0-.4-1.3,1.37,1.37,0,0,0-1.1-.46,1.57,1.57,0,0,0-1.16.48,2.24,2.24,0,0,0-.58,1.28Z" fill="#1e1e1e"/>
      <path d="M113.59,73.71h0v3.63h-1V68.58h1v1h0a2.27,2.27,0,0,1,2.07-1.19,2.2,2.2,0,0,1,1.81.8,3.31,3.31,0,0,1,.65,2.16,3.69,3.69,0,0,1-.73,2.41,2.43,2.43,0,0,1-2,.91A2,2,0,0,1,113.59,73.71Zm0-2.42v.84a1.78,1.78,0,0,0,.49,1.26,1.72,1.72,0,0,0,2.59-.15,3,3,0,0,0,.5-1.85,2.45,2.45,0,0,0-.46-1.57,1.54,1.54,0,0,0-1.26-.57,1.7,1.7,0,0,0-1.35.58A2.15,2.15,0,0,0,113.56,71.29Z" fill="#1e1e1e"/>
      <path d="M122.44,74.52a1.76,1.76,0,0,1-.89.19c-1.06,0-1.58-.59-1.58-1.76V69.4h-1v-.82h1V67.11l1-.31v1.78h1.51v.82h-1.51v3.38a1.37,1.37,0,0,0,.21.86.8.8,0,0,0,.67.26,1,1,0,0,0,.63-.2Z" fill="#1e1e1e"/>
      <path d="M124.22,67.06a.6.6,0,0,1-.44-.18.61.61,0,0,1-.18-.45.61.61,0,0,1,.62-.62.64.64,0,0,1,.45.18.6.6,0,0,1,.18.44.59.59,0,0,1-.18.44A.61.61,0,0,1,124.22,67.06Zm.47,7.52h-1v-6h1Z" fill="#1e1e1e"/>
      <path d="M129.14,74.72a2.76,2.76,0,0,1-2.12-.84,3.11,3.11,0,0,1-.8-2.23,3.23,3.23,0,0,1,.83-2.36,3,3,0,0,1,2.23-.85,2.68,2.68,0,0,1,2.09.82,3.76,3.76,0,0,1-.05,4.6A2.88,2.88,0,0,1,129.14,74.72Zm.07-5.47a1.84,1.84,0,0,0-1.47.63,2.63,2.63,0,0,0-.53,1.73,2.47,2.47,0,0,0,.54,1.69,1.85,1.85,0,0,0,1.46.61,1.75,1.75,0,0,0,1.43-.6,3.23,3.23,0,0,0,0-3.45A1.73,1.73,0,0,0,129.21,69.25Z" fill="#1e1e1e"/>
      <path d="M138.64,74.58h-1V71.16c0-1.28-.46-1.91-1.39-1.91a1.5,1.5,0,0,0-1.19.54,2,2,0,0,0-.48,1.37v3.42h-1v-6h1v1h0a2.16,2.16,0,0,1,2-1.14,1.84,1.84,0,0,1,1.5.63,2.84,2.84,0,0,1,.52,1.84Z" fill="#1e1e1e"/>
      <path d="M146.9,74.58h-1V70.75h-4.34v3.83h-1v-8.4h1v3.68h4.34V66.18h1Z" fill="#1e1e1e"/>
      <path d="M153.27,74.58h-1v-.94h0a2.2,2.2,0,0,1-3.25.61,1.68,1.68,0,0,1-.5-1.26c0-1.13.66-1.78,2-2l1.8-.25c0-1-.41-1.53-1.24-1.53a2.94,2.94,0,0,0-2,.74V69a3.76,3.76,0,0,1,2-.56c1.41,0,2.12.74,2.12,2.24Zm-1-3-1.45.2a2.59,2.59,0,0,0-1,.33,1,1,0,0,0-.34.85.9.9,0,0,0,.32.71,1.16,1.16,0,0,0,.83.28,1.55,1.55,0,0,0,1.18-.5,1.8,1.8,0,0,0,.47-1.27Z" fill="#1e1e1e"/>
      <path d="M160.06,74.58h-1V71.16c0-1.28-.47-1.91-1.4-1.91a1.52,1.52,0,0,0-1.19.54,2,2,0,0,0-.47,1.37v3.42h-1v-6h1v1h0a2.17,2.17,0,0,1,2-1.14,1.85,1.85,0,0,1,1.51.63,2.84,2.84,0,0,1,.52,1.84Z" fill="#1e1e1e"/>
      <path d="M167,74.58h-1v-1h0a2.42,2.42,0,0,1-3.87.35,3.28,3.28,0,0,1-.68-2.19,3.57,3.57,0,0,1,.75-2.38,2.48,2.48,0,0,1,2-.9,1.93,1.93,0,0,1,1.8,1h0V65.7h1Zm-1-2.71V71a1.73,1.73,0,0,0-.48-1.23,1.78,1.78,0,0,0-2.6.14,2.81,2.81,0,0,0-.51,1.78,2.51,2.51,0,0,0,.49,1.64,1.57,1.57,0,0,0,1.3.6,1.64,1.64,0,0,0,1.3-.58A2.17,2.17,0,0,0,166,71.87Z" fill="#1e1e1e"/>
      <path d="M169.9,74.58h-1V65.7h1Z" fill="#1e1e1e"/>
      <path d="M176.66,71.82h-4.23a2.21,2.21,0,0,0,.54,1.55,1.85,1.85,0,0,0,1.42.54,2.93,2.93,0,0,0,1.86-.67v.91a3.52,3.52,0,0,1-2.09.57,2.52,2.52,0,0,1-2-.82,3.81,3.81,0,0,1,.07-4.58,2.53,2.53,0,0,1,2-.88,2.25,2.25,0,0,1,1.82.76,3.18,3.18,0,0,1,.64,2.12Zm-1-.81a2,2,0,0,0-.4-1.3,1.36,1.36,0,0,0-1.1-.46,1.55,1.55,0,0,0-1.15.48,2.19,2.19,0,0,0-.59,1.28Z" fill="#1e1e1e"/>
      <path d="M181.25,69.55a1.18,1.18,0,0,0-.73-.19,1.23,1.23,0,0,0-1,.58,2.72,2.72,0,0,0-.41,1.58v3.06h-1v-6h1v1.24h0a2.07,2.07,0,0,1,.63-1,1.4,1.4,0,0,1,.94-.36,1.5,1.5,0,0,1,.58.09Z" fill="#1e1e1e"/>
    </g>
    <g>
      <path d="M153.53,113.58h-1v-3.83H148.2v3.83h-1v-8.4h1v3.68h4.35v-3.68h1Z" fill="#1e1e1e"/>
      <path d="M155.34,113.24v-1.16a2.86,2.86,0,0,0,.48.32,3.8,3.8,0,0,0,.59.23,3.39,3.39,0,0,0,.61.15,3.09,3.09,0,0,0,.58.06,2.31,2.31,0,0,0,1.36-.34,1.17,1.17,0,0,0,.44-1,1.1,1.1,0,0,0-.15-.59,1.6,1.6,0,0,0-.41-.46,3.91,3.91,0,0,0-.62-.4l-.78-.4c-.29-.15-.57-.3-.82-.45a3.85,3.85,0,0,1-.66-.51,2,2,0,0,1-.35-2.44,2.1,2.1,0,0,1,.66-.7,3,3,0,0,1,.93-.41,4.29,4.29,0,0,1,1.07-.13,4.08,4.08,0,0,1,1.81.3v1.1a3.29,3.29,0,0,0-1.91-.51,3.47,3.47,0,0,0-.64.06,2,2,0,0,0-.58.22,1.56,1.56,0,0,0-.41.4,1.06,1.06,0,0,0-.15.58,1.22,1.22,0,0,0,.12.56,1.28,1.28,0,0,0,.35.43,3.75,3.75,0,0,0,.57.37l.78.4c.3.15.58.31.85.47a3.59,3.59,0,0,1,.71.54,2.27,2.27,0,0,1,.49.67,1.84,1.84,0,0,1,.18.83,2.15,2.15,0,0,1-.25,1.05,2,2,0,0,1-.65.7,2.94,2.94,0,0,1-1,.39,5.15,5.15,0,0,1-1.13.12l-.5,0c-.19,0-.39-.06-.59-.1a4.45,4.45,0,0,1-.58-.15A2,2,0,0,1,155.34,113.24Z" fill="#1e1e1e"/>
      <path d="M167.08,106.07h-2.43v7.51h-1v-7.51h-2.42v-.89h5.83Z" fill="#1e1e1e"/>
      <path d="M167.77,113.24v-1.16a2.23,2.23,0,0,0,.48.32,4.51,4.51,0,0,0,1.2.38,3.09,3.09,0,0,0,.58.06,2.27,2.27,0,0,0,1.35-.34,1.15,1.15,0,0,0,.45-1,1.1,1.1,0,0,0-.15-.59,1.76,1.76,0,0,0-.41-.46,4.43,4.43,0,0,0-.62-.4l-.78-.4c-.29-.15-.57-.3-.82-.45a3.2,3.2,0,0,1-.66-.51,2.1,2.1,0,0,1-.45-.62,2.07,2.07,0,0,1-.16-.82,2,2,0,0,1,.25-1,2.13,2.13,0,0,1,.67-.7,3,3,0,0,1,.93-.41,4.29,4.29,0,0,1,1.07-.13,4.08,4.08,0,0,1,1.81.3v1.1a3.29,3.29,0,0,0-1.91-.51,3.47,3.47,0,0,0-.64.06,2,2,0,0,0-.58.22,1.42,1.42,0,0,0-.41.4,1.07,1.07,0,0,0-.16.58,1.22,1.22,0,0,0,.12.56,1.31,1.31,0,0,0,.36.43,3.31,3.31,0,0,0,.57.37c.22.12.48.26.78.4s.58.31.85.47a3.59,3.59,0,0,1,.71.54,2.42,2.42,0,0,1,.48.67,1.84,1.84,0,0,1,.18.83,2.14,2.14,0,0,1-.24,1.05,1.93,1.93,0,0,1-.66.7,2.8,2.8,0,0,1-1,.39,5.24,5.24,0,0,1-1.14.12l-.49,0c-.19,0-.39-.06-.6-.1a4.74,4.74,0,0,1-.57-.15A2,2,0,0,1,167.77,113.24Z" fill="#1e1e1e"/>
    </g>
    <g>
      <path d="M147.86,153.26h-1v-3.83h-4.35v3.83h-1v-8.4h1v3.69h4.35v-3.69h1Z" fill="#1e1e1e"/>
      <path d="M152.72,153.21a1.87,1.87,0,0,1-.89.18c-1.06,0-1.58-.58-1.58-1.75v-3.55h-1v-.83h1V145.8l1-.31v1.77h1.51v.83h-1.51v3.38a1.37,1.37,0,0,0,.21.86.81.81,0,0,0,.68.26,1,1,0,0,0,.62-.2Z" fill="#1e1e1e"/>
      <path d="M156.79,153.21a2,2,0,0,1-.9.18c-1,0-1.57-.58-1.57-1.75v-3.55h-1v-.83h1V145.8l1-.31v1.77h1.51v.83h-1.51v3.38a1.45,1.45,0,0,0,.2.86.84.84,0,0,0,.68.26,1.05,1.05,0,0,0,.63-.2Z" fill="#1e1e1e"/>
      <path d="M159.06,152.4h0V156h-1v-8.76h1v1.06h0a2.26,2.26,0,0,1,2.07-1.2,2.19,2.19,0,0,1,1.81.81,3.37,3.37,0,0,1,.65,2.16,3.71,3.71,0,0,1-.73,2.41,2.46,2.46,0,0,1-2,.91A2,2,0,0,1,159.06,152.4Zm0-2.42v.84a1.77,1.77,0,0,0,.49,1.26,1.71,1.71,0,0,0,2.59-.15,3.09,3.09,0,0,0,.5-1.86,2.41,2.41,0,0,0-.47-1.57,1.51,1.51,0,0,0-1.25-.57,1.71,1.71,0,0,0-1.35.59A2.11,2.11,0,0,0,159,150Z" fill="#1e1e1e"/>
      <path d="M164.76,153.05v-1a2.9,2.9,0,0,0,1.73.58c.85,0,1.27-.28,1.27-.85a.72.72,0,0,0-.11-.4,1,1,0,0,0-.29-.3,2.27,2.27,0,0,0-.44-.23l-.53-.22a6.87,6.87,0,0,1-.7-.31,2,2,0,0,1-.51-.37,1.41,1.41,0,0,1-.3-.46,1.57,1.57,0,0,1-.11-.6,1.45,1.45,0,0,1,.2-.75,1.65,1.65,0,0,1,.51-.54,2.26,2.26,0,0,1,.74-.33,3,3,0,0,1,.85-.12,3.46,3.46,0,0,1,1.4.27v1a2.74,2.74,0,0,0-1.53-.44,1.75,1.75,0,0,0-.48.06,1.34,1.34,0,0,0-.38.18.85.85,0,0,0-.24.26.82.82,0,0,0-.08.35.74.74,0,0,0,.33.67,1.89,1.89,0,0,0,.4.22l.53.22c.27.1.51.21.72.31a2.44,2.44,0,0,1,.54.37,1.38,1.38,0,0,1,.34.46,1.54,1.54,0,0,1,.12.63,1.47,1.47,0,0,1-.19.77,1.85,1.85,0,0,1-.53.55,2.54,2.54,0,0,1-.75.32,3.82,3.82,0,0,1-.9.11A3.41,3.41,0,0,1,164.76,153.05Z" fill="#1e1e1e"/>
      <path d="M176.37,153.26H175.2l-1.41-2.35a5,5,0,0,0-.37-.56,2.69,2.69,0,0,0-.37-.38,1.23,1.23,0,0,0-.41-.21,1.59,1.59,0,0,0-.5-.07h-.81v3.57h-1v-8.4h2.5a3.64,3.64,0,0,1,1,.14,2.23,2.23,0,0,1,.81.42,2,2,0,0,1,.54.7,2.32,2.32,0,0,1,.19,1,2.37,2.37,0,0,1-.13.81,2.22,2.22,0,0,1-.38.65,2.32,2.32,0,0,1-.58.49,3.1,3.1,0,0,1-.77.31v0a1.55,1.55,0,0,1,.36.21,2,2,0,0,1,.3.28,4.17,4.17,0,0,1,.28.38c.09.13.19.3.3.48Zm-5-7.51v3.05h1.34a2.15,2.15,0,0,0,.68-.11,1.61,1.61,0,0,0,.54-.32,1.57,1.57,0,0,0,.36-.51,1.65,1.65,0,0,0,.13-.68,1.32,1.32,0,0,0-.44-1.05,1.88,1.88,0,0,0-1.26-.38Z" fill="#1e1e1e"/>
      <path d="M181.87,150.51h-4.24a2.27,2.27,0,0,0,.54,1.54,1.84,1.84,0,0,0,1.42.55,3,3,0,0,0,1.86-.67v.9a3.5,3.5,0,0,1-2.09.58,2.56,2.56,0,0,1-2-.82,3.37,3.37,0,0,1-.73-2.3,3.25,3.25,0,0,1,.8-2.28,2.54,2.54,0,0,1,2-.89,2.24,2.24,0,0,1,1.82.77,3.15,3.15,0,0,1,.65,2.11Zm-1-.82a1.93,1.93,0,0,0-.4-1.29,1.36,1.36,0,0,0-1.1-.47,1.52,1.52,0,0,0-1.15.49,2.22,2.22,0,0,0-.59,1.27Z" fill="#1e1e1e"/>
      <path d="M188.44,153.26h-1v-1h0a2.42,2.42,0,0,1-3.87.35,3.32,3.32,0,0,1-.68-2.19,3.6,3.6,0,0,1,.75-2.39,2.48,2.48,0,0,1,2-.9,1.94,1.94,0,0,1,1.8,1h0v-3.72h1Zm-1-2.71v-.88a1.7,1.7,0,0,0-.48-1.23,1.61,1.61,0,0,0-1.22-.51,1.64,1.64,0,0,0-1.38.65,2.79,2.79,0,0,0-.51,1.78,2.56,2.56,0,0,0,.49,1.64,1.57,1.57,0,0,0,1.3.6A1.66,1.66,0,0,0,187,152,2.2,2.2,0,0,0,187.48,150.55Z" fill="#1e1e1e"/>
      <path d="M190.88,145.74a.64.64,0,0,1-.44-.17.65.65,0,0,1,0-.9.6.6,0,0,1,.44-.18.64.64,0,0,1,.45.18.61.61,0,0,1,.18.45.6.6,0,0,1-.18.44A.64.64,0,0,1,190.88,145.74Zm.47,7.52h-1v-6h1Z" fill="#1e1e1e"/>
      <path d="M196.42,148.24a1.18,1.18,0,0,0-.73-.2,1.22,1.22,0,0,0-1,.58,2.68,2.68,0,0,0-.42,1.59v3h-1v-6h1v1.24h0a2.08,2.08,0,0,1,.62-1,1.49,1.49,0,0,1,.95-.35,1.65,1.65,0,0,1,.57.08Z" fill="#1e1e1e"/>
      <path d="M202.29,150.51h-4.24a2.27,2.27,0,0,0,.54,1.54,1.84,1.84,0,0,0,1.42.55,3,3,0,0,0,1.86-.67v.9a3.5,3.5,0,0,1-2.09.58,2.56,2.56,0,0,1-2-.82,3.37,3.37,0,0,1-.73-2.3,3.25,3.25,0,0,1,.8-2.28,2.54,2.54,0,0,1,2-.89,2.26,2.26,0,0,1,1.82.77,3.15,3.15,0,0,1,.65,2.11Zm-1-.82a1.93,1.93,0,0,0-.4-1.29,1.36,1.36,0,0,0-1.1-.47,1.52,1.52,0,0,0-1.15.49,2.22,2.22,0,0,0-.59,1.27Z" fill="#1e1e1e"/>
      <path d="M207.83,153a3.1,3.1,0,0,1-1.64.42,2.69,2.69,0,0,1-2.07-.84,3,3,0,0,1-.79-2.16,3.33,3.33,0,0,1,.85-2.39,3,3,0,0,1,2.27-.9,3.09,3.09,0,0,1,1.39.3v1a2.45,2.45,0,0,0-1.43-.47,2,2,0,0,0-1.51.66,2.52,2.52,0,0,0-.59,1.73,2.39,2.39,0,0,0,.56,1.67,1.92,1.92,0,0,0,1.48.61,2.45,2.45,0,0,0,1.48-.52Z" fill="#1e1e1e"/>
      <path d="M212.07,153.21a2,2,0,0,1-.9.18c-1,0-1.58-.58-1.58-1.75v-3.55h-1v-.83h1V145.8l1-.31v1.77h1.52v.83h-1.52v3.38a1.37,1.37,0,0,0,.21.86.83.83,0,0,0,.68.26,1.05,1.05,0,0,0,.63-.2Z" fill="#1e1e1e"/>
      <path d="M213.84,145.74a.64.64,0,0,1-.44-.17.65.65,0,0,1,0-.9.6.6,0,0,1,.44-.18.62.62,0,0,1,.63.63.6.6,0,0,1-.18.44A.61.61,0,0,1,213.84,145.74Zm.47,7.52h-1v-6h1Z" fill="#1e1e1e"/>
      <path d="M218.76,153.41a2.76,2.76,0,0,1-2.12-.85,3.09,3.09,0,0,1-.79-2.22,3.27,3.27,0,0,1,.82-2.37,3,3,0,0,1,2.23-.85,2.7,2.7,0,0,1,2.1.83,3.27,3.27,0,0,1,.75,2.29,3.23,3.23,0,0,1-.81,2.3A2.84,2.84,0,0,1,218.76,153.41Zm.07-5.48a1.83,1.83,0,0,0-1.46.63,2.59,2.59,0,0,0-.54,1.74,2.46,2.46,0,0,0,.54,1.68,1.87,1.87,0,0,0,1.46.62,1.76,1.76,0,0,0,1.44-.61,2.62,2.62,0,0,0,.5-1.71,2.71,2.71,0,0,0-.5-1.74A1.79,1.79,0,0,0,218.83,147.93Z" fill="#1e1e1e"/>
      <path d="M228.27,153.26h-1v-3.42c0-1.27-.47-1.91-1.4-1.91a1.5,1.5,0,0,0-1.19.54,2,2,0,0,0-.47,1.37v3.42h-1v-6h1v1h0a2.16,2.16,0,0,1,2-1.14,1.86,1.86,0,0,1,1.51.64,2.88,2.88,0,0,1,.52,1.84Z" fill="#1e1e1e"/>
    </g>
    <g>
      <path d="M183,193.24v-1.16a2.86,2.86,0,0,0,.48.32,3.8,3.8,0,0,0,.59.23,3.3,3.3,0,0,0,.62.15,2.91,2.91,0,0,0,.57.06,2.29,2.29,0,0,0,1.36-.34,1.14,1.14,0,0,0,.44-1,1.2,1.2,0,0,0-.14-.59,1.64,1.64,0,0,0-.42-.46,3.91,3.91,0,0,0-.62-.4l-.78-.4-.82-.45a3.85,3.85,0,0,1-.66-.51,2.06,2.06,0,0,1-.35-2.44,2.21,2.21,0,0,1,.66-.7,3,3,0,0,1,.93-.41,4.29,4.29,0,0,1,1.07-.13,4,4,0,0,1,1.81.3v1.1a3.29,3.29,0,0,0-1.91-.51,3.47,3.47,0,0,0-.64.06,1.83,1.83,0,0,0-.57.22,1.31,1.31,0,0,0-.41.4,1,1,0,0,0-.16.58,1.22,1.22,0,0,0,.12.56,1.41,1.41,0,0,0,.35.43,3.75,3.75,0,0,0,.57.37l.78.4c.3.15.59.31.85.47a3.59,3.59,0,0,1,.71.54,2.27,2.27,0,0,1,.49.67,1.84,1.84,0,0,1,.18.83,2.15,2.15,0,0,1-.25,1,2,2,0,0,1-.65.7,2.94,2.94,0,0,1-1,.39,5.15,5.15,0,0,1-1.13.12l-.49,0c-.2,0-.4-.06-.6-.1a4.45,4.45,0,0,1-.58-.15A2,2,0,0,1,183,193.24Z" fill="#1e1e1e"/>
      <path d="M192,193.52a1.82,1.82,0,0,1-.9.19c-1.05,0-1.57-.59-1.57-1.76V188.4h-1v-.82h1v-1.47l1-.31v1.78H192v.82h-1.51v3.38a1.45,1.45,0,0,0,.2.86.84.84,0,0,0,.68.26,1.05,1.05,0,0,0,.63-.2Z" fill="#1e1e1e"/>
      <path d="M197.6,193.58h-1v-.94h0a2.2,2.2,0,0,1-3.25.61,1.68,1.68,0,0,1-.5-1.26c0-1.13.66-1.78,2-2l1.8-.25c0-1-.42-1.53-1.24-1.53a2.92,2.92,0,0,0-2,.74v-1a3.76,3.76,0,0,1,2-.56c1.41,0,2.12.74,2.12,2.24Zm-1-3-1.45.2a2.59,2.59,0,0,0-1,.33,1,1,0,0,0-.34.85.92.92,0,0,0,.31.71,1.2,1.2,0,0,0,.84.28,1.55,1.55,0,0,0,1.18-.5,1.8,1.8,0,0,0,.47-1.27Z" fill="#1e1e1e"/>
      <path d="M202.19,193.52a1.8,1.8,0,0,1-.9.19c-1,0-1.57-.59-1.57-1.76V188.4h-1v-.82h1v-1.47l1-.31v1.78h1.51v.82h-1.51v3.38a1.45,1.45,0,0,0,.2.86.84.84,0,0,0,.68.26,1,1,0,0,0,.63-.2Z" fill="#1e1e1e"/>
      <path d="M204,186.06a.59.59,0,0,1-.44-.18.61.61,0,0,1-.18-.45.6.6,0,0,1,.18-.44.59.59,0,0,1,.44-.18.6.6,0,0,1,.44.18.58.58,0,0,1,.19.44.56.56,0,0,1-.19.44A.58.58,0,0,1,204,186.06Zm.47,7.52h-1v-6h1Z" fill="#1e1e1e"/>
      <path d="M210.47,193.3a3.1,3.1,0,0,1-1.64.42,2.69,2.69,0,0,1-2.07-.84,3,3,0,0,1-.79-2.16,3.3,3.3,0,0,1,.85-2.38,3,3,0,0,1,2.27-.9,3.23,3.23,0,0,1,1.39.29v1a2.38,2.38,0,0,0-1.43-.47,2,2,0,0,0-1.51.66,2.5,2.5,0,0,0-.59,1.73,2.36,2.36,0,0,0,.56,1.66,1.89,1.89,0,0,0,1.48.61,2.39,2.39,0,0,0,1.48-.52Z" fill="#1e1e1e"/>
      <path d="M219.6,186.07h-3.28V189h3v.89h-3v3.72h-1v-8.4h4.26Z" fill="#1e1e1e"/>
      <path d="M221.56,186.06a.6.6,0,0,1-.44-.18.61.61,0,0,1-.18-.45.61.61,0,0,1,.62-.62.61.61,0,0,1,.45.18.6.6,0,0,1,.18.44.63.63,0,0,1-.63.63Zm.47,7.52h-1v-6h1Z" fill="#1e1e1e"/>
      <path d="M224.94,193.58h-1V184.7h1Z" fill="#1e1e1e"/>
      <path d="M231.7,190.82h-4.23a2.21,2.21,0,0,0,.54,1.55,1.85,1.85,0,0,0,1.42.54,2.93,2.93,0,0,0,1.86-.67v.91a3.52,3.52,0,0,1-2.09.57,2.52,2.52,0,0,1-2-.82,3.81,3.81,0,0,1,.07-4.58,2.53,2.53,0,0,1,2-.88,2.25,2.25,0,0,1,1.82.76,3.18,3.18,0,0,1,.64,2.12Zm-1-.81a2,2,0,0,0-.4-1.3,1.36,1.36,0,0,0-1.1-.46,1.55,1.55,0,0,0-1.15.48,2.19,2.19,0,0,0-.59,1.28Z" fill="#1e1e1e"/>
      <path d="M232.79,193.36v-1a2.84,2.84,0,0,0,1.73.58c.85,0,1.27-.28,1.27-.84a.76.76,0,0,0-.11-.41,1.17,1.17,0,0,0-.29-.3,3,3,0,0,0-.44-.23l-.53-.21a6.76,6.76,0,0,1-.7-.32,2.55,2.55,0,0,1-.51-.36,1.52,1.52,0,0,1-.3-.46,1.66,1.66,0,0,1-.1-.61,1.38,1.38,0,0,1,.19-.74,1.7,1.7,0,0,1,.52-.55,2.21,2.21,0,0,1,.73-.33,3.59,3.59,0,0,1,2.25.16v1a2.71,2.71,0,0,0-1.53-.43,1.75,1.75,0,0,0-.48.06,1.15,1.15,0,0,0-.37.17.68.68,0,0,0-.24.27.67.67,0,0,0-.09.34.75.75,0,0,0,.09.39.8.8,0,0,0,.24.28,1.91,1.91,0,0,0,.4.23l.54.21c.26.11.5.21.71.32a2.82,2.82,0,0,1,.54.36,1.41,1.41,0,0,1,.34.47,1.46,1.46,0,0,1,.12.62,1.5,1.5,0,0,1-.19.78,1.61,1.61,0,0,1-.53.54,2.3,2.3,0,0,1-.75.32,3.82,3.82,0,0,1-.9.11A3.41,3.41,0,0,1,232.79,193.36Z" fill="#1e1e1e"/>
    </g>
    <g>
      <path d="M221.16,233.26H220l-1.41-2.35a5,5,0,0,0-.37-.56,2.69,2.69,0,0,0-.37-.38,1.23,1.23,0,0,0-.41-.21,1.59,1.59,0,0,0-.5-.07h-.81v3.57h-1v-8.4h2.51a3.62,3.62,0,0,1,1,.14,2.23,2.23,0,0,1,.81.42,2,2,0,0,1,.54.7,2.32,2.32,0,0,1,.19,1,2.37,2.37,0,0,1-.13.81,2,2,0,0,1-.38.65,2.32,2.32,0,0,1-.58.49,3.1,3.1,0,0,1-.77.31v0a1.55,1.55,0,0,1,.36.21,1.58,1.58,0,0,1,.3.28,4.17,4.17,0,0,1,.28.38l.31.48Zm-5-7.51v3.05h1.34a2.15,2.15,0,0,0,.68-.11,1.61,1.61,0,0,0,.54-.32,1.43,1.43,0,0,0,.36-.51,1.65,1.65,0,0,0,.13-.68,1.32,1.32,0,0,0-.44-1.05,1.88,1.88,0,0,0-1.26-.38Z" fill="#1e1e1e"/>
      <path d="M224.34,233.41a2.76,2.76,0,0,1-2.12-.85,3.09,3.09,0,0,1-.79-2.22,3.27,3.27,0,0,1,.82-2.37,3,3,0,0,1,2.23-.85,2.7,2.7,0,0,1,2.1.83,3.27,3.27,0,0,1,.75,2.29,3.23,3.23,0,0,1-.81,2.3A2.84,2.84,0,0,1,224.34,233.41Zm.07-5.48a1.83,1.83,0,0,0-1.46.63,2.59,2.59,0,0,0-.54,1.74A2.46,2.46,0,0,0,223,232a1.87,1.87,0,0,0,1.46.62,1.76,1.76,0,0,0,1.44-.61,2.62,2.62,0,0,0,.5-1.71,2.71,2.71,0,0,0-.5-1.74A1.79,1.79,0,0,0,224.41,227.93Z" fill="#1e1e1e"/>
      <path d="M233.72,233.26h-1v-.94h0a2,2,0,0,1-1.85,1.09c-1.43,0-2.14-.86-2.14-2.56v-3.59h.95v3.44c0,1.26.49,1.9,1.46,1.9a1.48,1.48,0,0,0,1.15-.52,2,2,0,0,0,.46-1.36v-3.46h1Z" fill="#1e1e1e"/>
      <path d="M238.44,233.21a1.92,1.92,0,0,1-.9.18c-1,0-1.57-.58-1.57-1.75v-3.55h-1v-.83h1V225.8l1-.31v1.77h1.51v.83h-1.51v3.38a1.45,1.45,0,0,0,.2.86.84.84,0,0,0,.68.26,1,1,0,0,0,.63-.2Z" fill="#1e1e1e"/>
      <path d="M240.22,225.74a.62.62,0,0,1-.44-.17.65.65,0,0,1,0-.9.59.59,0,0,1,.44-.18.6.6,0,0,1,.44.18.58.58,0,0,1,.19.45.58.58,0,0,1-.19.44A.6.6,0,0,1,240.22,225.74Zm.47,7.52h-1v-6h1Z" fill="#1e1e1e"/>
      <path d="M247.61,233.26h-1v-3.42c0-1.27-.46-1.91-1.39-1.91a1.52,1.52,0,0,0-1.2.54,2.05,2.05,0,0,0-.47,1.37v3.42h-1v-6h1v1h0a2.17,2.17,0,0,1,2-1.14,1.86,1.86,0,0,1,1.51.64,2.82,2.82,0,0,1,.52,1.84Z" fill="#1e1e1e"/>
      <path d="M254.54,232.78q0,3.32-3.16,3.31a4.31,4.31,0,0,1-1.95-.42v-1a4.06,4.06,0,0,0,1.94.56c1.47,0,2.21-.79,2.21-2.36v-.65h0a2.43,2.43,0,0,1-3.87.35,3.24,3.24,0,0,1-.68-2.15,3.73,3.73,0,0,1,.74-2.43,2.44,2.44,0,0,1,2-.91,2,2,0,0,1,1.8,1h0v-.84h1Zm-1-2.23v-.88a1.73,1.73,0,0,0-.48-1.23,1.6,1.6,0,0,0-1.21-.51,1.68,1.68,0,0,0-1.39.65,2.86,2.86,0,0,0-.5,1.81,2.51,2.51,0,0,0,.48,1.61,1.56,1.56,0,0,0,1.28.6,1.63,1.63,0,0,0,1.31-.58A2.12,2.12,0,0,0,253.58,230.55Z" fill="#1e1e1e"/>
    </g>
    <g>
      <path d="M251.74,273.23a4.89,4.89,0,0,1-2.32.49,3.74,3.74,0,0,1-2.87-1.15,4.26,4.26,0,0,1-1.08-3,4.46,4.46,0,0,1,1.22-3.26,4.08,4.08,0,0,1,3.07-1.24,4.92,4.92,0,0,1,2,.34v1.05a4,4,0,0,0-2-.5,3.08,3.08,0,0,0-2.35,1,3.66,3.66,0,0,0-.9,2.59,3.41,3.41,0,0,0,.85,2.44,2.85,2.85,0,0,0,2.2.92,4.06,4.06,0,0,0,2.19-.57Z" fill="#1e1e1e"/>
      <path d="M256.52,273.72a3.66,3.66,0,0,1-2.86-1.18,4.33,4.33,0,0,1-1.08-3.06,4.66,4.66,0,0,1,1.1-3.24,3.83,3.83,0,0,1,3-1.2,3.6,3.6,0,0,1,2.8,1.17,4.37,4.37,0,0,1,1.07,3.06,4.66,4.66,0,0,1-1.09,3.25A3.76,3.76,0,0,1,256.52,273.72Zm.07-7.79a2.73,2.73,0,0,0-2.15.95,4.24,4.24,0,0,0,0,5,2.61,2.61,0,0,0,2.1.95,2.77,2.77,0,0,0,2.18-.91,3.68,3.68,0,0,0,.79-2.52,3.81,3.81,0,0,0-.77-2.57A2.63,2.63,0,0,0,256.59,265.93Z" fill="#1e1e1e"/>
      <path d="M268.2,273.58H267l-1.41-2.36c-.13-.21-.25-.4-.37-.56a2.15,2.15,0,0,0-.37-.37,1.49,1.49,0,0,0-.41-.22,2,2,0,0,0-.5-.06h-.81v3.57h-1v-8.4h2.51a3.63,3.63,0,0,1,1,.13,2.59,2.59,0,0,1,.81.42,2,2,0,0,1,.54.7,2.33,2.33,0,0,1,.19,1,2.28,2.28,0,0,1-.13.8,2,2,0,0,1-.38.65,2,2,0,0,1-.58.49,3.12,3.12,0,0,1-.77.32v0a1.55,1.55,0,0,1,.36.21,1.64,1.64,0,0,1,.3.29,4,4,0,0,1,.28.37l.31.48Zm-5-7.51v3h1.34a1.9,1.9,0,0,0,.68-.11,1.46,1.46,0,0,0,.54-.32,1.28,1.28,0,0,0,.36-.51,1.6,1.6,0,0,0,.13-.67,1.32,1.32,0,0,0-.44-1.05,1.83,1.83,0,0,0-1.26-.38Z" fill="#1e1e1e"/>
      <path d="M269,273.24v-1.16a2.86,2.86,0,0,0,.48.32,3.8,3.8,0,0,0,.59.23,3.3,3.3,0,0,0,.62.15,2.91,2.91,0,0,0,.57.06,2.31,2.31,0,0,0,1.36-.34,1.17,1.17,0,0,0,.44-1,1.1,1.1,0,0,0-.15-.59,1.6,1.6,0,0,0-.41-.46,3.91,3.91,0,0,0-.62-.4l-.78-.4c-.29-.15-.57-.3-.82-.45a3.85,3.85,0,0,1-.66-.51,2.06,2.06,0,0,1-.35-2.44,2.21,2.21,0,0,1,.66-.7,3,3,0,0,1,.93-.41,4.29,4.29,0,0,1,1.07-.13,4.08,4.08,0,0,1,1.81.3v1.1a3.29,3.29,0,0,0-1.91-.51,3.47,3.47,0,0,0-.64.06,2,2,0,0,0-.58.22,1.56,1.56,0,0,0-.41.4,1.06,1.06,0,0,0-.15.58,1.22,1.22,0,0,0,.12.56,1.28,1.28,0,0,0,.35.43,3.75,3.75,0,0,0,.57.37l.78.4c.3.15.58.31.85.47a3.59,3.59,0,0,1,.71.54,2.27,2.27,0,0,1,.49.67,1.84,1.84,0,0,1,.18.83,2.15,2.15,0,0,1-.25,1.05,2,2,0,0,1-.65.7,2.94,2.94,0,0,1-1,.39,5.15,5.15,0,0,1-1.13.12l-.5,0c-.19,0-.39-.06-.59-.1a4.45,4.45,0,0,1-.58-.15A2,2,0,0,1,269,273.24Z" fill="#1e1e1e"/>
    </g>
    <g>
      <path d="M253.45,313.89h-1.09l-.89-2.35H247.9l-.84,2.35H246l3.22-8.4h1Zm-2.31-3.24-1.32-3.58a3.36,3.36,0,0,1-.12-.56h0a3.13,3.13,0,0,1-.13.56l-1.31,3.58Z" fill="#1e1e1e"/>
      <path d="M259.4,313.89h-1v-.95h0a2,2,0,0,1-1.85,1.09c-1.43,0-2.15-.85-2.15-2.55v-3.59h1v3.44c0,1.26.48,1.9,1.45,1.9a1.49,1.49,0,0,0,1.16-.52,2,2,0,0,0,.45-1.36v-3.46h1Z" fill="#1e1e1e"/>
      <path d="M264.13,313.83a1.82,1.82,0,0,1-.9.19c-1.05,0-1.58-.58-1.58-1.76v-3.55h-1v-.82h1v-1.46l1-.31v1.77h1.51v.82h-1.51v3.38a1.41,1.41,0,0,0,.2.87.82.82,0,0,0,.68.25,1,1,0,0,0,.63-.2Z" fill="#1e1e1e"/>
      <path d="M270.39,313.89h-1v-3.45c0-1.25-.46-1.88-1.39-1.88a1.53,1.53,0,0,0-1.19.54,2,2,0,0,0-.48,1.39v3.4h-1V305h1v3.88h0a2.17,2.17,0,0,1,2-1.14c1.36,0,2,.82,2,2.45Z" fill="#1e1e1e"/>
      <path d="M277,311.13h-4.23a2.19,2.19,0,0,0,.54,1.55,1.85,1.85,0,0,0,1.41.55,3,3,0,0,0,1.87-.67v.9a3.52,3.52,0,0,1-2.09.57,2.54,2.54,0,0,1-2-.81,3.34,3.34,0,0,1-.73-2.3,3.29,3.29,0,0,1,.8-2.29,2.55,2.55,0,0,1,2-.88,2.28,2.28,0,0,1,1.82.76,3.19,3.19,0,0,1,.64,2.12Zm-1-.81a2,2,0,0,0-.4-1.3,1.4,1.4,0,0,0-1.1-.46,1.52,1.52,0,0,0-1.15.49,2.16,2.16,0,0,0-.59,1.27Z" fill="#1e1e1e"/>
      <path d="M283.46,313.89h-1v-3.42c0-1.27-.47-1.91-1.4-1.91a1.5,1.5,0,0,0-1.19.54,2,2,0,0,0-.47,1.37v3.42h-1v-6h1v1h0a2.16,2.16,0,0,1,2-1.14,1.83,1.83,0,0,1,1.51.64,2.86,2.86,0,0,1,.52,1.84Z" fill="#1e1e1e"/>
      <path d="M288.05,313.83a1.8,1.8,0,0,1-.9.19c-1,0-1.57-.58-1.57-1.76v-3.55h-1v-.82h1v-1.46l1-.31v1.77h1.51v.82h-1.51v3.38a1.49,1.49,0,0,0,.2.87.83.83,0,0,0,.68.25,1,1,0,0,0,.63-.2Z" fill="#1e1e1e"/>
      <path d="M289.83,306.37a.59.59,0,0,1-.44-.18.57.57,0,0,1-.18-.44.61.61,0,0,1,.18-.45.59.59,0,0,1,.44-.18.6.6,0,0,1,.44.18.58.58,0,0,1,.19.45.58.58,0,0,1-.19.44A.6.6,0,0,1,289.83,306.37Zm.47,7.52h-1v-6h1Z" fill="#1e1e1e"/>
      <path d="M296.33,313.62a3.1,3.1,0,0,1-1.64.41,2.68,2.68,0,0,1-2.07-.83,3,3,0,0,1-.79-2.17,3.32,3.32,0,0,1,.85-2.38,3,3,0,0,1,2.27-.9,3.06,3.06,0,0,1,1.39.3v1a2.45,2.45,0,0,0-1.43-.47,2,2,0,0,0-1.51.66,2.52,2.52,0,0,0-.59,1.73,2.41,2.41,0,0,0,.56,1.67,1.92,1.92,0,0,0,1.48.61,2.4,2.4,0,0,0,1.48-.53Z" fill="#1e1e1e"/>
      <path d="M302.08,313.89h-1V313h0a2,2,0,0,1-1.84,1.07,1.93,1.93,0,0,1-1.4-.47,1.65,1.65,0,0,1-.51-1.26c0-1.12.66-1.77,2-2l1.8-.25c0-1-.41-1.53-1.24-1.53a3,3,0,0,0-2,.74v-1a3.68,3.68,0,0,1,2-.57c1.41,0,2.12.75,2.12,2.24Zm-1-3-1.45.2a2.35,2.35,0,0,0-1,.33,1,1,0,0,0-.34.84.93.93,0,0,0,.32.72,1.22,1.22,0,0,0,.83.28,1.52,1.52,0,0,0,1.18-.51,1.77,1.77,0,0,0,.47-1.26Z" fill="#1e1e1e"/>
      <path d="M306.67,313.83a1.76,1.76,0,0,1-.89.19c-1,0-1.58-.58-1.58-1.76v-3.55h-1v-.82h1v-1.46l1-.31v1.77h1.51v.82h-1.51v3.38a1.41,1.41,0,0,0,.21.87.81.81,0,0,0,.68.25.94.94,0,0,0,.62-.2Z" fill="#1e1e1e"/>
      <path d="M308.45,306.37a.6.6,0,0,1-.44-.18.57.57,0,0,1-.18-.44.61.61,0,0,1,.18-.45.6.6,0,0,1,.44-.18.64.64,0,0,1,.45.18.61.61,0,0,1,.18.45.6.6,0,0,1-.18.44A.64.64,0,0,1,308.45,306.37Zm.47,7.52h-1v-6h1Z" fill="#1e1e1e"/>
      <path d="M313.37,314a2.76,2.76,0,0,1-2.12-.84,3.11,3.11,0,0,1-.8-2.23,3.26,3.26,0,0,1,.83-2.36,3,3,0,0,1,2.23-.85,2.69,2.69,0,0,1,2.09.83,3.75,3.75,0,0,1-.05,4.59A2.83,2.83,0,0,1,313.37,314Zm.07-5.47a1.8,1.8,0,0,0-1.46.63,2.59,2.59,0,0,0-.54,1.74,2.46,2.46,0,0,0,.54,1.68,1.85,1.85,0,0,0,1.46.62,1.76,1.76,0,0,0,1.43-.61,2.58,2.58,0,0,0,.5-1.72,2.62,2.62,0,0,0-.5-1.73A1.73,1.73,0,0,0,313.44,308.56Z" fill="#1e1e1e"/>
      <path d="M322.87,313.89h-1v-3.42c0-1.27-.46-1.91-1.39-1.91a1.5,1.5,0,0,0-1.19.54,2,2,0,0,0-.48,1.37v3.42h-1v-6h1v1h0a2.16,2.16,0,0,1,2-1.14,1.82,1.82,0,0,1,1.5.64,2.8,2.8,0,0,1,.52,1.84Z" fill="#1e1e1e"/>
    </g>
    <g>
      <path d="M281.47,353.58h-1.09l-.89-2.36h-3.56l-.84,2.36H274l3.23-8.4h1Zm-2.3-3.24-1.32-3.58a3.65,3.65,0,0,1-.13-.56h0a3.49,3.49,0,0,1-.14.56l-1.31,3.58Z" fill="#1e1e1e"/>
      <path d="M287.43,353.58h-1v-.95h0a2,2,0,0,1-1.85,1.09c-1.43,0-2.14-.85-2.14-2.55v-3.59h.95V351c0,1.27.49,1.9,1.46,1.9a1.45,1.45,0,0,0,1.15-.52,1.94,1.94,0,0,0,.46-1.35v-3.46h1Z" fill="#1e1e1e"/>
      <path d="M292.15,353.52a1.8,1.8,0,0,1-.9.19c-1.05,0-1.57-.59-1.57-1.76V348.4h-1v-.82h1v-1.47l1-.31v1.78h1.51v.82h-1.51v3.38a1.45,1.45,0,0,0,.2.86.84.84,0,0,0,.68.26,1,1,0,0,0,.63-.2Z" fill="#1e1e1e"/>
      <path d="M298.41,353.58h-1v-3.46c0-1.25-.46-1.87-1.39-1.87a1.51,1.51,0,0,0-1.18.54,2,2,0,0,0-.48,1.39v3.4h-1V344.7h1v3.88h0a2.18,2.18,0,0,1,2-1.14c1.35,0,2,.81,2,2.44Z" fill="#1e1e1e"/>
      <path d="M302.73,353.72a2.79,2.79,0,0,1-2.12-.84,3.11,3.11,0,0,1-.8-2.23,3.23,3.23,0,0,1,.83-2.36,3,3,0,0,1,2.23-.85,2.69,2.69,0,0,1,2.1.82,3.32,3.32,0,0,1,.75,2.3,3.25,3.25,0,0,1-.81,2.3A2.87,2.87,0,0,1,302.73,353.72Zm.07-5.47a1.83,1.83,0,0,0-1.46.63,2.58,2.58,0,0,0-.54,1.73,2.47,2.47,0,0,0,.54,1.69,1.86,1.86,0,0,0,1.46.61,1.79,1.79,0,0,0,1.44-.6,3.23,3.23,0,0,0,0-3.45A1.76,1.76,0,0,0,302.8,348.25Z" fill="#1e1e1e"/>
      <path d="M310.39,348.55a1.18,1.18,0,0,0-.73-.19,1.23,1.23,0,0,0-1,.58,2.64,2.64,0,0,0-.41,1.58v3.06h-1v-6h1v1.24h0a2.07,2.07,0,0,1,.63-1,1.4,1.4,0,0,1,.94-.36,1.5,1.5,0,0,1,.58.09Z" fill="#1e1e1e"/>
      <path d="M311.92,346.06a.6.6,0,0,1-.44-.18.61.61,0,0,1-.18-.45.61.61,0,0,1,.62-.62.61.61,0,0,1,.45.18.6.6,0,0,1,.18.44.63.63,0,0,1-.63.63Zm.47,7.52h-1v-6h1Z" fill="#1e1e1e"/>
      <path d="M318.52,347.85,315,352.76h3.51v.82h-4.92v-.3l3.55-4.88h-3.22v-.82h4.63Z" fill="#1e1e1e"/>
      <path d="M324.06,353.58h-1v-.94h0a2.2,2.2,0,0,1-3.25.61,1.65,1.65,0,0,1-.51-1.26c0-1.13.67-1.78,2-2l1.79-.25q0-1.53-1.23-1.53a2.92,2.92,0,0,0-2,.74v-1a3.76,3.76,0,0,1,2-.56c1.41,0,2.12.74,2.12,2.24Zm-1-3-1.44.2a2.59,2.59,0,0,0-1,.33,1,1,0,0,0-.34.85.89.89,0,0,0,.31.71,1.2,1.2,0,0,0,.84.28,1.56,1.56,0,0,0,1.18-.5,1.79,1.79,0,0,0,.46-1.27Z" fill="#1e1e1e"/>
      <path d="M328.65,353.52a1.82,1.82,0,0,1-.9.19c-1.05,0-1.57-.59-1.57-1.76V348.4h-1v-.82h1v-1.47l1-.31v1.78h1.51v.82h-1.51v3.38a1.45,1.45,0,0,0,.2.86.84.84,0,0,0,.68.26,1.05,1.05,0,0,0,.63-.2Z" fill="#1e1e1e"/>
      <path d="M330.42,346.06a.62.62,0,0,1-.44-.18.61.61,0,0,1-.18-.45A.6.6,0,0,1,330,345a.62.62,0,0,1,.44-.18.61.61,0,0,1,.45.18.58.58,0,0,1,.19.44.56.56,0,0,1-.19.44A.58.58,0,0,1,330.42,346.06Zm.47,7.52h-1v-6h1Z" fill="#1e1e1e"/>
      <path d="M335.35,353.72a2.79,2.79,0,0,1-2.13-.84,3.1,3.1,0,0,1-.79-2.23,3.23,3.23,0,0,1,.82-2.36,3,3,0,0,1,2.24-.85,2.68,2.68,0,0,1,2.09.82,3.32,3.32,0,0,1,.75,2.3,3.25,3.25,0,0,1-.81,2.3A2.85,2.85,0,0,1,335.35,353.72Zm.07-5.47a1.84,1.84,0,0,0-1.47.63,2.58,2.58,0,0,0-.54,1.73,2.42,2.42,0,0,0,.55,1.69,1.85,1.85,0,0,0,1.46.61,1.75,1.75,0,0,0,1.43-.6,3.23,3.23,0,0,0,0-3.45A1.73,1.73,0,0,0,335.42,348.25Z" fill="#1e1e1e"/>
      <path d="M344.85,353.58h-1v-3.42c0-1.28-.47-1.91-1.4-1.91a1.52,1.52,0,0,0-1.19.54,2,2,0,0,0-.47,1.37v3.42h-1v-6h1v1h0a2.17,2.17,0,0,1,2-1.14,1.85,1.85,0,0,1,1.51.63,2.84,2.84,0,0,1,.52,1.84Z" fill="#1e1e1e"/>
    </g>
    <g>
      <path d="M414.56,353.23a4.89,4.89,0,0,1-2.32.49,3.74,3.74,0,0,1-2.87-1.15,4.26,4.26,0,0,1-1.08-3,4.46,4.46,0,0,1,1.22-3.26,4.08,4.08,0,0,1,3.07-1.24,4.92,4.92,0,0,1,2,.34v1.05a4,4,0,0,0-2-.5,3.08,3.08,0,0,0-2.35,1,3.66,3.66,0,0,0-.9,2.59,3.41,3.41,0,0,0,.85,2.44,2.85,2.85,0,0,0,2.2.92,4.06,4.06,0,0,0,2.19-.57Z" fill="#1e1e1e"/>
      <path d="M421,353.58h-1v-.95h0a2,2,0,0,1-1.85,1.09c-1.43,0-2.14-.85-2.14-2.55v-3.59h1V351c0,1.27.49,1.9,1.45,1.9a1.46,1.46,0,0,0,1.16-.52A2,2,0,0,0,420,351v-3.46h1Z" fill="#1e1e1e"/>
      <path d="M422.57,353.36v-1a2.84,2.84,0,0,0,1.73.58c.85,0,1.27-.28,1.27-.84a.76.76,0,0,0-.11-.41,1.17,1.17,0,0,0-.29-.3,3,3,0,0,0-.44-.23l-.53-.21a6.76,6.76,0,0,1-.7-.32,2.29,2.29,0,0,1-.51-.36,1.52,1.52,0,0,1-.3-.46,1.66,1.66,0,0,1-.11-.61,1.39,1.39,0,0,1,.2-.74,1.78,1.78,0,0,1,.51-.55,2.26,2.26,0,0,1,.74-.33,3.41,3.41,0,0,1,.85-.11,3.46,3.46,0,0,1,1.4.27v1a2.74,2.74,0,0,0-1.53-.43,1.75,1.75,0,0,0-.48.06,1.33,1.33,0,0,0-.38.17.88.88,0,0,0-.24.27.77.77,0,0,0-.08.34.87.87,0,0,0,.08.39.83.83,0,0,0,.25.28,1.91,1.91,0,0,0,.4.23l.53.21c.27.11.51.21.72.32a2.82,2.82,0,0,1,.54.36,1.41,1.41,0,0,1,.34.47,1.46,1.46,0,0,1,.12.62,1.42,1.42,0,0,1-.2.78,1.58,1.58,0,0,1-.52.54,2.26,2.26,0,0,1-.76.32,3.68,3.68,0,0,1-.89.11A3.41,3.41,0,0,1,422.57,353.36Z" fill="#1e1e1e"/>
      <path d="M430.81,353.52a1.8,1.8,0,0,1-.9.19c-1.05,0-1.57-.59-1.57-1.76V348.4h-1v-.82h1v-1.47l1-.31v1.78h1.51v.82H429.3v3.38a1.45,1.45,0,0,0,.2.86.84.84,0,0,0,.68.26,1,1,0,0,0,.63-.2Z" fill="#1e1e1e"/>
      <path d="M434.6,353.72a2.79,2.79,0,0,1-2.12-.84,3.11,3.11,0,0,1-.8-2.23,3.23,3.23,0,0,1,.83-2.36,3,3,0,0,1,2.23-.85,2.69,2.69,0,0,1,2.1.82,3.32,3.32,0,0,1,.75,2.3,3.25,3.25,0,0,1-.81,2.3A2.87,2.87,0,0,1,434.6,353.72Zm.07-5.47a1.83,1.83,0,0,0-1.46.63,2.58,2.58,0,0,0-.54,1.73,2.47,2.47,0,0,0,.54,1.69,1.86,1.86,0,0,0,1.46.61,1.75,1.75,0,0,0,1.43-.6,3.17,3.17,0,0,0,0-3.45A1.73,1.73,0,0,0,434.67,348.25Z" fill="#1e1e1e"/>
      <path d="M447.65,353.58h-1v-3.45a2.66,2.66,0,0,0-.3-1.44,1.19,1.19,0,0,0-1-.44,1.25,1.25,0,0,0-1,.56,2.12,2.12,0,0,0-.43,1.35v3.42h-1V350c0-1.18-.45-1.77-1.36-1.77a1.24,1.24,0,0,0-1,.53,2.14,2.14,0,0,0-.41,1.38v3.42h-1v-6h1v.95h0a2,2,0,0,1,1.86-1.09,1.76,1.76,0,0,1,1.08.34,1.73,1.73,0,0,1,.62.9,2.14,2.14,0,0,1,2-1.24c1.32,0,2,.81,2,2.44Z" fill="#1e1e1e"/>
      <path d="M452.73,353.58h-1v-7.26a1.74,1.74,0,0,1-.33.25,5.06,5.06,0,0,1-.48.29,5.85,5.85,0,0,1-.56.26,5,5,0,0,1-.58.2v-1a5.46,5.46,0,0,0,.68-.23c.23-.1.46-.22.69-.34a5.88,5.88,0,0,0,.65-.39,4.87,4.87,0,0,0,.53-.39h.36Z" fill="#1e1e1e"/>
    </g>
    <g>
      <path d="M517.25,353.23a4.89,4.89,0,0,1-2.32.49,3.74,3.74,0,0,1-2.87-1.15,4.26,4.26,0,0,1-1.08-3,4.5,4.5,0,0,1,1.21-3.26,4.12,4.12,0,0,1,3.08-1.24,4.92,4.92,0,0,1,2,.34v1.05a4,4,0,0,0-2-.5,3.07,3.07,0,0,0-2.35,1,3.66,3.66,0,0,0-.9,2.59,3.44,3.44,0,0,0,.84,2.44,2.87,2.87,0,0,0,2.21.92,4.11,4.11,0,0,0,2.19-.57Z" fill="#1e1e1e"/>
      <path d="M523.69,353.58h-1v-.95h0a2,2,0,0,1-1.85,1.09c-1.43,0-2.15-.85-2.15-2.55v-3.59h1V351c0,1.27.48,1.9,1.45,1.9a1.46,1.46,0,0,0,1.16-.52,2,2,0,0,0,.45-1.35v-3.46h1Z" fill="#1e1e1e"/>
      <path d="M525.26,353.36v-1a2.82,2.82,0,0,0,1.73.58c.84,0,1.27-.28,1.27-.84a.76.76,0,0,0-.11-.41,1.22,1.22,0,0,0-.3-.3,2.44,2.44,0,0,0-.43-.23l-.54-.21c-.26-.11-.49-.21-.7-.32a2.22,2.22,0,0,1-.5-.36,1.35,1.35,0,0,1-.3-.46,1.66,1.66,0,0,1-.11-.61,1.39,1.39,0,0,1,.2-.74,1.78,1.78,0,0,1,.51-.55,2.26,2.26,0,0,1,.74-.33,3.56,3.56,0,0,1,2.24.16v1a2.68,2.68,0,0,0-1.52-.43,1.88,1.88,0,0,0-.49.06,1.4,1.4,0,0,0-.37.17.88.88,0,0,0-.24.27.77.77,0,0,0-.08.34.87.87,0,0,0,.08.39.83.83,0,0,0,.25.28,1.68,1.68,0,0,0,.4.23l.53.21c.27.11.51.21.72.32a2.82,2.82,0,0,1,.54.36,1.41,1.41,0,0,1,.34.47,1.46,1.46,0,0,1,.12.62,1.51,1.51,0,0,1-.2.78,1.58,1.58,0,0,1-.52.54,2.26,2.26,0,0,1-.76.32,3.68,3.68,0,0,1-.89.11A3.39,3.39,0,0,1,525.26,353.36Z" fill="#1e1e1e"/>
      <path d="M533.5,353.52a1.82,1.82,0,0,1-.9.19c-1.05,0-1.57-.59-1.57-1.76V348.4h-1v-.82h1v-1.47l1-.31v1.78h1.51v.82H532v3.38a1.45,1.45,0,0,0,.2.86.84.84,0,0,0,.68.26,1.05,1.05,0,0,0,.63-.2Z" fill="#1e1e1e"/>
      <path d="M537.29,353.72a2.77,2.77,0,0,1-2.12-.84,3.11,3.11,0,0,1-.8-2.23,3.23,3.23,0,0,1,.83-2.36,3,3,0,0,1,2.23-.85,2.71,2.71,0,0,1,2.1.82,3.32,3.32,0,0,1,.75,2.3,3.25,3.25,0,0,1-.81,2.3A2.87,2.87,0,0,1,537.29,353.72Zm.07-5.47a1.81,1.81,0,0,0-1.46.63,2.58,2.58,0,0,0-.54,1.73,2.47,2.47,0,0,0,.54,1.69,1.86,1.86,0,0,0,1.46.61,1.75,1.75,0,0,0,1.43-.6,3.23,3.23,0,0,0,0-3.45A1.73,1.73,0,0,0,537.36,348.25Z" fill="#1e1e1e"/>
      <path d="M550.33,353.58h-1v-3.45a2.57,2.57,0,0,0-.31-1.44,1.16,1.16,0,0,0-1-.44,1.28,1.28,0,0,0-1,.56,2.18,2.18,0,0,0-.43,1.35v3.42h-1V350c0-1.18-.45-1.77-1.36-1.77a1.24,1.24,0,0,0-1,.53,2.14,2.14,0,0,0-.42,1.38v3.42h-1v-6h1v.95h0a2,2,0,0,1,1.86-1.09,1.73,1.73,0,0,1,1.7,1.24,2.14,2.14,0,0,1,2-1.24c1.32,0,2,.81,2,2.44Z" fill="#1e1e1e"/>
      <path d="M555.77,353.71a.63.63,0,0,1-.46-.2.6.6,0,0,1-.19-.46.62.62,0,0,1,.19-.46.63.63,0,0,1,.46-.2.65.65,0,0,1,.47.2.62.62,0,0,1,.19.46.6.6,0,0,1-.19.46A.65.65,0,0,1,555.77,353.71Z" fill="#1e1e1e"/>
      <path d="M558.37,353.71a.63.63,0,0,1-.46-.2.64.64,0,0,1-.19-.46.66.66,0,0,1,.19-.46.64.64,0,0,1,.93,0,.62.62,0,0,1,.19.46.6.6,0,0,1-.19.46A.63.63,0,0,1,558.37,353.71Z" fill="#1e1e1e"/>
      <path d="M561,353.71a.63.63,0,0,1-.46-.2.64.64,0,0,1-.19-.46.66.66,0,0,1,.19-.46.67.67,0,0,1,1.13.46.61.61,0,0,1-.2.46A.63.63,0,0,1,561,353.71Z" fill="#1e1e1e"/>
    </g>
    <g>
      <path d="M434.72,307.23a4.92,4.92,0,0,1-2.32.49,3.72,3.72,0,0,1-2.87-1.15,4.26,4.26,0,0,1-1.08-3,4.45,4.45,0,0,1,1.21-3.26,4.11,4.11,0,0,1,3.08-1.24,5,5,0,0,1,2,.34v1.05a4,4,0,0,0-2-.5,3.07,3.07,0,0,0-2.35,1,3.66,3.66,0,0,0-.9,2.59,3.44,3.44,0,0,0,.84,2.44,2.87,2.87,0,0,0,2.21.92,4.11,4.11,0,0,0,2.19-.57Z" fill="#1e1e1e"/>
      <path d="M441.15,307.58h-1v-.95h0a2,2,0,0,1-1.86,1.09c-1.42,0-2.14-.85-2.14-2.55v-3.59h1V305c0,1.27.48,1.9,1.45,1.9a1.47,1.47,0,0,0,1.16-.52,2,2,0,0,0,.45-1.35v-3.46h1Z" fill="#1e1e1e"/>
      <path d="M442.73,307.36v-1a2.82,2.82,0,0,0,1.73.58q1.26,0,1.26-.84a.68.68,0,0,0-.11-.41,1.17,1.17,0,0,0-.29-.3,2.86,2.86,0,0,0-.43-.23l-.54-.21a6.76,6.76,0,0,1-.7-.32,2.22,2.22,0,0,1-.5-.36,1.38,1.38,0,0,1-.31-.46,1.66,1.66,0,0,1-.1-.61,1.38,1.38,0,0,1,.19-.74,1.7,1.7,0,0,1,.52-.55,2.21,2.21,0,0,1,.73-.33,3.49,3.49,0,0,1,.86-.11,3.41,3.41,0,0,1,1.39.27v1a2.7,2.7,0,0,0-1.52-.43,1.83,1.83,0,0,0-.49.06,1.26,1.26,0,0,0-.37.17.68.68,0,0,0-.24.27.67.67,0,0,0-.09.34.75.75,0,0,0,.09.39.74.74,0,0,0,.25.28,1.68,1.68,0,0,0,.4.23l.53.21c.26.11.5.21.71.32a2.82,2.82,0,0,1,.54.36,1.37,1.37,0,0,1,.47,1.09,1.51,1.51,0,0,1-.2.78,1.61,1.61,0,0,1-.53.54,2.21,2.21,0,0,1-.75.32,3.76,3.76,0,0,1-.9.11A3.37,3.37,0,0,1,442.73,307.36Z" fill="#1e1e1e"/>
      <path d="M451,307.52a1.82,1.82,0,0,1-.9.19c-1.05,0-1.58-.59-1.58-1.76V302.4h-1v-.82h1v-1.47l1-.31v1.78H451v.82h-1.52v3.38a1.37,1.37,0,0,0,.21.86.83.83,0,0,0,.68.26,1.05,1.05,0,0,0,.63-.2Z" fill="#1e1e1e"/>
      <path d="M454.76,307.72a2.79,2.79,0,0,1-2.13-.84,3.1,3.1,0,0,1-.79-2.23,3.23,3.23,0,0,1,.82-2.36,3,3,0,0,1,2.24-.85,2.68,2.68,0,0,1,2.09.82,3.32,3.32,0,0,1,.75,2.3,3.25,3.25,0,0,1-.81,2.3A2.85,2.85,0,0,1,454.76,307.72Zm.07-5.47a1.84,1.84,0,0,0-1.47.63,2.58,2.58,0,0,0-.54,1.73,2.42,2.42,0,0,0,.55,1.69,1.85,1.85,0,0,0,1.46.61,1.75,1.75,0,0,0,1.43-.6,3.23,3.23,0,0,0,0-3.45A1.73,1.73,0,0,0,454.83,302.25Z" fill="#1e1e1e"/>
      <path d="M467.8,307.58h-1v-3.45a2.57,2.57,0,0,0-.31-1.44,1.17,1.17,0,0,0-1-.44,1.28,1.28,0,0,0-1.05.56,2.12,2.12,0,0,0-.43,1.35v3.42h-1V304c0-1.18-.46-1.77-1.37-1.77a1.24,1.24,0,0,0-1,.53,2.2,2.2,0,0,0-.41,1.38v3.42h-1v-6h1v.95h0a2,2,0,0,1,1.87-1.09,1.71,1.71,0,0,1,1.07.34,1.81,1.81,0,0,1,.63.9,2.13,2.13,0,0,1,2-1.24c1.32,0,2,.81,2,2.44Z" fill="#1e1e1e"/>
      <path d="M481.42,307.58h-1v-3.45a2.57,2.57,0,0,0-.31-1.44,1.17,1.17,0,0,0-1-.44,1.28,1.28,0,0,0-1.05.56,2.18,2.18,0,0,0-.43,1.35v3.42h-1V304c0-1.18-.45-1.77-1.36-1.77a1.27,1.27,0,0,0-1.05.53,2.2,2.2,0,0,0-.41,1.38v3.42h-1v-6h1v.95h0a2,2,0,0,1,1.86-1.09,1.73,1.73,0,0,1,1.7,1.24,2.14,2.14,0,0,1,2-1.24c1.32,0,2,.81,2,2.44Z" fill="#1e1e1e"/>
      <path d="M483.73,300.06a.6.6,0,0,1-.44-.18.61.61,0,0,1-.18-.45.61.61,0,0,1,.62-.62.61.61,0,0,1,.45.18.6.6,0,0,1,.18.44.63.63,0,0,1-.63.63Zm.47,7.52h-1v-6h1Z" fill="#1e1e1e"/>
      <path d="M491.27,307.58h-1v-1h0a2.21,2.21,0,0,1-2.06,1.16,2.24,2.24,0,0,1-1.81-.81,3.28,3.28,0,0,1-.68-2.19,3.57,3.57,0,0,1,.75-2.38,2.48,2.48,0,0,1,2-.9,1.91,1.91,0,0,1,1.8,1h0V298.7h1Zm-1-2.71V304a1.7,1.7,0,0,0-.49-1.23,1.61,1.61,0,0,0-1.21-.5,1.67,1.67,0,0,0-1.39.64,2.87,2.87,0,0,0-.5,1.78,2.56,2.56,0,0,0,.48,1.64,1.59,1.59,0,0,0,1.3.6,1.61,1.61,0,0,0,1.3-.58A2.13,2.13,0,0,0,490.31,304.87Z" fill="#1e1e1e"/>
      <path d="M498.33,307.58h-1v-1h0a2.42,2.42,0,0,1-3.87.35,3.28,3.28,0,0,1-.68-2.19,3.57,3.57,0,0,1,.75-2.38,2.48,2.48,0,0,1,2-.9,1.93,1.93,0,0,1,1.8,1h0V298.7h1Zm-1-2.71V304a1.73,1.73,0,0,0-.48-1.23,1.64,1.64,0,0,0-1.22-.5,1.66,1.66,0,0,0-1.38.64,2.81,2.81,0,0,0-.5,1.78,2.56,2.56,0,0,0,.48,1.64,1.57,1.57,0,0,0,1.3.6,1.63,1.63,0,0,0,1.3-.58A2.17,2.17,0,0,0,497.37,304.87Z" fill="#1e1e1e"/>
      <path d="M501.24,307.58h-1V298.7h1Z" fill="#1e1e1e"/>
      <path d="M508,304.82h-4.24a2.3,2.3,0,0,0,.54,1.55,1.87,1.87,0,0,0,1.42.54,2.93,2.93,0,0,0,1.86-.67v.91a3.5,3.5,0,0,1-2.09.57,2.52,2.52,0,0,1-2-.82,3.36,3.36,0,0,1-.73-2.3,3.29,3.29,0,0,1,.8-2.28,2.53,2.53,0,0,1,2-.88,2.25,2.25,0,0,1,1.82.76,3.18,3.18,0,0,1,.65,2.12Zm-1-.81a2,2,0,0,0-.4-1.3,1.36,1.36,0,0,0-1.1-.46,1.55,1.55,0,0,0-1.15.48,2.25,2.25,0,0,0-.59,1.28Z" fill="#1e1e1e"/>
      <path d="M517,301.58l-1.8,6h-1l-1.23-4.3a2.84,2.84,0,0,1-.1-.55h0a2.44,2.44,0,0,1-.12.54l-1.35,4.31h-1l-1.81-6h1l1.24,4.51a3.12,3.12,0,0,1,.08.54H511a2.29,2.29,0,0,1,.1-.55l1.38-4.5h.88l1.25,4.52a5.29,5.29,0,0,1,.08.54h0a2.61,2.61,0,0,1,.1-.54l1.22-4.52Z" fill="#1e1e1e"/>
      <path d="M522.43,307.58h-1v-.94h0a2.2,2.2,0,0,1-3.25.61,1.64,1.64,0,0,1-.5-1.26c0-1.13.66-1.78,2-2l1.8-.25c0-1-.42-1.53-1.24-1.53a2.92,2.92,0,0,0-2,.74v-1a3.76,3.76,0,0,1,2-.56c1.41,0,2.12.74,2.12,2.24Zm-1-3-1.45.2a2.59,2.59,0,0,0-1,.33,1,1,0,0,0-.34.85.89.89,0,0,0,.31.71,1.2,1.2,0,0,0,.84.28,1.55,1.55,0,0,0,1.18-.5,1.8,1.8,0,0,0,.47-1.27Z" fill="#1e1e1e"/>
      <path d="M527.37,302.55a1.18,1.18,0,0,0-.73-.19,1.23,1.23,0,0,0-1,.58,2.72,2.72,0,0,0-.41,1.58v3.06h-1v-6h1v1.24h0a2.07,2.07,0,0,1,.63-1,1.4,1.4,0,0,1,.94-.36,1.5,1.5,0,0,1,.58.09Z" fill="#1e1e1e"/>
      <path d="M533.23,304.82H529a2.3,2.3,0,0,0,.54,1.55,1.88,1.88,0,0,0,1.42.54,2.89,2.89,0,0,0,1.86-.67v.91a3.47,3.47,0,0,1-2.09.57,2.51,2.51,0,0,1-2-.82,3.83,3.83,0,0,1,.06-4.58,2.54,2.54,0,0,1,2-.88,2.26,2.26,0,0,1,1.83.76,3.18,3.18,0,0,1,.64,2.12Zm-1-.81a2,2,0,0,0-.4-1.3,1.37,1.37,0,0,0-1.1-.46,1.57,1.57,0,0,0-1.16.48A2.24,2.24,0,0,0,529,304Z" fill="#1e1e1e"/>
      <path d="M534.32,307.36v-1a2.82,2.82,0,0,0,1.73.58q1.26,0,1.26-.84a.76.76,0,0,0-.1-.41,1.22,1.22,0,0,0-.3-.3,2.44,2.44,0,0,0-.43-.23l-.54-.21c-.26-.11-.5-.21-.7-.32a2.22,2.22,0,0,1-.5-.36,1.22,1.22,0,0,1-.3-.46,1.66,1.66,0,0,1-.11-.61,1.39,1.39,0,0,1,.2-.74,1.67,1.67,0,0,1,.51-.55,2.26,2.26,0,0,1,.74-.33,3.56,3.56,0,0,1,2.24.16v1a2.7,2.7,0,0,0-1.52-.43,1.88,1.88,0,0,0-.49.06,1.4,1.4,0,0,0-.37.17.88.88,0,0,0-.24.27.77.77,0,0,0-.08.34.87.87,0,0,0,.08.39.83.83,0,0,0,.25.28,1.68,1.68,0,0,0,.4.23l.53.21c.27.11.51.21.72.32a2.82,2.82,0,0,1,.54.36,1.57,1.57,0,0,1,.34.47,1.46,1.46,0,0,1,.12.62,1.51,1.51,0,0,1-.2.78,1.58,1.58,0,0,1-.52.54,2.26,2.26,0,0,1-.76.32,3.68,3.68,0,0,1-.89.11A3.39,3.39,0,0,1,534.32,307.36Z" fill="#1e1e1e"/>
    </g>
    <g>
      <path d="M638,353.58h-4.46v-8.4h4.27v.89h-3.28v2.79h3v.89h-3v2.94H638Z" fill="#1e1e1e"/>
      <path d="M644.48,353.58h-1v-3.42c0-1.28-.46-1.91-1.39-1.91a1.5,1.5,0,0,0-1.19.54,2,2,0,0,0-.47,1.37v3.42h-1v-6h1v1h0a2.16,2.16,0,0,1,2-1.14,1.83,1.83,0,0,1,1.5.63,2.84,2.84,0,0,1,.52,1.84Z" fill="#1e1e1e"/>
      <path d="M651.42,353.58h-1v-1h0a2.21,2.21,0,0,1-2.06,1.16,2.24,2.24,0,0,1-1.81-.81,3.28,3.28,0,0,1-.67-2.19,3.57,3.57,0,0,1,.75-2.38,2.46,2.46,0,0,1,2-.9,1.91,1.91,0,0,1,1.8,1h0V344.7h1Zm-1-2.71V350a1.73,1.73,0,0,0-.48-1.23,1.65,1.65,0,0,0-1.22-.5,1.67,1.67,0,0,0-1.39.64,2.87,2.87,0,0,0-.5,1.78,2.56,2.56,0,0,0,.48,1.64,1.73,1.73,0,0,0,2.6,0A2.13,2.13,0,0,0,650.46,350.87Z" fill="#1e1e1e"/>
      <path d="M654.35,352.71h0v3.63h-1v-8.76h1v1.05h0a2.27,2.27,0,0,1,2.07-1.19,2.21,2.21,0,0,1,1.81.8,3.37,3.37,0,0,1,.65,2.16,3.69,3.69,0,0,1-.73,2.41,2.43,2.43,0,0,1-2,.91A2,2,0,0,1,654.35,352.71Zm0-2.42v.84a1.73,1.73,0,0,0,.49,1.26,1.71,1.71,0,0,0,2.59-.15,3,3,0,0,0,.5-1.85,2.39,2.39,0,0,0-.47-1.57,1.51,1.51,0,0,0-1.25-.57,1.7,1.7,0,0,0-1.35.58A2.15,2.15,0,0,0,654.32,350.29Z" fill="#1e1e1e"/>
      <path d="M662.92,353.72a2.79,2.79,0,0,1-2.12-.84,3.1,3.1,0,0,1-.79-2.23,3.23,3.23,0,0,1,.82-2.36,3,3,0,0,1,2.23-.85,2.69,2.69,0,0,1,2.1.82,3.32,3.32,0,0,1,.75,2.3,3.25,3.25,0,0,1-.81,2.3A2.87,2.87,0,0,1,662.92,353.72Zm.07-5.47a1.83,1.83,0,0,0-1.46.63,2.58,2.58,0,0,0-.54,1.73,2.42,2.42,0,0,0,.55,1.69,1.84,1.84,0,0,0,1.45.61,1.77,1.77,0,0,0,1.44-.6,3.23,3.23,0,0,0,0-3.45A1.75,1.75,0,0,0,663,348.25Z" fill="#1e1e1e"/>
      <path d="M667.94,346.06a.6.6,0,0,1-.44-.18.61.61,0,0,1-.18-.45.61.61,0,0,1,.62-.62.61.61,0,0,1,.45.18.6.6,0,0,1,.18.44.63.63,0,0,1-.63.63Zm.47,7.52h-1v-6h1Z" fill="#1e1e1e"/>
      <path d="M675.33,353.58h-1v-3.42c0-1.28-.46-1.91-1.39-1.91a1.5,1.5,0,0,0-1.19.54,2,2,0,0,0-.48,1.37v3.42h-1v-6h1v1h0a2.16,2.16,0,0,1,2-1.14,1.83,1.83,0,0,1,1.5.63,2.84,2.84,0,0,1,.52,1.84Z" fill="#1e1e1e"/>
      <path d="M679.93,353.52a1.82,1.82,0,0,1-.9.19c-1,0-1.57-.59-1.57-1.76V348.4h-1v-.82h1v-1.47l1-.31v1.78h1.51v.82h-1.51v3.38a1.38,1.38,0,0,0,.2.86.83.83,0,0,0,.68.26,1.05,1.05,0,0,0,.63-.2Z" fill="#1e1e1e"/>
    </g>
  </g>
</svg>
